<?xml version="1.0" encoding="utf-8"?>
<!-- Generator: Adobe Illustrator 16.0.0, SVG Export Plug-In . SVG Version: 6.00 Build 0)  -->
<!DOCTYPE svg PUBLIC "-//W3C//DTD SVG 1.1//EN" "http://www.w3.org/Graphics/SVG/1.1/DTD/svg11.dtd">
<svg version="1.1" id="Layer_1" xmlns="http://www.w3.org/2000/svg" xmlns:xlink="http://www.w3.org/1999/xlink" x="0px" y="0px"
	 width="1200px" height="800px" viewBox="0 0 1200 800" enable-background="new 0 0 1200 800" xml:space="preserve">
<path fill-rule="evenodd" clip-rule="evenodd" fill="#020000" d="M287,1075c0-2.436,0-4.87,0-7.979
	c5.418,2.753,10.718,4.346,15,7.979C297,1075,292,1075,287,1075z"/>
<path fill-rule="evenodd" clip-rule="evenodd" fill="#FEDCD3" d="M699,1075c6.333-1.629,12.667-1.808,19,0
	C711.667,1075,705.333,1075,699,1075z"/>
<path fill-rule="evenodd" clip-rule="evenodd" fill="#23475F" d="M571.272-0.077c13.736-1.504,27.523-1.583,41.3-1.088
	c34.36,1.236,67.832,7.385,100.333,18.671c20.732,7.199,40.68,16.119,59.591,27.298c1.219,1.751-0.069,3.133-0.801,4.477
	c-4.404,8.096-9.159,15.993-13.751,23.983c-11.774,20.493-23.655,40.925-35.438,61.413c-7.676,13.347-15.43,26.647-23.065,40.017
	c-2.053,3.596-2.073,3.747,1.303,5.806c9.931,6.059,19.063,13.132,27.807,20.832c10.164,8.949,18.768,19.197,26.953,29.876
	c0.989,1.29,1.688,2.769,2.644,4.081c3.678,4.557,6.58,9.638,9.367,14.732c3.779,6.909,7.47,13.896,10.234,21.307
	c1.903,3.945,3.078,8.17,4.661,12.24c0.429,1.103,0.688,2.27,2.031,2.646c4.78,2.015,9.274,3.606,14.859,1.821
	c27.775-8.878,55.685-17.333,83.568-25.87c14.822-4.538,29.581-9.284,44.446-13.685c1.548-0.458,3.153-1.079,4.564,0.377
	c3.264,9.546,5.266,19.41,7.191,29.279c5.42,27.804,7.34,55.874,5.846,84.156c-1.257,23.77-4.843,47.194-10.979,70.209
	c-1.63,2.028-3.607,0.89-5.387,0.458c-13.072-3.164-26.122-6.428-39.153-9.758c-34.575-8.837-69.215-17.416-103.823-26.12
	c-0.737-0.185-1.496-0.276-2.217-0.525c-2.379-0.82-3.667,0.068-4.247,2.476c-1.937,8.038-4.874,15.741-8.035,23.361
	c-2.995,7.217-6.328,14.271-10.567,20.857c-4.012,7.264-8.731,14.066-13.69,20.707c-1.288,1.726-2.591,3.447-4.363,4.734
	c-3.099,1.75-5.246,4.578-7.489,7.158c-8.372,9.631-18.271,17.476-28.432,25.043c-2.604,1.94-5.128,4.048-8.008,5.543
	c-2.035,1.058-1.981,2.259-1.074,3.928c3.574,6.574,7.071,13.194,10.957,19.592c12.044,19.831,24.29,39.539,36.4,59.331
	c7.921,12.945,15.708,25.975,23.823,38.801c1.624,2.567,3.072,5.238,4.639,7.839c1.134,1.881,2.356,2.31,4.256,1.037
	c1.234-0.827,2.6-1.693,4.239-0.865c0.407,0.326,0.646,0.719,0.493,1.264c-23.354,14.833-48.289,26.308-74.538,34.949
	c-22.919,7.546-46.388,12.588-70.39,15.117c-2.468-1.612-3.152-5.431-1.527-8.496c0.094-0.046,0.195-0.139,0.29-0.131
	c4.375,0.32,4.846-0.23,4.248-4.941c-1.782-14.062-2.895-28.196-4.45-42.28c-1.234-11.183-2.479-22.366-3.593-33.558
	c-1.116-11.196-2.363-22.378-3.481-33.573c-0.916-9.149-1.839-18.299-2.762-27.446c-0.377-3.737-2.686-5.98-6.057-7.277
	c-5.18,0.111-10.354,0.535-15.516,0.658c-10.899,0.26-21.775-0.566-32.554-2.334c-14.381-1.863-28.187-5.926-41.65-11.191
	c-6.853-2.68-13.696-5.435-19.898-9.492c-6.743-2.821-12.64-7.085-18.714-11.044c-0.542-0.354-1.025-0.796-1.563-1.166
	c-3.675-2.523-3.718-2.565-6.366,0.967c-21.763,29.037-43.502,58.09-65.341,87.068c-8.213,10.898-16.41,21.808-24.646,32.687
	c-0.907,1.199-1.711,2.942-3.817,2.416c-36.223-28.045-65.998-61.748-88.976-101.411c-4.348-7.507-8.395-15.175-12.181-22.979
	c0.201-3.011,2.386-3.266,4.678-3.378c1.987,1.368,4.217,0.339,6.298,0.637c5.792,0.829,10.714-1.258,15.773-3.768
	c21.762-10.796,43.69-21.254,65.566-31.813c16.014-7.73,32.004-15.51,48.057-23.159c5.702-2.716,5.865-3.542,3.266-9.45
	c-5.33-12.119-9.506-24.629-12.126-37.61c-1.799-8.917-3.031-17.915-3.36-27.048c-0.152-4.212-0.651-8.426-0.528-12.653
	c0.492-16.839,2.394-33.494,7.131-49.71c1.102-3.769,0.045-6.505-2.602-8.98c-8.487-3.357-17.325-5.623-26.017-8.327
	c-15.946-4.964-31.929-9.815-47.884-14.752c-23.106-7.149-46.232-14.23-69.339-21.376c-1.452-0.448-2.894-0.929-4.309-1.481
	c-1.131-0.442-2.226-0.955-2.258-2.434c14.789-46.115,38.334-87.241,70.374-123.529c0.5-0.566,0.975-1.156,1.462-1.736
	c1.501-0.667,2.407,0.407,3.452,1.149c4.44,3.154,8.052,7.248,11.993,10.934c10.752,10.061,21.605,20.017,32.379,30.055
	c9.739,9.074,19.398,18.243,29.374,27.065c1.058,0.935,1.653,2.296,2.867,3.082c5.834,4.838,11.297,10.095,16.811,15.279
	c4.574,4.301,9.415,8.321,13.73,12.902c1.939,2.06,4.175,3.369,7.119,1.967c2.856-0.618,5.599-1.669,8.571-1.82
	c1.792-0.09,3.156-1.291,4.443-2.515c13.704-13.032,29.071-23.713,46-32.098c19.014-9.417,39.05-15.617,60.107-18.407
	c2.04-0.271,4.095-0.365,6.137-0.704c2.31-0.383,3.19-1.608,2.977-3.808c-1.203-12.4-2.104-24.826-2.945-37.25
	c-0.688-10.162-1.603-20.307-2.261-30.472c-0.629-9.722-1.491-19.438-2.27-29.153c-0.562-7.017-1.066-14.045-1.542-21.073
	c-0.65-9.621-1.544-19.225-2.076-28.855c-0.139-2.505-1.076-4.43-4.104-4.381c-0.983,0.016-1.9-0.411-2.668-1.083
	C570.211,2.69,569.417,1.235,571.272-0.077z"/>
<path fill-rule="evenodd" clip-rule="evenodd" fill="#B63B83" d="M271.123,238.598c9.313,3.542,18.944,6.09,28.446,9.035
	c39.925,12.371,79.871,24.675,119.811,36.996c0.927,0.286,1.932,0.395,2.461,1.375c1.093,2.166,0.281,4.257-0.296,6.332
	c-3.415,12.268-5.378,24.777-6.28,37.466c-0.42,2.399-0.769,4.8-0.305,7.239c-0.328,3.177-0.305,6.352,0.023,9.527
	c0.065,1.751-0.495,3.408-0.882,5.073c-0.419,1.801-1.731,3.157-3.531,3.347c-5.022,0.529-10.049,1.208-15.124,0.902
	c-0.776-0.047-1.451-0.376-1.995-0.938c-1.439-1.819-0.76-3.718-0.081-5.547c1.924-5.181,3.975-10.315,5.784-15.538
	c1.914-5.525,5.821-9.866,8.677-14.83c3.406-5.921,1.476-10.638-5.191-12.637c-3.924-1.177-6.871-0.564-8.501,2.626
	c-5.677,11.105-15.276,18.287-24.776,25.67c-13.253,10.299-26.277,20.89-39.489,31.243c-0.853,0.668-1.697,1.341-2.578,1.976
	c-3.222,2.319-4.585,2.333-7.826-0.076c-4.174-3.101-8.155-6.448-12.223-9.683c-14.409-11.46-28.893-22.826-43.25-34.351
	c-1.969-1.58-3.681-3.326-5.004-5.49c-2.034-3.329-4.275-6.525-6.469-9.752c-1.6-2.352-3.725-3.069-6.485-2.483
	c-2.17,0.46-4.164,1.279-5.932,2.551c-3.183,2.289-4.198,5.776-1.889,8.771c9.644,12.5,13.275,27.62,18.697,41.961
	c0.774,2.048,2.292,4.096,0.796,6.472c-2.995,2.059-6.529,1.216-9.777,1.582c-6.121,0.689-12.305,0.905-18.454,1.445
	c-1.198-4.779-0.914-9.704-1.068-14.534c-1.303-40.705,3.677-80.63,15.265-119.72c0.952-3.212,2.191-3.434,5.022-2.561
	C256.14,234.34,263.436,237.148,271.123,238.598z"/>
<path fill-rule="evenodd" clip-rule="evenodd" fill="#8C3280" d="M393.649,353.67c3.256,1.712,6.676,0.494,10.021,0.524
	c1.395,0.013,2.789-0.364,4.188-0.4c4.549-0.12,5.259-0.797,5.342-5.311c0.012-0.65,0.084-1.297,0.128-1.946
	c2.369,0.387,1.914,2.321,1.974,3.83c0.909,22.958,6.185,44.953,14.539,66.274c0.672,1.719,1.543,3.347,2.22,5.062
	c1.183,2.995,0.883,3.892-2.03,5.474c-3.146,1.711-6.495,3.013-9.691,4.609c-16.593,8.291-33.395,16.146-50.074,24.259
	c-18.334,8.915-36.733,17.7-55.097,26.559c-5.176,2.497-10.374,4.953-15.51,7.532c-2,1.004-4,1.63-6.24,1.278
	c-1.613,0.707-3.287,1.3-4.642,2.488c-6.95,3.273-13.928,6.49-20.832,9.86c-1.823,0.89-2.699,0.849-3.655-1.188
	c-13.794-29.359-23.756-59.941-29.589-91.862c-2.532-13.854-4.576-27.766-5.218-41.853c0.737-1.886,2.45-1.919,4.041-2.022
	c7.283-0.477,14.57-0.886,21.853-1.361c0.723-0.047,1.428-0.372,2.141-0.568c2.449-0.145,2.499,1.97,3.038,3.424
	c4.24,11.434,8.55,22.84,12.751,34.288c0.278,0.758,0.299,1.718,1.45,2.286c0.209-3.18-1.551-5.641-2.343-8.347
	c-0.569-1.94-1.705-3.877,0.32-5.667c4.116-0.339,8.3-1.994,12.266,0.612c0.751,0.743,0.946,1.677,0.845,2.688
	c-0.204,2.031,0.479,3.837,1.345,5.613c1.501,3.077,1.16,4.174-2.019,5.499c-3.613,1.506-6.192,3.918-7.393,7.687
	c-1.276,4.004-0.468,5.129,3.729,5.158c4.122,0.028,8.245-0.024,12.366,0.017c1.954,0.019,3.318-0.549,3.973-2.562
	c0.883-2.713,2.379-5.103,4.342-7.175c1.318-1.393,1.211-2.374-0.607-3.192c-1.62-0.729-3.036-2.177-2.136-3.824
	c1.97-3.61,1.376-7.327,1.245-11.076c0.507-1.165,1.531-1.701,2.622-2.152c2.025-0.526,3.445-2.999,5.991-1.883
	c0.66,0.792,1.114,1.767,2.555,1.244c1.222-0.444,2.558-0.441,3.393,0.943c0.402,1.275-0.322,2.321-0.715,3.423
	c-1.286,3.605-1.009,6.976,1.155,10.23c2.381,3.58,2.109,4.503-2.085,6.098c-6.145,2.335-9.759,6.519-10.634,13.121
	c-0.309,2.325,0.476,3.266,2.71,3.272c12.037,0.038,24.075,0.048,36.112-0.005c2.327-0.01,3.06-1.228,2.682-3.371
	c-1.008-5.703-3.689-10.123-9.319-12.358c-1.106-0.439-2.27-0.771-3.308-1.346c-1.542-0.854-2.357-2.309-1.237-3.783
	c3.662-4.824,3.797-9.714,0.832-14.853c-0.153-0.265-0.06-0.64-0.021-0.963c0.812-2.062,3.382-1.572,4.547-3.129
	c0.997-0.456,2.036-0.273,2.735,0.4c2.36,2.273,4.474,1.818,6.554-0.345c1.924-0.113,3.878-0.312,5.141,1.637
	c0.356,1.377-0.461,2.213-1.368,3.048c-3.018,2.781-3.423,6.071-1.882,9.755c1.512,3.616,1.463,3.955-1.744,6.057
	c-1.366,0.896-1.531,1.682-0.459,2.817c2.187,2.316,3.767,4.996,4.821,7.995c0.444,1.266,1.34,1.904,2.698,1.927
	c5.088,0.085,10.176,0.037,15.265,0.024c2.082-0.006,2.625-1.155,2.356-2.96c-0.675-4.531-3.116-7.726-7.286-9.631
	c-4.057-1.854-4.334-2.483-2.302-6.278c1.79-3.341,1.058-6.245-1.157-9.002c-0.925-1.153-2.357-2.038-1.908-3.871
	c0.375-0.971,1.063-1.701,2.059-1.864c5.987-0.983,12.062-1.233,18.06-2.125c1.844,1.199,1.167,2.803,0.633,4.337
	c-1.708,4.913-3.731,9.711-5.394,14.641c-0.293,0.87-0.908,1.717-0.244,3.057c1.2-1.591,1.647-3.234,2.223-4.796
	c5.203-14.132,10.542-28.213,15.72-42.354C391.054,355.755,391.398,353.825,393.649,353.67z"/>
<path fill-rule="evenodd" clip-rule="evenodd" fill="#00B272" d="M741.751,467.768c6.034-6.79,10.954-14.374,15.729-22.062
	c0.565-0.908,1.2-1.773,1.803-2.658c1.517-0.187,2.627,0.597,3.833,1.389c3.032,1.996,5.719,4.53,9.082,6.11
	c1.023-1.395,0.383-2.897,0.777-4.197c0.385-1.271,0.626-3.062,2.681-1.529c1.026,1.812,0.666,3.805,0.691,5.727
	c0.062,4.652-0.016,9.308,0.038,13.961c0.023,1.936-0.217,4.193,2.681,4.264c2.928,0.07,2.691-2.158,2.812-4.12
	c0.164-2.678-0.441-5.413,0.579-8.027c1.231-1.451,2.364-0.637,2.691,0.556c1.492,5.42,6.322,7.489,10.271,10.312
	c15.904,11.371,31.733,22.85,47.665,34.184c1.149,0.818,2.534,1.278,3.561,2.245c1.202,1.13,2.535,2.353,0.534,3.97
	c-1.781,0.676-3.643,0.477-5.474,0.483c-11.604,0.04-23.209-0.032-34.812,0.047c-3.365,0.021-4.19,0.757-4.389,3.458
	c-0.251,3.415,0.695,4.484,4.201,4.576c4.011,0.105,8.027-0.092,12.036,0.112c2.942,0.15,4.354,1.439,4.316,3.748
	c-0.036,2.298-1.43,3.476-4.438,3.638c-4.496,0.243-9.018-0.142-13.503,0.617c18.887,0.39,37.769,0.388,56.661,0.075
	c-2.651-0.945-5.394-0.521-8.093-0.604c-3.143-0.098-6.291,0.09-9.432-0.151c-2.16-0.166-3.445-1.334-3.499-3.513
	c-0.052-2.146,1.081-3.646,3.266-3.697c7.462-0.174,14.936-0.687,22.388,0.297c1.736,2.415,4.122,4.238,6.028,6.506
	c0.574,2.563,0.353,5.17,0.356,7.759c0.018,8.549-0.39,7.708,8.211,8.179c5.29,0.288,10.564-0.769,15.814,0.202
	c3.189,3.086,7.096,5.238,10.543,7.996c1.471,1.177,2.485,2.429,1.841,4.43c-13.052,20.316-27.933,39.189-44.712,56.561
	c-2.029,2.103-4.067,4.195-6.102,6.293c-0.869,0.72-1.737,1.439-2.608,2.159c-2.358,1.617-4.347,0.464-6.246-0.902
	c-9.317-6.706-18.7-13.321-28.026-20.016c-17.771-12.755-35.626-25.393-53.375-38.179c-21.792-15.701-43.702-31.233-65.513-46.906
	c-1.608-1.156-3.546-2.283-3.429-4.774c2.734-3.276,6.578-5.149,9.894-7.681c11.383-8.693,21.952-18.207,30.919-29.425
	C740.472,468.592,740.994,468.021,741.751,467.768z"/>
<path fill-rule="evenodd" clip-rule="evenodd" fill="#00B952" d="M699.931,506.155c0.177,1.462,1.256,2.163,2.339,2.938
	c24.865,17.786,49.701,35.612,74.573,53.389c22.051,15.762,44.136,31.472,66.205,47.206c2.647,1.889,5.303,3.767,7.917,5.699
	c1.447,1.07,2.992,1.742,4.815,1.672c-11.179,11.346-23.43,21.448-36.13,31.021c-2.843,2.142-5.816,4.107-8.731,6.154
	c-2.04,1.067-3.703,0.279-5.354-0.978c-7.461-5.68-15.567-10.488-22.604-16.741c-0.762-0.676-1.724-0.862-2.655-1.132
	c-3.634-3.077-5.687-7.345-8.214-11.219c-7.523-11.532-14.986-23.104-22.481-34.654c-16.938-26.105-33.898-52.196-50.852-78.292
	c-1.015-1.561-2.551-3.278-0.302-5.097C698.915,505.752,699.449,505.729,699.931,506.155z"/>
<path fill-rule="evenodd" clip-rule="evenodd" fill="#FE0202" d="M422.276,186.38c-14.011-12.917-28.034-25.822-42.03-38.754
	c-11.775-10.88-23.518-21.796-35.284-32.686c-0.627-0.581-1.334-1.073-2.004-1.606c-5.529-5.813-11.716-10.931-17.483-16.488
	c-4.338-4.181-4.249-3.011-0.254-7.327c1.312-1.417,2.984-2.523,3.849-4.338c8.284-7.726,16.286-15.76,25.042-22.969
	c2.079-1.711,4.207-3.362,6.312-5.041c2.38-0.217,3.53,1.326,4.413,3.16c8.404,17.472,16.843,34.926,25.286,52.379
	c8.914,18.427,17.707,36.913,26.664,55.321c2.226,4.574,4.477,9.145,6.548,13.792C424.038,183.402,425.328,185.501,422.276,186.38z"
	/>
<path fill-rule="evenodd" clip-rule="evenodd" fill="#88A29D" d="M456.233,684.953c0.447-6.464,3.085-12.392,4.595-18.597
	c1.871-7.69,3.984-15.323,6.146-22.938c0.615-2.164-0.285-4.35,0.496-6.441c1.597,0.123,2.116,1.371,2.583,2.582
	c3.035,7.871,9.479,10.743,17.172,11.083c8.552,0.377,17.131,0.042,25.697,0.124c1.565,0.016,3.333-0.354,4.433,1.333
	c3.893,0.048,7.791,0.236,11.677,0.093c2.656-0.097,3.476,0.605,2.699,3.316c-3.544,12.365-7.094,24.731-10.354,37.173
	c-1.039,3.964-3.504,7.818-1.883,12.23c-10.139-1.761-19.973-4.712-29.783-7.726C478.342,693.691,467.092,689.855,456.233,684.953z"
	/>
<path fill-rule="evenodd" clip-rule="evenodd" fill="#26BB49" d="M780.837,634.582c6.001,2.591,10.698,7.147,16.065,10.695
	c3.586,2.37,6.994,5.01,10.491,7.517c1.056,0.759,2.151,1.451,3.525,1.44c-3.084,2.735-6.74,4.663-10.026,7.107
	c-1.553,1.154-2.287,0.782-3.25-0.73c-4.353-6.845-8.81-13.624-13.253-20.41c-0.646-0.989-1.418-1.895-2.132-2.84
	c-0.233-0.307-0.469-0.613-0.703-0.921C780.846,636.003,780.235,635.526,780.837,634.582z"/>
<path fill-rule="evenodd" clip-rule="evenodd" fill="#FE9900" d="M757.213,235.895c-6.877-9.205-13.954-18.235-22.102-26.387
	c-11.171-11.175-23.442-20.939-37.07-28.932c-2.382-1.397-2.473-2.321-1.152-4.599c24.767-42.73,49.442-85.514,74.128-128.292
	c0.539-0.934,0.988-1.919,1.479-2.881c4.649-7.947,9.361-15.859,13.904-23.867c1.121-1.976,1.901-2.56,4.121-1.246
	c42.742,25.306,79.084,57.765,109.09,97.333c0.848,1.119,1.605,2.307,2.405,3.462c-0.148,2.887-2.452,4.217-4.335,5.737
	c-5.886,4.754-11.723,9.577-17.757,14.143c-2.389,1.808-3.329,3.893-3.296,6.892c0.119,10.823,0.133,21.65-0.023,32.473
	c-0.022,1.564,0.723,3.992-2.319,3.979c-1.615-1.455-1.147-3.422-1.153-5.202c-0.061-15.411-0.027-30.823-0.034-46.234
	c-0.001-1.303,0.046-2.608-0.068-3.905c-0.251-2.866-1.39-4.042-4.295-4.321c-2.27-0.219-4.558-0.029-6.834-0.15
	c-1.615-0.085-3.499,0.04-3.958-2.033c-0.42-1.895,0.699-3.269,2.099-4.463c0.791-0.678,2.151-0.512,2.625-1.921
	c-1.487-0.965-3.125-0.644-4.682-0.54c-1.384,0.093-1.782,0.628-1.103,2.147c1.696,3.791-0.125,6.644-4.403,6.75
	c-9.981,0.25-19.968,0.13-29.951,0.059c-1.947-0.014-3.792-0.349-4.34-2.594c-0.55-2.246,0.518-3.754,2.519-4.702
	c0.39-0.184,0.788-0.377,0.886-1.117c-2.421-1.042-4.853-0.809-7.319-0.153c-0.035,1.416,1.154,1.297,1.762,1.785
	c1.417,1.134,2.052,2.531,1.546,4.293c-0.484,1.69-1.783,2.357-3.456,2.435c-4.447,0.208-8.897,0.086-13.346,0.096
	c-5.535,0.013-11.071,0.1-16.604-0.042c-5.197-0.134-6.705-2.284-5.048-7.179c0.34-1,0.109-1.558-0.772-1.669
	c-1.753-0.222-3.584-0.647-5.418,0.613c1.094,1.249,2.706,1.317,3.606,2.438c0.994,1.237,1.816,2.55,1.199,4.152
	c-0.551,1.433-1.954,1.553-3.286,1.625c-2.385,0.132-4.778-0.04-7.159,0.151c-3.223,0.259-4.521,1.476-4.547,4.74
	c-0.131,17.473-0.119,34.946-0.007,52.419c0.022,3.461,1.312,4.655,4.734,4.897c2.165,0.153,4.343-0.01,6.508,0.191
	c2.022,0.188,3.192,1.181,3.177,3.341c-0.016,2.179-1.266,3.088-3.256,3.278c-2.65,0.253-5.32-0.029-7.969,0.313
	c11.823,0.134,23.647,0.083,35.471,0.125c1.828,0.006,3.697-0.233,5.467,0.492c2.369,2.378,0.447,3.982-1.194,5.314
	c-5.122,4.159-10.293,8.261-15.453,12.375c-9.39,7.483-18.757,14.995-28.141,22.485
	C760.681,235.121,759.354,236.597,757.213,235.895z"/>
<path fill-rule="evenodd" clip-rule="evenodd" fill="#00AE8C" d="M909.202,552.046c-1.802-3.944-5.999-5.155-8.946-7.796
	c-1.125-1.01-2.534-1.707-2.867-3.367c3.434-2.295,3.087-5.816,3.075-9.276c-0.036-9.981,0.001-19.963-0.021-29.944
	c-0.011-5.35-0.31-5.637-5.778-5.649c-5.858-0.013-11.719-0.061-17.576,0.022c-3.522,0.05-4.188,0.711-4.246,4.222
	c-0.103,6.184,0.039,12.368-0.078,18.553c-0.028,1.562,0.323,3.344-1.448,4.368c-1.981-1.284-4.824-1.801-4.552-5.098
	c0.246-2.045,0.484-4.083,0.467-6.156c-0.02-2.475-1.174-3.526-3.595-3.54c-4.019-0.022-8.035,0.062-12.051-0.062
	c-1.376-0.043-2.9,0.149-3.719-1.419c-3.647-3.404-8.071-5.729-12.077-8.638c-15.683-11.395-31.407-22.738-47.285-33.856
	c-3.136-2.194-3.805-5.329-5.124-8.338c-1.316-2.759-0.726-4.108,2.059-4.569c1.395-0.23,2.814-0.179,4.227-0.179
	c28.338-0.011,56.675-0.018,85.012,0.003c7.603,0.006,7.882,0.304,7.906,7.919c0.026,8.36,0,16.721,0.012,25.081
	c0.001,1.084-0.031,2.172,0.127,3.25c0.212,1.45,0.944,2.473,2.497,2.519c1.72,0.052,2.531-1.009,2.733-2.614
	c0.124-0.971,0.107-1.951,0.107-2.928c0.006-10.965,0.02-21.931-0.005-32.896c-0.012-5.287-0.508-5.799-5.771-5.802
	c-33.549-0.025-67.098,0.01-100.646-0.047c-2.297-0.003-4.851,0.69-6.732-1.45c-1.358,2.216-0.475,4.658-0.679,6.989
	c-0.151,1.728-0.918,2.257-2.254,1.212c-4.166-3.26-8.892-5.77-12.691-9.512c6.231-11.458,11.789-23.217,15.797-35.658
	c0.996-3.098,1.915-6.223,2.787-9.359c1.154-4.159,1.122-4.188,5.146-3.176c39.147,9.842,78.293,19.689,117.439,29.538
	c9.993,2.514,19.982,5.047,29.98,7.543c1.144,0.285,2.335,0.382,3.504,0.565c7.365,1.967,14.701,4.056,22.113,5.826
	c2.285,0.546,2.647,1.141,2.059,3.434c-10.035,39.086-26.286,75.424-48.015,109.365
	C909.869,551.478,909.504,551.741,909.202,552.046z"/>
<path fill-rule="evenodd" clip-rule="evenodd" fill="#FEB231" d="M783.385,287.593c-1.234,0.353-1.44-0.591-1.722-1.393
	c-1.678-4.794-3.343-9.594-5.011-14.391c0.215-1.391,1.14-2.289,2.177-3.1c13.777-10.77,27.185-22.006,41.108-32.589
	c0.795-0.605,1.462-1.243,1.985-2.068c0.226-0.224,0.486-0.399,0.77-0.543c4.073-1.509,6.943-4.743,10.2-7.355
	c12.338-9.894,24.773-19.666,37.052-29.636c0.852-0.692,1.65-1.371,2.227-2.302c0.454-0.46,1.01-0.757,1.596-1.002
	c4.008-2.018,7.123-5.238,10.585-7.972c11.539-9.115,22.944-18.4,34.491-27.508c1.628-1.286,2.725-3.538,5.295-3.399
	c6.503,10.191,11.999,20.917,16.932,31.94c0.517,2.501-1.293,3.788-2.845,5.039c-6.823,5.503-13.653,11-20.532,16.435
	c-16.638,13.144-33.188,26.396-49.731,39.658c-8.19,6.565-16.396,13.111-24.696,19.537c-1.323,1.025-2.429,2.081-2.854,3.736
	c-3.459,2.671-7.766,3.199-11.745,4.444c-12.41,3.884-24.839,7.713-37.278,11.506C788.736,287.436,786.093,287.616,783.385,287.593z
	"/>
<path fill-rule="evenodd" clip-rule="evenodd" fill="#FE1300" d="M422.276,186.38c1.291-1.353,0.426-2.622-0.176-3.878
	c-5.346-11.147-10.673-22.303-16.063-33.428c-10.971-22.646-21.996-45.266-32.957-67.916c-3.306-6.831-6.503-13.714-9.675-20.607
	c-0.678-1.473-1.979-2.264-2.982-3.38c8.032-6.833,16.324-13.314,25.338-18.824c1.879-0.459,2.505,1.007,3.124,2.206
	c5.762,11.176,11.084,22.568,16.49,33.917c3.214,6.75,6.486,13.477,9.758,20.195c8.116,16.663,16.088,33.395,24.201,50.06
	c8.87,18.223,17.532,36.547,26.428,54.759c1.28,2.621,2.485,5.295,3.417,8.075c-0.288,3.773-3.405,5.396-5.838,7.474
	c-0.932,0.795-2.137,1.363-3.276,1.932c-1.672,2.09-2.991,2.057-5.077,0.062C444.191,206.697,433.199,196.574,422.276,186.38z"/>
<path fill-rule="evenodd" clip-rule="evenodd" fill="#FE6700" d="M477.71-7.335c14.015-5.108,28.363-8.993,43.024-11.724
	c1.511,0.459,2.157,1.718,2.778,3c10.814,22.325,21.662,44.634,32.293,67.046c3.157,6.657,6.493,13.227,9.632,19.895
	c3.874,8.229,8.08,16.303,11.593,24.699c0.55,1.314,1.927,1.725,2.552,2.884c1.215,3.435,0.829,7.071,1.096,10.586
	c0.768,10.12,1.554,20.241,2.253,30.368c0.373,5.383,0.734,10.772,1.214,16.145c-0.188,1.433-0.481,3.005-2.186,3.157
	c-1.607,0.144-2.849-0.981-3.672-2.291c-1.613-2.567-2.893-5.323-4.14-8.082c-4.231-9.36-8.904-18.509-13.349-27.767
	c-4.306-8.967-8.439-18.02-13.036-26.846c-0.975-1.875-1.021-4.251-3.02-5.573c-1.151-3.039-0.469-6.208-0.631-9.319
	c-0.107-2.048,0.061-4.102-0.6-6.112c-1.561-4.742-4.868-7.356-9.881-7.432c-7.689-0.115-15.381-0.026-23.072-0.038
	c-1.95-0.002-3.906,0.1-5.848-0.03c-2.054-0.137-4.743,0.819-5.744-1.787c-0.905-2.355,1.369-3.674,2.761-5.083
	c6.238-6.324,12.542-12.581,18.822-18.863c0.915-0.916,1.921-1.773,2.507-2.962c0.465-0.945,0.488-1.906-0.295-2.708
	c-0.787-0.805-1.78-0.85-2.691-0.324c-1.595,0.919-3.069,2.023-4.393,3.316c-2.479,2.421-4.901,4.903-7.372,7.333
	c-1.07,1.052-2.017,2.294-3.578,2.715c-2.144,0.239-3.118-1.222-3.922-2.808c-4.563-8.998-8.866-18.126-13.159-27.252
	c-3.187-6.774-6.807-13.334-9.805-20.199C477.251-4.747,476.69-5.981,477.71-7.335z"/>
<path fill-rule="evenodd" clip-rule="evenodd" fill="#FE2200" d="M468.843,207.89c-1.621-0.806-2.052-2.475-2.744-3.911
	c-7.766-16.12-15.474-32.268-23.247-48.384c-9.8-20.318-19.659-40.608-29.469-60.923c-8.488-17.578-16.938-35.176-25.422-52.755
	c-0.607-1.258-1.059-2.634-2.2-3.571c11.807-8.425,24.25-15.789,37.189-22.329c1.95,0.438,3.131,1.699,3.999,3.457
	c6.885,13.946,13.403,28.069,20.311,42.004c0.592,1.195,0.921,2.422,0.561,3.762c-0.29,0.994-1.042,1.607-1.78,2.257
	c-2.594,2.283-3.858,5.237-3.88,8.627c-0.105,15.707-0.178,31.415,0.026,47.12c0.087,6.758,4.524,10.987,11.296,11.411
	c1.716,0.107,3.478-0.161,5.128,0.553c1.951,1.691,2.591,4.14,3.682,6.343c3.69,7.454,7.26,14.967,10.917,22.437
	c4.227,8.635,8.121,17.432,12.579,25.954c0.552,1.057,1.052,2.136,1.127,3.355c0,1.42-0.785,2.428-1.812,3.263
	c-4.245,3.452-8.673,6.676-12.736,10.356C471.415,207.778,470.265,208.469,468.843,207.89z"/>
<path fill-rule="evenodd" clip-rule="evenodd" fill="#FE4400" d="M447.235,64.724c-6.632-13.723-13.265-27.444-19.896-41.167
	c-1.27-2.627-2.558-5.243-4.389-7.542c17.553-9.426,35.769-17.298,54.76-23.351c0.921,2.066,1.789,4.157,2.773,6.192
	c7.116,14.71,14.247,29.414,21.409,44.102c0.595,1.22,0.877,2.747,2.449,3.263c0.939,1.472-0.059,2.462-0.931,3.396
	c-2.368,2.532-4.78,5.029-7.365,7.34c-2.235,1.999-3.739,2.003-5.97-0.029c-3.045-2.771-5.853-5.791-8.786-8.68
	c-0.695-0.685-1.36-1.404-2.13-2.003c-1.114-0.867-2.371-1.341-3.517-0.226c-1.148,1.12-0.743,2.412,0.156,3.506
	c1.515,1.845,3.308,3.429,4.974,5.132c1.817,1.859,3.718,3.637,5.466,5.564c0.837,0.922,1.471,1.987,1.019,3.24
	c-0.521,1.443-1.849,1.705-3.204,1.735c-6.5,0.148-13.002,0.004-19.502,0.077c-4.981,0.055-9.968-0.23-14.943,0.2
	C448.706,65.55,447.88,65.439,447.235,64.724z"/>
<path fill-rule="evenodd" clip-rule="evenodd" fill="#FEB63A" d="M840.172,269.776c-1.138-2.232,1.065-2.893,2.077-3.733
	c5.416-4.498,11.017-8.771,16.523-13.161c14.652-11.682,29.284-23.388,43.933-35.076c11.26-8.985,22.524-17.968,33.805-26.93
	c1.709-1.358,3.307-2.804,4.56-4.603c6.296,12.489,11.101,25.58,15.561,38.803c2.745,8.137,2.673,8.111-5.61,10.681
	c-6.908,2.144-13.781,4.408-20.671,6.619c-0.777,1.455-2.127,2.091-3.616,2.541c-18.567,5.604-37.057,11.466-55.61,17.115
	c-8.914,2.714-17.778,5.592-26.736,8.162C842.967,270.601,841.44,271.259,840.172,269.776z"/>
<path fill-rule="evenodd" clip-rule="evenodd" fill="#FE7B00" d="M578.001,98.353c-3.253-2.963-4.376-7.179-6.256-10.914
	c-3.555-7.069-6.721-14.332-10.166-21.458c-7.885-16.309-15.861-32.574-23.761-48.876c-5.439-11.224-10.818-22.477-16.205-33.727
	c-0.371-0.775-0.59-1.623-0.879-2.438c9.422-2.49,19.069-3.723,28.695-5.037c5.574-0.76,11.203-1.124,16.777-1.882
	c2.275-0.31,3.105,0.352,3.26,2.591c0.538,7.775,1.194,15.541,1.806,23.31c0.132,1.312,0.265,2.625,0.396,3.937
	c1.926,1.865,1.724,4.441,1.869,6.711c0.643,10.039,1.348,20.076,2.234,30.091c1.258,14.223,1.752,28.493,2.984,42.716
	c0.317,3.658,0.705,7.326,0.76,11.004C579.539,95.85,579.735,97.502,578.001,98.353z"/>
<path fill-rule="evenodd" clip-rule="evenodd" fill="#FEA917" d="M924.138,154.333c-3.896,5.03-9.344,8.289-14.164,12.244
	c-10.257,8.416-20.702,16.602-31.078,24.873c-1.43,1.141-2.905,2.223-4.36,3.333c-1.085-1.495-2.688-1.672-4.352-1.73
	c-2.713-0.095-5.429,0.043-8.14-0.148c-2.147-0.151-3.47-1.102-3.422-3.447c0.045-2.195,1.35-3.037,3.334-3.194
	c0.757-0.061,1.525-0.169,2.275-0.083c3.808,0.434,7.233-0.67,10.489-2.512c0.719-1.198,0.487-2.527,0.489-3.811
	c0.024-11.154,0.101-22.309-0.016-33.461c-0.029-2.904,0.621-4.809,3.167-6.742c8.077-6.135,15.797-12.741,23.655-19.166
	C910.24,131.213,917.892,142.313,924.138,154.333z"/>
<path fill-rule="evenodd" clip-rule="evenodd" fill="#112939" d="M840.172,269.776c11.884-3.589,23.78-7.141,35.649-10.774
	c17.559-5.373,35.099-10.806,52.649-16.205c0.611-0.188,1.253-0.282,1.879-0.42c0.509,2.159,1.02,4.319,1.529,6.479
	c-8.364,1.888-16.432,4.788-24.613,7.287c-31.303,9.562-62.571,19.241-93.853,28.877c-2.692,0.829-5.538,1.342-8.051,2.547
	c-7.383,3.54-14.646,3.828-21.978,0.025c18.448-5.719,36.896-11.438,55.342-17.167C839.228,270.27,839.691,269.994,840.172,269.776z
	"/>
<path fill-rule="evenodd" clip-rule="evenodd" fill="#464140" d="M531.169,499.116c-3.15-0.582-5.812-2.217-8.443-3.917
	c-7.255-6.322-11.444-14.835-16.245-22.896c-1.656-2.778-3.355-5.561-4.62-8.562c-0.545-1.296-1.198-2.588-1.134-4.026
	c0.081-1.817,1.433-2.574,2.858-1.46c1.248,0.975,2.435,1.746,4.059,1.635c2.566,0.783,4.414,2.694,6.519,4.193
	c18.037,12.834,37.905,21.301,59.718,25.184c3.305,0.588,6.618,1.132,9.922,1.744c19.017,2.256,37.702,0.503,56.106-4.618
	c4.058-1.13,8.123-2.249,11.98-3.975c8.806-3.12,17.135-7.27,25.09-12.129c12.639-7.72,23.909-17.139,33.7-28.25
	c11.549-13.102,20.618-27.766,26.974-44.059c0.938-2.406,2.255-4.687,2.617-7.309c4.153-12.597,6.616-25.484,7.311-38.753
	c0.488-9.327,0.129-18.577-1.036-27.821c-0.122-0.971-0.204-1.938-0.625-2.834c-2.07-11.41-4.956-22.589-9.421-33.334
	c-6.753-16.252-15.933-30.938-28.002-43.786c-1.103-1.175-2.421-2.292-1.704-4.217c1.542-1.143,2.677-0.103,3.638,0.856
	c12.229,12.217,24.177,24.672,32.529,40.05c2.342,6.197,5.636,11.959,8.077,18.12c5.492,13.86,9.312,28.182,10.688,42.972
	c2.415,25.938-1.514,50.969-12.083,74.92c-8.822,19.991-21.455,37.24-37.723,51.624c-22.212,19.643-48.086,31.973-77.533,36.47
	c-10.884,1.662-21.896,1.977-32.783,1.149c-18.769-1.425-36.849-6.078-53.954-14.181c-3.716-1.761-7.29-3.836-11.195-5.178
	c-6.125-3.228-11.708-7.288-17.526-11.669c3.2,7.081,7.308,13.238,11.299,19.464C531.118,495.916,532.591,497.232,531.169,499.116z"
	/>
<path fill-rule="evenodd" clip-rule="evenodd" fill="#939599" d="M486.875,470.5c-17.319-15.002-30.444-33.167-40.349-53.726
	c-8.592-17.834-13.873-36.688-15.558-56.352c-3.877-45.259,7.811-86.182,36.082-121.893c25.754-32.533,59.348-52.729,99.931-61.22
	c14.938-3.125,30.139-3.518,45.283-2.597c18.412,1.12,36.184,5.547,53.247,12.602c11.492,4.752,22.232,10.899,32.407,18.042
	c-1.145,2.238-2.732,0.988-4.056,0.381c-5.128-2.353-10.099-5.025-15.277-7.288c-14.912-6.516-30.433-10.698-46.572-12.757
	c-9.937-1.268-19.925-1.686-29.866-1.085c-19.614,1.184-38.598,5.425-56.722,13.223c-13.733,5.91-26.337,13.696-38.211,22.711
	c-11.656,8.85-21.513,19.463-30.351,31.079c-16.82,22.107-27.129,47.026-32.028,74.254c-2.16,12.003-2.745,24.166-2.005,36.302
	c1.505,24.666,7.795,48.101,19.483,69.954c6.361,11.896,14.009,22.935,22.973,33.043C486.599,466.656,488.406,468.114,486.875,470.5
	z"/>
<path fill-rule="evenodd" clip-rule="evenodd" fill="#8E8E90" d="M486.875,470.5c-1.696-4.763-5.762-7.794-8.746-11.571
	c-8.796-11.134-16.198-23.086-22.021-35.963c-5.96-13.181-10.266-26.958-12.532-41.275c-2.222-14.046-2.943-28.152-1.777-42.396
	c1.22-14.914,4.367-29.369,9.391-43.38c6.336-17.667,15.219-34.001,27.154-48.581c4.595-5.613,9.068-11.362,14.394-16.305
	c11.307-10.495,23.604-19.618,37.122-27.172c16.479-9.208,34.017-15.145,52.531-18.437c13.941-2.479,27.932-2.792,42.06-1.862
	c13.412,0.881,26.394,3.593,39.148,7.546c10.699,3.316,20.8,8.116,30.75,13.23c1.083,0.557,2.095,1.699,3.569,1.021
	c6.836,4.536,13.241,9.593,18.846,15.615c-0.927,2.139-2.44,1.058-3.689,0.554c-3.212-1.295-6.183-3.098-9.297-4.609
	c-17.394-8.435-35.666-13.718-54.918-15.563c-2.694-0.257-5.415-2.021-8.077,0.116c-4.558,0.44-8.68-1.602-13.033-2.351
	c-9.632-1.659-19.328-3.069-29.071-2.792c-27.973,0.798-54.157,7.902-77.844,23.25c-23.962,15.527-42.505,35.857-54.661,61.786
	c-7.052,15.044-11.391,30.861-13.122,47.431c-2.195,21.023,0.223,41.49,6.661,61.549c0.3,0.934,0.563,1.869,0.618,2.853
	c-1.429,4.238,0.575,8.068,1.567,11.966c6.679,26.232,18.621,49.735,36.668,70.025c1.152,1.297,2.211,2.672,3.215,4.073
	c0.938,1.31,0.777,1.66-0.57,2.894C495.96,478.849,491.229,474.906,486.875,470.5z"/>
<path fill-rule="evenodd" clip-rule="evenodd" fill="#6D99A0" d="M571.619,526.593c15.583,2.196,31.202,3.078,46.896,1.335
	c0.758-0.085,1.521-0.223,2.073,0.512c1.394,1.757,1.842,3.751,2.088,5.993c1.476,13.468,2.825,26.949,4.235,40.422
	c1.433,13.688,2.795,27.387,4.216,41.078c1.185,11.426,2.359,22.854,3.598,34.276c0.911,8.403,1.7,16.822,2.66,25.223
	c0.152,1.326,0.059,2.629-1.236,3.471c0.133,2.878,0.415,5.734,1.183,8.525c0.196,7.059,1.226,14.038,2.033,21.034
	c0.302,2.614-0.152,3.746-3.192,4.005c-17.431,1.486-34.855,2.051-52.348,1.204c-20.845-1.01-41.446-3.678-61.838-8.05
	c-0.843-0.181-1.662-0.471-2.491-0.71c-2.471-1.53-2.084-3.689-1.447-6.018c3.772-13.765,7.616-27.51,11.368-41.279
	c0.967-3.55,0.705-3.891-3.018-3.962c-1.947-0.036-3.897,0.043-5.843-0.065c-1.295-0.072-2.66-0.063-3.222-1.624
	c0.771-2.243,2.748-1.833,4.385-1.845c13.766-0.103,27.534-0.034,41.3-0.053c3.144-0.005,6.291,0.103,9.43-0.057
	c7.566-0.384,13.122-5.773,13.221-13.366c0.224-16.908,0.134-33.821,0.031-50.731c-0.02-3.356-0.706-4.054-4.164-4.599
	c-2.005-0.317-3.553-1.112-4.144-3.109c-2.126-7.185-6.744-11.416-14.288-12.273c-0.199-0.023-0.375-0.207-0.558-0.32
	c-1.227-1.069-1.27-2.442-0.898-3.864c2.993-11.488,6.151-22.932,9.449-34.335C571.186,527.107,571.435,526.858,571.619,526.593z
	 M376.991,635.789c-2.041,2.545-1.3,3.596,0.927,5.205c12.841,9.284,26.072,17.952,39.956,25.596
	c12.436,6.847,25.063,13.309,38.36,18.363c1.189-0.47,1.426-1.585,1.676-2.622c3.666-15.215,9.826-29.826,11.027-45.632
	c-0.228-14.414-0.055-28.831-0.096-43.248c-0.018-6.179-0.114-12.359,0.054-18.537c0.122-4.474,2.023-6.691,6.31-7.908
	c2.446-0.692,4.937-0.545,7.423-0.647c3.986-0.165,8.014,0.517,11.957-0.562c1.402-1.15,2.099-2.705,2.559-4.396
	c1.669-6.152,3.392-12.289,5.089-18.434c2.849-10.309,5.786-20.594,8.532-30.93c0.511-1.926,1.44-3.982-0.412-5.786
	c-7.227-4.371-14.673-8.418-21.322-13.663c-2.188-1.727-3.254-1.667-4.997,0.668c-20.237,27.121-40.581,54.163-60.933,81.199
	c-11.02,14.64-22.109,29.228-33.167,43.839C385.645,624.146,381.525,630.134,376.991,635.789z M498.366,566.314
	c3.355,0.147,6.715,0.069,10.072,0.069c16.249-0.002,32.498,0.046,48.746-0.045c1.844-0.012,4.005,0.564,5.285-1.562
	c2.872-10.644,5.769-21.28,8.592-31.938c0.537-2.024,1.796-4.041,0.558-6.245c-9.976-1.423-19.667-4.03-29.276-6.99
	c-11.095-3.416-21.558-8.348-31.991-13.353c-0.314,1.695-0.509,3.422-0.962,5.077c-4.872,17.823-9.785,35.635-14.686,53.449
	C495.477,566.351,496.981,566.254,498.366,566.314z"/>
<path fill-rule="evenodd" clip-rule="evenodd" fill="#FEA916" d="M822.473,234.496c-1.32,3.839-5.089,5.175-7.865,7.441
	c-11.64,9.501-23.452,18.794-35.218,28.141c-0.841,0.667-1.821,1.158-2.737,1.731c-5.379-12.567-12.035-24.444-19.439-35.915
	c16.049-12.725,32.094-25.452,48.152-38.164c0.975-0.771,1.521-1.804,2.106-2.835c0.914-1.469,2.267-1.562,3.699-1.052
	c1.657,0.589,2.185,1.971,2.242,3.607c0.23,6.61,0.059,13.223,0.105,19.834c0.027,3.793-0.062,7.588,0.036,11.38
	c0.089,3.515,0.729,4.09,4.189,4.39C819.403,233.2,821.305,232.689,822.473,234.496z"/>
<path fill-rule="evenodd" clip-rule="evenodd" fill="#132C3D" d="M578.001,98.353c0.509-5.375-0.573-10.646-1.015-15.961
	c-0.292-3.511-0.576-7.065-0.67-10.542c-0.331-12.128-1.736-24.164-2.475-36.252c-0.646-10.584-1.443-21.158-2.173-31.736
	c0.109,0.001,0.217,0.005,0.326,0.006c7.363,0.077,7.085,0.091,7.488,7.695c0.561,10.581,1.611,21.136,2.411,31.704
	c0.514,6.797,0.924,13.602,1.438,20.4c0.799,10.569,1.655,21.133,2.471,31.701c0.492,6.364,0.972,12.73,1.426,19.098
	c0.753,10.572,1.262,21.162,2.454,31.703c0.437,3.867,0.52,7.773,0.816,11.659c0.185,2.426-0.834,3.529-3.301,3.775
	c-15.271,1.521-30.208,4.66-44.688,9.781c-21.046,7.443-40.35,18.033-57.632,32.231c-3.853,3.165-7.741,6.286-11.174,9.917
	c-1.109,1.172-2.499,1.893-4.01,1.946c-3.282,0.119-6.407,1.084-9.63,1.484c2.926-3.024,5.853-6.049,8.779-9.073
	c5.886-4.754,11.772-9.507,17.659-14.261c0.049-1.488,1.054-2.274,2.158-3.03c13.449-9.205,27.712-16.81,43.219-21.958
	c0.95-0.315,1.659-1.014,2.588-1.324c14.038-4.976,28.533-7.885,43.287-9.641c1.004-0.12,1.925,0.149,2.838,0.521
	c2.304,0.936,2.758-0.038,2.144-2.096c-0.911-7.524-0.902-15.115-1.787-22.661c-0.43-3.651-0.663-7.451-0.781-11.201
	c-0.152-4.804-0.831-9.589-1.2-14.39c-0.165-2.14-0.154-4.295-0.172-6.445C578.786,100.308,578.732,99.25,578.001,98.353z"/>
<path fill-rule="evenodd" clip-rule="evenodd" fill="#201817" d="M741.627,280.811c-5.086-7.672-9.996-15.482-16.321-22.234
	c-5.979-6.379-11.364-13.351-18.396-18.696c-3.255-0.203-4.916-2.158-5.655-5.136c0.721-2.2,2.4-2.108,4.214-1.802
	c9.189,1.552,17.986,4.473,26.704,7.651c1.821,0.663,3.1,2.315,4.882,3.119c15.209,20.552,25.19,43.425,29.866,68.524
	c5.273,28.296,3.71,56.262-5.12,83.72c-2.517,7.827-5.68,15.417-9.174,22.863c-2.076-0.56-1.467-2.08-1.078-3.354
	c1.012-3.315,2.133-6.598,3.257-9.877c5.903-17.211,8.295-34.977,7.614-53.074c-0.762-20.258-5.062-39.761-13.875-58.18
	C746.355,289.759,744.014,285.278,741.627,280.811z"/>
<path fill-rule="evenodd" clip-rule="evenodd" fill="#12293A" d="M293.418,491.414c40.629-19.598,81.259-39.194,121.889-58.791
	c4.981-2.402,9.935-4.863,14.958-7.173c1.689-0.775,1.916-1.614,1.146-3.241c-7.932-16.779-13.139-34.389-15.822-52.743
	c-0.91-6.222-1.625-12.469-1.76-18.769c-0.03-1.396,0.153-2.833-0.502-4.161c-0.002-3.211-0.003-6.423-0.005-9.634
	c0.705-2.372-0.129-4.843,0.469-7.221c1.025-14.865,3.439-29.473,8.05-43.678c3.317,2.965,4.504,6.078,3.079,10.846
	c-3.853,12.894-5.592,26.183-6.614,39.638c-0.687,9.039-0.438,18.002,0.313,26.914c1.59,18.874,5.737,37.247,12.889,54.86
	c1.223,3.013,2.479,6.018,3.852,8.964c0.944,2.025,0.793,3.456-1.4,4.508c-10.557,5.064-21.085,10.189-31.631,15.277
	c-7.615,3.673-15.258,7.288-22.862,10.986c-17.748,8.629-35.476,17.301-53.221,25.935c-3.51,1.708-7.358,2.896-10.533,5.077
	c-6.023,4.14-12.618,3.794-19.311,3.528C295.284,492.492,294.276,492.153,293.418,491.414z"/>
<path fill-rule="evenodd" clip-rule="evenodd" fill="#2A2423" d="M741.627,280.811c5.445,7.395,8.998,15.778,12.3,24.238
	c5.146,13.188,8.059,26.875,9.346,41.018c2.196,24.138-1.832,47.237-10.304,69.74c-0.366,0.975-1.21,1.9-0.341,3.016
	c-6.085,12.789-13.928,24.449-23.04,35.238c-12.119,14.347-26.319,26.304-42.442,35.938c-4.452,2.659-8.881,5.404-13.82,7.142
	c-4.32,1.024-8.258,3.098-12.425,4.552c-12.648,4.414-25.543,7.023-39.021,7.438c-18.235,0.561-36.069-1.169-53.444-6.834
	c-10.427-3.398-20.427-7.799-29.898-13.345c-1.265-0.741-2.688-1.627-2.122-3.567c6.956,2.752,13.349,6.704,20.372,9.349
	c13.471,5.072,27.265,8.415,41.656,9.658c21.392,1.849,42.171-0.59,62.434-7.604c17.631-6.102,33.425-15.408,47.655-27.429
	c15.973-13.49,28.489-29.714,37.609-48.462c7.357-15.122,11.976-31.114,13.815-47.893c3.492-31.874-2.38-61.875-17.688-90.045
	C741.919,282.315,741.834,281.53,741.627,280.811z"/>
<path fill-rule="evenodd" clip-rule="evenodd" fill="#201817" d="M536.415,485.383c3.412,3.302,7.781,5.126,11.904,7.15
	c16.396,8.05,33.743,13.429,51.941,14.793c19.74,1.479,39.393,0.275,58.509-5.833c4.812-1.537,9.331-4.166,14.555-4.354
	c-17.96,8.913-36.986,14.234-56.892,16.129c-28.944,2.753-56.86-1.603-83.597-13.153c-0.589-0.254-1.112-0.662-1.667-0.999
	c-3.249-5.339-6.56-10.641-9.721-16.029c-1.639-2.797-3.027-5.74-4.492-8.637c-0.324-0.64-0.98-1.441-0.296-2.071
	c0.783-0.72,1.35,0.245,1.892,0.655C524.327,477.412,530.333,481.452,536.415,485.383z"/>
<path fill-rule="evenodd" clip-rule="evenodd" fill="#0C202E" d="M780.837,634.582c0.239,0.62,0.479,1.241,0.718,1.86
	c-1.05,0.547-2.142,1.029-3.142,1.657c-3.587,2.251-4.247,2.097-6.382-1.396c-7.916-12.956-15.877-25.885-23.781-38.85
	c-7.904-12.964-15.643-26.03-23.668-38.917c-9.863-15.838-19.713-31.673-28.627-48.077c-1.307-2.404-0.991-3.49,1.236-4.911
	c15.915-10.152,30.182-22.226,42.291-36.77c0.57-0.685,0.966-1.827,2.269-1.411c-10.688,13.429-23.172,24.95-37.103,34.938
	c-1.584,1.134-3.146,2.298-4.718,3.449c-2.893,0.922-1.179,2.394-0.372,3.635c10.03,15.459,20.093,30.896,30.136,46.347
	c16.423,25.266,32.835,50.537,49.259,75.803C779.542,632.845,780.206,633.702,780.837,634.582z"/>
<path fill-rule="evenodd" clip-rule="evenodd" fill="#132C3D" d="M636.148,678.902c-2.124-20.275-4.27-40.548-6.369-60.826
	c-1.844-17.797-3.63-35.6-5.451-53.399c-1.237-12.08-2.493-24.158-3.74-36.237c4.465,1.821,6.896,4.668,7.191,9.947
	c0.531,9.49,1.949,18.93,2.922,28.396c0.981,9.577,1.835,19.168,2.814,28.746c0.901,8.825,1.908,17.639,2.852,26.459
	c0.794,7.422,1.571,14.844,2.339,22.267c0.956,9.255,1.834,18.518,2.893,27.759c0.212,1.841,0.437,3.67,0.338,5.501
	c-0.079,1.469,0.764,3.425-1.698,3.946C638.012,681.934,636.772,680.938,636.148,678.902z"/>
<path fill-rule="evenodd" clip-rule="evenodd" fill="#807E7F" d="M501.209,482.155c0.424-2.993-2.274-4.216-3.738-5.882
	c-19.534-22.243-32.29-47.807-38.26-76.787c-0.424-2.058-0.293-4.098-0.271-6.153c2.102,0.128,2.45,1.948,3.04,3.36
	c4.547,10.889,9.894,21.339,16.505,31.139c1.853,2.746,4.54,4.985,5.343,8.407c-0.58,2.38,1.076,4.08,1.854,6.046
	c3.8,9.609,8.974,18.492,14.493,27.181c3.543,5.579,7.72,10.698,11.813,15.876c1.06,1.34,2.357,2.689,0.963,4.572
	C508.88,487.569,504.805,485.224,501.209,482.155z"/>
<path fill-rule="evenodd" clip-rule="evenodd" fill="#747171" d="M640.701,200.506c1.302-2.057,3.391-1.225,5.034-1.066
	c10.662,1.027,21.208,2.769,31.532,5.709c12.546,3.574,24.456,8.673,35.949,14.805c1.062,0.566,2.073,1.725,3.548,1.017
	c4.122,2.687,6.942,6.638,10.035,10.324c-1.303,1.445-2.79,0.932-4.153,0.239c-13.206-6.717-27.214-11.069-41.611-14.32
	c-1.31-0.296-2.527-0.493-3.806-0.069c-2.071,0.12-3.696-1.012-5.373-1.964c-8.269-4.697-16.935-8.47-25.992-11.382
	C643.914,203.173,641.463,203.095,640.701,200.506z"/>
<path fill-rule="evenodd" clip-rule="evenodd" fill="#666262" d="M512.952,489.915c-1.194-3.878-4.348-6.4-6.687-9.457
	c-9.542-12.47-17.367-25.89-23.091-40.516c-0.413-1.053-1.166-2.173-0.315-3.387c2.341-0.226,3.43,1.584,4.663,3.007
	c5.299,6.115,11.09,11.725,17.11,17.119c1.142,1.024,3.153,1.746,2.326,3.998c-0.388,1.402-1.019,0.967-1.796,0.296
	c-0.999-0.863-1.699-2.173-3.522-2.574c0.619,3.567,2.235,6.347,3.771,9.134c4.8,8.706,9.903,17.222,16.021,25.091
	c0.579,0.744,0.869,1.711,1.293,2.573C519.182,493.968,516.048,491.979,512.952,489.915z"/>
<path fill-rule="evenodd" clip-rule="evenodd" fill="#585353" d="M677.115,216.362c1.355-1.068,2.865-0.758,4.354-0.451
	c14.158,2.927,27.836,7.274,40.778,13.801c1.443,0.727,2.838,1.619,4.552,1.583c2.437,1.708,3.962,4.218,5.732,6.511
	c-1.537,1.66-3.255,0.864-4.791,0.168c-10.432-4.725-21.4-7.748-32.466-10.5c-0.995-0.248-1.919-0.244-2.879-0.01
	c-1.387,0.143-2.538-0.489-3.569-1.264c-3.183-2.392-6.394-4.733-9.807-6.797C677.941,218.752,676.787,217.976,677.115,216.362z"/>
<path fill-rule="evenodd" clip-rule="evenodd" fill="#3F3938" d="M692.125,226.748c1.251-0.973,2.678-0.781,4.043-0.474
	c10.772,2.417,21.337,5.498,31.434,10.036c1.581,0.711,3.163,1.401,4.93,1.497c1.508,1.969,3.017,3.938,4.523,5.906
	c-3.73-0.324-6.902-2.345-10.361-3.494c-7.168-2.38-14.391-4.48-21.805-5.921c-1.183-0.229-2.362-0.733-2.969,0.873
	c-0.092,0.056-0.186,0.164-0.272,0.159C698.754,235.127,692.658,229.625,692.125,226.748z"/>
<path fill-rule="evenodd" clip-rule="evenodd" fill="#1F191A" d="M272.4,391.615c1.134,3.257,2.064,6.605,3.465,9.743
	c1.273,2.852,0.696,4.891-1.956,7.013c-2.073-5.567-4.038-10.91-6.05-16.234c-3.432-9.082-6.893-18.152-10.342-27.227
	c-3.954-10.854-7.793-21.752-11.915-32.542c-1.945-5.091-5.653-9.22-8.521-13.809c-2.498-3.995-2.247-6.834,1.074-10.131
	c2.324-2.309,5.143-3.633,8.353-3.994c2.986-0.336,5.682,0.351,7.212,3.265c5.276,10.051,13.502,17.227,22.38,24.008
	c15.174,11.59,30.02,23.609,44.925,35.547c1.892,1.514,3.069,1.479,4.952-0.024c18.565-14.83,37.173-29.608,55.867-44.274
	c4.438-3.482,6.746-8.43,9.757-12.882c4.894-7.233,13.013-7.554,18.338-0.425c2.002,2.68,2.448,5.568,0.245,8.395
	c-7.78,9.981-11.894,21.708-15.976,33.451c-0.246,0.706-0.375,1.45-0.56,2.176c-4.328,11.442-8.668,22.881-12.98,34.331
	c-2.468,6.554-4.889,13.126-7.42,19.927c-2.758-2.02-3.241-3.943-2.021-6.871c2.456-5.895,4.463-11.977,6.656-17.981
	c-1.066-1.47-0.409-2.891,0.124-4.315c5.089-13.595,10.098-27.22,15.175-40.819c0.753-2.018,1.037-3.399-1.661-4.07
	c-2.327-0.579-4.311-2.041-6.052-3.697c-1.299-1.237-2.326-1.054-3.66,0.014c-16.647,13.33-33.39,26.542-50.113,39.777
	c-1.868,1.478-1.852,2.599,0.087,4.003c3.33,2.412,6.435,5.121,9.706,7.618c1.376,1.05,3.258,1.941,3.203,4.183
	c-1.369,4.022-1.871,4.19-4.991,1.749c-1.082-0.846-2.218-1.623-3.33-2.433c-1.452,0.401-2.465-0.399-3.529-1.204
	c-2.419-1.832-4.771-3.749-7.165-5.612c-1.64-1.277-2.802-1.414-4.496,0.011c-2.814,2.37-5.694,4.675-8.63,6.903
	c-1.064,0.808-2.082,1.598-3.531,1.19c-1.892,0.442-2.65,3.25-5.133,2.461c-2.653-1.475-2.83-3.523-0.25-5.719
	c3.048-2.595,6.194-5.082,9.39-7.497c4.87-3.681,4.817-3.614,0.018-7.423c-15.515-12.313-31.123-24.51-46.526-36.964
	c-3.169-2.562-3.15-2.585-6.422,0.048c-1.452,1.169-3.081,2.091-4.829,2.639c-2.117,0.663-2.344,1.787-1.609,3.683
	c3.643,9.391,6.991,18.893,10.562,28.312c2.726,7.19,5.391,14.403,7.991,21.639C272.702,388.919,273.125,390.223,272.4,391.615z"/>
<path fill-rule="evenodd" clip-rule="evenodd" fill="#8C3280" d="M413.792,329.681c0.025,2.419,0.297,4.854-0.469,7.221
	C413.274,334.482,412.762,332.031,413.792,329.681z"/>
<path fill-rule="evenodd" clip-rule="evenodd" fill="#A23682" d="M272.4,391.615c-5.682-15.11-11.363-30.22-17.046-45.329
	c-1.183-3.146-2.27-6.331-3.584-9.419c-0.952-2.238-0.902-3.503,1.943-3.97c2.96-0.485,5.585-2.038,7.309-4.508
	c1.325-1.898,2.246-1.591,3.772-0.365c8.538,6.87,17.136,13.667,25.718,20.482c9.007,7.152,17.986,14.339,27.057,21.411
	c1.976,1.541,2.2,2.432,0.02,4.031c-4.373,3.206-8.453,6.812-12.838,9.997c-2.126,1.544-2.601,2.898-0.862,4.892
	c-0.686,0.842-1.603,1.255-2.651,1.422c-1.157,0.272-2.071-0.335-3.01-0.836c-4.467-2.38-7.089-2.075-10.706,1.293
	c-0.78,0.726-1.437,1.626-2.684,1.492C280.759,390.586,276.504,392.68,272.4,391.615z"/>
<path fill-rule="evenodd" clip-rule="evenodd" fill="#A23682" d="M344.692,385.77c-5.217-4.062-10.374-8.205-15.68-12.146
	c-2.098-1.559-1.304-2.344,0.237-3.557c9.293-7.311,18.537-14.685,27.797-22.039c8.325-6.612,16.678-13.189,24.953-19.864
	c1.611-1.299,2.531-1.763,4.012,0.322c1.716,2.417,4.336,4.036,7.335,4.456c2.544,0.356,2.859,1.219,1.971,3.555
	c-5.889,15.496-11.64,31.046-17.435,46.578c-5.3,2.51-11.125,1.673-16.676,2.593c-1.277,0.211-2.607,0.049-3.34,1.429
	c-2.612,1.237-5.213,1.305-7.801-0.075C348.416,386.002,346.453,386.321,344.692,385.77z"/>
<path fill-rule="evenodd" clip-rule="evenodd" fill="#1F191A" d="M331.884,387.638c4.748,7.028,4.549,10.529-1.179,18.009
	c1.834,0.683,3.644,1.255,5.37,2.017c6.172,2.724,10.174,9.144,10.102,15.824c-0.021,1.952-0.707,2.652-2.682,2.644
	c-13.243-0.062-26.486-0.07-39.729,0.001c-2.336,0.013-2.654-1.102-2.567-3.036c0.342-7.696,4.605-13.565,11.929-16.227
	c1.115-0.406,2.255-0.737,3.741-1.219c-5.437-5.351-6.236-11.117-2.029-17.354c-0.014-0.324-0.074-0.666,0.062-0.962
	c1.606-3.513,4.889-4.067,8.133-4.229c3.249-0.162,6.542,0.141,8.633,3.276C331.908,386.746,331.915,387.2,331.884,387.638z"/>
<path fill-rule="evenodd" clip-rule="evenodd" fill="#1F191A" d="M350.067,387.022c2.609-0.853,5.208-0.739,7.801,0.075
	c5.872,4.755,6.556,7.955,2.757,14.437c-1.21,2.065,0.473,1.903,1.393,2.222c6.003,2.069,9.046,6.331,9.741,12.555
	c0.246,2.206-0.2,3.246-2.64,3.207c-5.967-0.097-11.938-0.082-17.905,0c-1.61,0.022-2.286-0.59-2.671-2.095
	c-0.994-3.885-3.032-7.199-6.117-9.771c-1.653-1.378-0.997-2.276,0.522-2.671c4.116-1.068,4.489-2.736,2.353-6.506
	C343.091,394.575,345.193,390.599,350.067,387.022z"/>
<path fill-rule="evenodd" clip-rule="evenodd" fill="#1F191A" d="M284.837,392.208c4.328-7.088,10.532-7.827,16.399-1.949
	c1.914,3.768,2.147,7.491-0.548,10.987c-1.133,1.471-0.576,2.061,0.878,2.489c0.517,0.153,1.03,0.337,1.526,0.551
	c3.465,1.498,3.493,1.625,0.742,4.356c-2.359,2.343-4.059,5.095-4.855,8.309c-0.463,1.869-1.299,2.626-3.322,2.579
	c-5.74-0.136-11.486-0.122-17.227-0.016c-2.368,0.044-3.005-0.933-2.802-3.14c0.562-6.097,3.471-10.441,9.336-12.416
	c2.322-0.783,2.624-1.424,1.036-3.392C284.03,398.125,284.036,395.163,284.837,392.208z"/>
<path fill-rule="evenodd" clip-rule="evenodd" fill="#A23682" d="M331.884,387.638c-6.677-4.512-10.612-4.36-17.046,0.659
	c-0.974,0-1.928,0.064-2.792,0.602c-1.042,0.65-2.358,1.194-3.303,0.421c-0.938-0.767,0.583-1.894,0.278-2.946
	c4.253-3.453,8.528-6.879,12.746-10.376c1.179-0.978,2.094-1.12,3.351-0.063c3.7,3.111,7.496,6.108,11.255,9.15
	C336.257,388.365,333.785,387.5,331.884,387.638z"/>
<path fill-rule="evenodd" clip-rule="evenodd" fill="#2E1C27" d="M342.243,400.908c-0.751,1.391-2.236,1.895-3.525,2.547
	c-0.793,0.401-1.658-0.053-1.44-1.049c0.262-1.197,0.373-2.75,2.11-2.864C340.465,399.471,341.565,399.612,342.243,400.908z"/>
<path fill-rule="evenodd" clip-rule="evenodd" fill="#2A1B24" d="M308.692,403.508c-1.158-0.697-3.006-1.062-3.359-2.509
	c-0.312-1.284,1.291-1.409,2.34-1.469c2.006-0.114,2.023,1.602,2.384,2.853C310.297,403.22,309.523,403.408,308.692,403.508z"/>
<path fill-rule="evenodd" clip-rule="evenodd" fill="#0D0D0D" d="M494.704,564.776c22.588,0,45.176,0,67.765,0
	c9.098,0.512,13.781,4.153,16.225,12.989c0.503,1.817,1.342,2.109,2.94,2.138c4.929,0.081,5.6,0.812,5.6,5.666
	c0.002,16.937,0.012,33.872,0.001,50.808c-0.006,8.825-6.325,15.118-15.202,15.166c-17.044,0.092-34.088,0.17-51.132,0.274
	c-1.182,0.008-2.364,0.184-3.546,0.281c-9.435,0-18.872-0.132-28.304,0.037c-11.071,0.197-18.962-4.879-21.581-15.159
	c-0.041-21.155-0.14-42.311-0.082-63.466c0.014-5.012,4.594-8.526,10.72-8.62C483.641,564.806,489.172,564.811,494.704,564.776z"/>
<path fill-rule="evenodd" clip-rule="evenodd" d="M774.907,444.357c37.225-0.002,74.451,0.015,111.676-0.054
	c2.306-0.003,3.2,0.426,3.177,2.988c-0.127,13.891-0.121,27.784,0.001,41.674c0.022,2.507-0.778,3.094-3.145,3.041
	c-5.303-0.119-5.306,0.004-5.305-5.412c0.002-10.202-0.065-20.404,0.057-30.604c0.029-2.487-0.601-3.326-3.238-3.317
	c-30.604,0.097-61.21,0.101-91.814,0.019c-2.71-0.007-3.556,0.86-2.935,3.379c-0.054,3.776-0.234,7.556-0.113,11.324
	c0.075,2.297-0.444,3.301-3.008,3.205c-6.646-0.25-5.403,0.647-5.454-5.518C774.75,458.176,774.865,451.266,774.907,444.357z"/>
<path fill-rule="evenodd" clip-rule="evenodd" d="M798.409,505.899c0,10.084-0.062,20.169,0.047,30.252
	c0.024,2.285-0.702,2.957-2.953,2.941c-12.687-0.087-25.374-0.078-38.06,0.002c-2.071,0.013-2.814-0.53-2.807-2.717
	c0.079-20.169,0.08-40.337,0.013-60.505c-0.008-2.101,0.545-2.797,2.712-2.78c12.687,0.093,25.373,0.118,38.06-0.009
	c2.565-0.025,3.049,0.906,3.023,3.214c-0.108,9.866-0.047,19.734-0.047,29.602C798.402,505.899,798.405,505.899,798.409,505.899z"/>
<path fill-rule="evenodd" clip-rule="evenodd" d="M847.867,506.903c5.948,0.049,11.896,0.188,17.842,0.1
	c2.259-0.033,3.128,0.662,2.94,2.953c-0.168,2.041-0.111,4.111-0.015,6.163c0.067,1.426-0.57,1.952-1.87,1.961
	c-7.597-0.037-15.195-0.025-22.79-0.144c-1.891-0.03-2.052,0.901-2.085,2.4c-0.034,1.623,0.423,2.334,2.186,2.312
	c6.296-0.076,12.593-0.037,18.889-0.013c1.342,0.005,2.911-0.423,2.979,1.878c0.075,2.54-1.661,2.059-3.1,2.06
	c-19.541,0.02-39.081,0.027-58.621,0.004c-1.374-0.002-3.184,0.633-3.199-1.954c-0.017-2.578,1.766-1.979,3.16-1.991
	c4.994-0.042,9.988-0.046,14.981,0.002c1.598,0.016,2.62-0.129,2.633-2.22c0.012-2.128-0.854-2.512-2.711-2.479
	c-5.21,0.094-10.423-0.031-15.633,0.067c-1.849,0.034-2.374-0.606-2.439-2.425c-0.312-8.518-0.365-8.493,8.11-8.517
	C822.039,507.027,834.954,506.958,847.867,506.903z"/>
<path fill-rule="evenodd" clip-rule="evenodd" d="M871.316,523.178c0.047-8.56,0.179-17.119,0.089-25.677
	c-0.025-2.41,0.633-3.17,3.098-3.122c8.017,0.151,16.041,0.17,24.059-0.007c2.66-0.058,3.48,0.61,3.448,3.366
	c-0.146,12.787-0.062,25.578-0.06,38.367c0.001,4.557,0.001,4.557-4.562,4.777c-7.376-0.037-14.76-0.269-22.127-0.026
	c-3.291,0.108-4-0.986-3.855-4.023C871.623,532.293,871.37,527.731,871.316,523.178z"/>
<path fill-rule="evenodd" clip-rule="evenodd" d="M822.473,234.496c-2.594-0.064-5.196-0.278-7.78-0.145
	c-2.2,0.114-2.693-0.72-2.675-2.797c0.095-10.836,0.041-21.674,0.039-32.511c-0.001-4.377-0.001-4.377-4.585-4.147
	c-14.104-0.037-28.21-0.074-42.314-0.11c-0.761-0.002-1.52,0.011-2.28-0.005c-0.841-0.019-1.752,0.172-1.767-1.217
	c-0.015-1.27,0.477-1.734,1.712-1.723c3.58,0.033,7.162-0.048,10.742,0.028c1.606,0.034,2.365-0.392,2.37-2.172
	c0.006-1.699-0.551-2.316-2.253-2.237c-2.383,0.11-4.775,0.079-7.161,0.012c-3.764-0.105-5.383-1.68-5.388-5.369
	c-0.03-18.015-0.032-36.029-0.008-54.044c0.005-3.871,1.64-5.454,5.58-5.512c3.469-0.051,6.938-0.011,10.656-0.011
	c-0.976-2.71-1.882-5.004-5.345-4.528c-0.749,0.103-2.353,0.678-2.258-0.845c0.082-1.324-0.049-3.388,2.03-3.533
	c2.808-0.195,5.641-0.111,8.459-0.035c2.224,0.06,2.05,2.165,2.232,3.412c0.279,1.9-1.532,0.713-2.363,1.046
	c-0.359,0.145-0.778,0.143-1.324,0.233c0.856,2.876,2.073,4.427,5.424,4.339c9.761-0.253,19.531-0.091,29.298-0.085
	c1.513,0.001,2.988,0.336,2.961-2.16c-0.025-2.288-1.175-2.315-2.861-2.376c-0.968-0.035-2.82,0.877-2.774-0.969
	c0.042-1.671,0.345-3.747,3.139-3.518c2.588,0.212,5.22,0.215,7.806-0.001c2.794-0.232,3.101,1.847,3.151,3.513
	c0.056,1.851-1.801,0.931-2.768,0.975c-1.665,0.074-2.944,0.039-2.864,2.363c0.06,1.732,0.613,2.208,2.276,2.2
	c10.418-0.057,20.837-0.117,31.253,0.034c2.719,0.039,3.007-2.007,3.974-3.539c0.377-0.599-0.122-0.95-0.779-0.986
	c-0.947-0.052-1.896-0.124-2.825-0.186c0.021-3.497,1.582-4.849,4.892-4.358c1.486,0.22,3.051,0.188,4.547,0.001
	c2.128-0.263,2.823,0.885,3.305,2.643c0.414,1.513-0.111,2.133-1.525,1.854c-3.402-0.674-4.91,1.26-5.99,4.356
	c1.185,0.054,2.301,0.162,3.417,0.148c13.933-0.17,12.835-0.341,12.815,12.956c-0.021,16.06,0.036,32.12,0.059,48.179
	c-0.863,2.775-2.84,3.877-5.642,3.828c-2.372-0.042-4.745,0.054-7.114-0.025c-1.48-0.049-2.155,0.391-2.121,1.999
	c0.031,1.512,0.256,2.455,2.104,2.399c3.339-0.101,6.689,0.106,10.021-0.07c2.4-0.127,3.132,0.768,2.565,2.985
	c-0.637,0.039-1.273,0.079-1.91,0.117c-1.718,1.458-3.805,1.377-5.86,1.381c-11.902,0.023-23.804-0.011-35.706,0.018
	c-5.336,0.013-5.778,0.451-5.799,5.699c-0.038,9.089,0.029,18.178-0.038,27.266c-0.014,2.056,0.074,4.208-2.325,5.226l-0.213-0.107
	L822.473,234.496z"/>
<path fill-rule="evenodd" clip-rule="evenodd" fill="#FEA916" d="M822.896,234.49c1.271-0.846,0.789-2.157,0.793-3.279
	c0.035-11.063,0.082-22.128-0.022-33.191c-0.023-2.359,0.34-3.336,3.086-3.302c15.29,0.188,30.581,0.146,45.872,0.182
	c-2.152,4.432-6.588,6.469-10.124,9.377c-11.455,9.422-23.128,18.577-34.704,27.851C826.334,233.3,824.812,234.285,822.896,234.49z"
	/>
<path fill-rule="evenodd" clip-rule="evenodd" fill="#0C0C0C" d="M447.235,64.724c2.476-0.928,5.037-1.135,7.667-1.123
	c10.5,0.047,21.001,0.019,31.484,0.019c0.473-1.286-0.563-1.656-1.093-2.197c-3.492-3.562-7.032-7.077-10.555-10.609
	c-1.841-1.846-2.44-3.889-0.636-6.052c1.549-1.858,4.091-1.687,6.264,0.432c3.727,3.633,7.428,7.296,11.026,11.055
	c1.26,1.317,2.076,1.467,3.34,0.035c3.069-3.477,6.811-6.319,9.609-10.063c4.443-4.435,8.633-9.122,13.488-13.146
	c2.098-1.739,4.08-2.58,6.295-0.464c1.826,1.745,1.475,4.017-0.992,6.5c-7.345,7.396-14.729,14.752-22.075,22.148
	c-0.566,0.57-1.472,0.966-1.399,2.35c3.538,0,7.075-0.001,10.613,0.001c7.601,0.005,15.202-0.046,22.801,0.036
	c7.419,0.081,12.312,5.097,12.415,12.571c0.054,3.906,0.086,7.812,0.128,11.719c1.287,2.014,1.389,4.288,1.393,6.568
	c0.015,9.414-0.167,18.832,0.051,28.239c0.195,8.438-6.509,15.22-14.84,14.921c-4.961-0.178-9.937-0.056-14.906-0.113
	c-17.982,0.199-35.964,0.085-53.947,0.067c-1.62-0.001-3.29,0.039-4.489-1.382c-2.165-0.045-4.332-0.048-6.494-0.143
	c-6.45-0.285-11.606-5.232-11.656-11.684c-0.128-16.364-0.079-32.73-0.016-49.095C440.729,70.54,443.427,67.249,447.235,64.724z"/>
<path fill-rule="evenodd" clip-rule="evenodd" fill="#FE5E00" d="M517.524,136.235c5.098-0.039,10.196-0.062,15.294-0.121
	c7.576-0.087,12.62-5.113,12.668-12.704c0.076-11.825,0.09-23.65,0.13-35.476c1.286,0.378,1.838,1.474,2.354,2.536
	c8.646,17.827,17.277,35.66,25.901,53.496c1.932,3.995,3.78,8.03,5.773,11.993c0.451,0.897,1.094,2.048,2.401,1.806
	c0.742-0.138,0.576-1.048,0.69-1.663c0.546,1.48,0.843,2.685-1.467,2.863c-15.797,1.216-31.143,4.608-46.125,9.714
	c-0.197,0.067-0.428,0.034-0.644,0.048c-2.37,0.676-3.601-0.662-4.479-2.567c-3.888-8.439-8.192-16.678-12.038-25.137
	C517.293,139.501,516.075,137.983,517.524,136.235z"/>
<path fill-rule="evenodd" clip-rule="evenodd" fill="#FE2D00" d="M517.524,136.235c3.879,8.171,7.766,16.336,11.633,24.513
	c0.828,1.751,1.586,3.536,2.375,5.306c0.592,1.333,1.369,2.458,2.968,2.673c-10.649,4.261-21.289,8.561-31.18,14.44
	c-5.674,3.373-11.217,6.967-16.818,10.461c-3.39-4.536-5.397-9.821-7.879-14.834c-5.85-11.809-11.496-23.72-17.191-35.605
	c-1.068-2.23-2.233-4.442-2.555-6.954C478.426,136.235,497.976,136.235,517.524,136.235z"/>
<path fill-rule="evenodd" clip-rule="evenodd" fill="#F2F2F2" d="M692.125,226.748c3.266,2.808,6.53,5.615,9.795,8.423
	c1.663,1.57,3.327,3.141,4.99,4.71c7.255,8.172,14.222,16.551,19.962,25.908c9.83,16.026,16.384,33.28,19.808,51.742
	c0.177,0.953,0.19,1.936,0.28,2.905c-0.67,7.902,1.062,15.699,0.946,23.599c-0.232,15.929-2.549,31.47-7.626,46.582
	c-0.208,0.621-0.317,1.26-0.429,1.896c-4.602,12.296-10.238,24.087-17.767,34.884c-15.604,22.376-35.531,39.655-60.476,50.977
	c-2.755,1.251-5.454,2.617-8.343,3.56c-19.21,7.535-39.161,10.621-59.728,9.947c-2.259-0.073-4.537-0.167-6.777-0.502
	c-1.249-0.187-2.355,0.013-3.439,0.574c-18.34-1.604-35.473-7.229-51.81-15.522c-8.716-4.426-16.738-9.925-24.555-15.75
	c-8.694-7.38-16.725-15.424-24.099-24.124c-4.05-6.21-8.597-12.082-12.262-18.558c-4.494-7.943-8.154-16.263-11.656-24.665
	c-1.321-4.859-2.768-9.689-3.938-14.584c-2.097-8.779-3.341-17.667-3.953-26.707c-1.139-16.82,0.951-33.269,5.489-49.345
	c4.466-15.82,11.338-30.708,21.062-44.038c25.121-34.436,58.506-55.619,100.891-62.073c19.903-3.031,39.579-1.782,59.042,3.254
	c1.043,0.271,2.111,0.445,3.168,0.665c12.788,3.792,24.919,9.095,36.414,15.856C682.119,219.824,687.122,223.287,692.125,226.748z"
	/>
<path fill-rule="evenodd" clip-rule="evenodd" fill="#B7B7B7" d="M653.644,480.737c8.738-4.046,17.486-8.026,25.589-13.34
	c27.457-18.008,46.905-42.383,58.59-73.019c0.191-0.504,0.426-0.991,0.64-1.487c0.664-0.848,1-2.357,2.612-1.295
	c-2.88,10.171-7.524,19.564-12.948,28.562c-17.276,28.662-41.399,49.411-72.367,62.158c-0.895,0.368-1.827,0.642-2.742,0.959
	C652.037,482.137,652.828,481.434,653.644,480.737z"/>
<path fill-rule="evenodd" clip-rule="evenodd" fill="#CACACA" d="M653.644,480.737c-0.208,0.847-0.417,1.691-0.627,2.538
	c-19.861,7.719-40.451,10.828-61.695,9.571c-2.663-0.156-5.421,0.161-7.999-0.895c0.043-1.896,1.323-1.97,2.726-1.839
	c22.706,2.125,44.709-0.888,66.016-9.017C652.563,480.906,653.116,480.854,653.644,480.737z"/>
<path fill-rule="evenodd" clip-rule="evenodd" fill="#CFCECE" d="M741.074,391.597c-1.07,0.029-1.797,0.752-2.612,1.295
	c2.791-9.442,5.485-18.902,6.803-28.699c1.622-12.049,2.152-24.106,0.553-36.195c-0.352-2.661-0.159-5.179,1.143-7.562
	c1.3,3.938,1.411,8.073,1.683,12.129c1.32,19.72-0.744,39.065-7.021,57.879C741.487,390.845,741.258,391.214,741.074,391.597z"/>
<path fill-rule="evenodd" clip-rule="evenodd" fill="#AD3983" d="M251.182,329.246c-1.018-0.085-1.976,0.011-2.443-0.909
	c-0.465-0.916,0.115-1.716,0.632-2.351c1.938-2.38,4.421-3.789,7.566-3.651c1.987,0.087,2.5,1.241,1.438,2.822
	C256.645,327.731,254.086,328.986,251.182,329.246z"/>
<path fill-rule="evenodd" clip-rule="evenodd" fill="#AA3882" d="M395.875,329.237c-3.061-0.234-5.331-1.539-7.076-3.754
	c-0.524-0.665-1.023-1.455-0.508-2.364c0.517-0.911,1.472-0.833,2.301-0.788c2.708,0.148,4.936,1.342,6.745,3.338
	c0.667,0.735,1.272,1.547,0.852,2.597C397.717,329.441,396.565,329.038,395.875,329.237z"/>
<path fill-rule="evenodd" clip-rule="evenodd" fill="#7B9C9D" d="M501.594,644.355c4.362-6.41,3.671-13.423,3.673-20.327
	c0.002-11.389,0.051-22.777-0.042-34.165c-0.019-2.189,0.498-3.012,2.86-3.003c22.993,0.09,45.987,0.095,68.981,0.029
	c2.28-0.007,2.931,0.673,2.917,2.938c-0.089,15.183-0.013,30.368-0.06,45.553c-0.019,6.104-2.988,9.158-8.888,9.169
	c-22.234,0.044-44.469,0.034-66.703,0.034C503.6,644.584,502.867,644.466,501.594,644.355z"/>
<path fill-rule="evenodd" clip-rule="evenodd" fill="#8AA29B" d="M528.043,572.076c11.721,0,23.441-0.023,35.162,0.011
	c4.18,0.012,7.005,2.067,7.946,5.423c0.352,1.253,0.205,1.867-1.215,1.81c-0.759-0.031-1.52,0.002-2.279,0.002
	c-21.38,0.015-42.76,0.023-64.14,0.048c-4.898,0.005-5.616,0.73-5.622,5.696c-0.017,15.084-0.02,30.17-0.008,45.255
	c0.001,1.743-0.107,3.455-0.551,5.155c-1.716,6.561-6.213,9.66-13.071,8.957c-5.724-0.586-9.617-5.062-9.799-11.473
	c-0.117-4.121-0.031-8.247-0.032-12.372c-0.003-14.434,0.002-28.866-0.014-43.3c-0.001-1.901,0.045-3.707,2.099-4.704
	c3.027-1.469,5.927,0.317,5.953,3.866c0.063,8.355,0.014,16.713,0.011,25.069c-0.005,9.768-0.001,19.534-0.018,29.302
	c-0.003,1.816,0.207,3.526,2.064,4.418c2.775,1.334,5.442-0.428,5.49-3.74c0.082-5.643,0.023-11.287,0.024-16.93
	c0.001-12.48-0.048-24.961,0.068-37.44c0.015-1.659-1.451-3.794-0.025-4.78c1.192-0.826,3.347-0.304,5.075-0.306
	c10.961-0.014,21.922-0.007,32.883-0.007C528.043,572.049,528.043,572.062,528.043,572.076z"/>
<path fill-rule="evenodd" clip-rule="evenodd" fill="#00B370" d="M760.845,503.829c0-6.938,0.091-13.879-0.049-20.814
	c-0.051-2.551,0.488-3.609,3.363-3.538c8.234,0.207,16.479,0.147,24.717,0.024c2.31-0.034,3.225,0.462,3.202,3.013
	c-0.121,14.202-0.125,28.405-0.009,42.606c0.021,2.539-0.882,3.096-3.2,3.064c-8.346-0.109-16.695-0.103-25.042-0.003
	c-2.188,0.026-3.027-0.501-2.973-2.887c0.162-7.153,0.059-14.311,0.059-21.466C760.89,503.829,760.866,503.829,760.845,503.829z"/>
<path fill-rule="evenodd" clip-rule="evenodd" fill="#00AB65" d="M777.629,535.614c-1.521-0.095-2.229-0.81-2.204-2.06
	c0.022-1.101,0.738-1.803,1.822-1.875c1.255-0.083,2.045,0.622,2.123,1.879C779.452,534.88,778.57,535.415,777.629,535.614z"/>
<path fill-rule="evenodd" clip-rule="evenodd" fill="#00AF86" d="M875.991,517.276c-0.002-4.34,0.062-8.681-0.032-13.019
	c-0.041-1.84,0.321-2.786,2.468-2.738c5.639,0.122,11.284,0.101,16.925,0.008c1.87-0.03,2.429,0.664,2.416,2.466
	c-0.063,9.006-0.071,18.012,0.003,27.017c0.017,1.898-0.728,2.43-2.494,2.41c-5.643-0.06-11.286-0.059-16.927,0.027
	c-1.867,0.027-2.428-0.694-2.39-2.499C876.06,526.393,875.993,521.834,875.991,517.276z"/>
<path fill-rule="evenodd" clip-rule="evenodd" fill="#008E65" d="M888.678,537.218c-0.211,0.898-0.635,1.51-1.509,1.485
	c-0.844-0.022-1.444-0.585-1.436-1.402c0.01-0.934,0.571-1.638,1.608-1.529C888.178,535.858,888.549,536.52,888.678,537.218z"/>
<path fill-rule="evenodd" clip-rule="evenodd" fill="#FE9C00" d="M817.779,130.019c14.874,0,29.747-0.008,44.62,0.005
	c4.356,0.005,4.969,0.609,4.973,4.85c0.012,13.462,0.014,26.924,0.002,40.386c-0.004,4.034-0.681,4.713-4.755,4.714
	c-29.856,0.006-59.712,0.004-89.567-0.011c-4.072-0.002-4.644-0.618-4.647-4.811c-0.009-13.463-0.009-26.924,0.004-40.387
	c0.004-4.061,0.652-4.721,4.75-4.726c14.874-0.018,29.747-0.007,44.621-0.007C817.779,130.027,817.779,130.023,817.779,130.019z"/>
<path fill-rule="evenodd" clip-rule="evenodd" fill="#FEA915" d="M840.633,191.834c-4.887-0.003-9.775-0.049-14.66,0.023
	c-1.595,0.024-2.347-0.333-2.311-2.142c0.031-1.622,0.375-2.285,2.165-2.27c9.88,0.078,19.764,0.074,29.645,0
	c1.775-0.013,2.146,0.644,2.175,2.28c0.033,1.843-0.799,2.15-2.354,2.132C850.406,191.799,845.519,191.836,840.633,191.834z"/>
<path fill-rule="evenodd" clip-rule="evenodd" fill="#F89E00" d="M795.093,191.845c-4.868,0-9.74-0.07-14.608,0.035
	c-1.887,0.041-2.342-0.663-2.367-2.45c-0.028-2,1.059-1.973,2.461-1.969c9.74,0.02,19.479,0.031,29.219-0.02
	c1.553-0.008,2.331,0.251,2.334,2.09c0.002,1.873-0.622,2.398-2.429,2.359c-4.867-0.104-9.739-0.035-14.609-0.035
	C795.093,191.852,795.093,191.848,795.093,191.845z"/>
<path fill-rule="evenodd" clip-rule="evenodd" fill="#FE2D00" d="M503.923,127.073c-1.271,0.221-2.536,0.57-3.815,0.643
	c-11.371,0.645-22.746,0.656-34.113-0.039c-2.256-0.137-4.517-0.573-6.719-1.103c-4.735-1.138-7.949-4.097-8.947-8.875
	c-2.467-11.802-2.44-23.67-0.064-35.479c1.046-5.205,4.603-8.197,9.718-9.323c7.372-1.623,14.852-1.395,22.326-1.186
	c-0.328,2.404-2.276,1.863-3.753,1.962c-4.127,0.275-4.361,0.52-2.588,4.046c7.055,14.035,13.628,28.303,20.527,42.413
	c1.374,2.81,2.763,5.439,6.326,5.841C503.347,126.032,503.727,126.53,503.923,127.073z"/>
<path fill-rule="evenodd" clip-rule="evenodd" fill="#FE5000" d="M503.923,127.073c-4.242,0.594-6.543-1.636-8.268-5.239
	c-7.158-14.955-14.46-29.84-21.674-44.768c-2.061-4.265-1.727-4.7,2.915-4.787c1.809-0.034,3.699,0.462,5.411-0.569
	c7.053-0.225,14.111-0.361,21.123,0.61c8.169,1.133,11.785,4.472,12.968,12.622c1.487,10.252,1.561,20.579-0.225,30.807
	C514.906,123.007,511.114,126.255,503.923,127.073z"/>
<path fill-rule="evenodd" clip-rule="evenodd" fill="#FD5500" d="M537.724,105.802c0.051,3.444-2.625,6.265-6.054,6.385
	c-3.612,0.125-6.506-2.609-6.553-6.196c-0.045-3.471,2.594-6.264,6.034-6.386C534.734,99.478,537.671,102.248,537.724,105.802z"/>
<path fill-rule="evenodd" clip-rule="evenodd" fill="#FD5B00" d="M531.348,96.044c-3.599-0.03-6.353-2.908-6.237-6.52
	c0.109-3.407,2.961-6.145,6.358-6.104c3.383,0.041,6.208,2.851,6.262,6.231C537.79,93.217,534.938,96.073,531.348,96.044z"/>
<path fill-rule="evenodd" clip-rule="evenodd" fill="#FE6528" d="M488.331,330.401c-1.557,7.862-3.207,15.707-4.605,23.597
	c-0.384,2.161-1.387,2.83-3.258,2.452c-1.921-0.388-4.66,1.513-5.431-2.238c-2.38-11.57-4.897-23.112-7.486-34.638
	c-0.511-2.273,0.371-2.516,2.258-2.547c5.959-0.099,5.962-0.157,6.872,5.743c1.023,6.629,2.037,13.26,3.607,19.931
	c1.313-6.914,2.656-13.821,3.929-20.742c0.885-4.81,2.906-6.073,7.716-4.877c1.479,0.368,1.389,1.459,1.571,2.481
	c1.366,7.649,2.718,15.301,4.687,23.003c0.976-5.471,1.952-10.942,2.929-16.413c0.419-2.348,0.773-4.71,1.283-7.038
	c0.874-3.996,4.041-1.77,6.075-1.883c2.347-0.131,0.981,1.903,0.773,2.904c-2.317,11.142-4.79,22.25-7.044,33.404
	c-0.447,2.21-1.15,3.075-3.53,3c-4.782-0.153-4.818,0.004-5.727-4.662c-1.385-7.116-2.723-14.242-4.081-21.364
	C488.69,330.477,488.51,330.439,488.331,330.401z"/>
<path fill-rule="evenodd" clip-rule="evenodd" fill="#FE6528" d="M546.114,399.15c-0.003-5.633,0.064-11.267-0.04-16.897
	c-0.036-1.913,0.424-2.749,2.511-2.638c3.674,0.195,7.375-0.038,11.038,0.25c6.8,0.537,10.92,4.073,12.669,10.669
	c1.561,5.883,1.457,11.804-0.249,17.625c-2.054,7.016-6.252,10.271-13.714,10.699c-3.347,0.19-6.717-0.033-10.069,0.097
	c-1.765,0.068-2.193-0.621-2.172-2.258C546.163,410.85,546.117,404.999,546.114,399.15z"/>
<path fill-rule="evenodd" clip-rule="evenodd" fill="#FE6528" d="M513.507,336.772c0-5.643,0.073-11.286-0.039-16.926
	c-0.041-2.042,0.48-2.824,2.687-2.827c5.934-0.009,5.934-0.117,5.932,5.701c-0.001,1.194-0.001,2.388-0.001,3.581
	c0,6.869,1.336,7.898,8.166,6.646c1.702-0.312,1.367-1.401,1.377-2.4c0.038-3.688,0.089-7.38-0.016-11.066
	c-0.052-1.834,0.604-2.387,2.426-2.443c6.127-0.184,6.123-0.257,6.119,5.907c-0.005,10.199-0.072,20.399,0.04,30.598
	c0.025,2.299-0.685,2.928-2.938,2.896c-5.604-0.077-5.605,0.032-5.61-5.69c-0.002-2.821-0.046-5.643,0.007-8.463
	c0.028-1.488-0.507-2.028-2.068-2.137c-7.508-0.521-7.505-0.573-7.505,7.035c0,1.086,0,2.17,0,3.255
	c-0.002,6.187-0.001,6.107-6.224,5.999c-1.857-0.033-2.409-0.586-2.378-2.413c0.098-5.749,0.036-11.5,0.036-17.251
	C513.514,336.772,513.511,336.772,513.507,336.772z"/>
<path fill-rule="evenodd" clip-rule="evenodd" fill="#FE6528" d="M693.778,352.189c-7.812,8.86-19.838,4.452-22.678-5.532
	c-2.021-7.099-1.969-14.179,0.653-21.079c2.82-7.421,9.749-10.779,17.391-8.739c4.861,1.298,8.731,6.195,9.005,11.221
	c0.065,1.2-0.207,1.866-1.427,2.034c-1.182,0.162-2.413,0.181-3.528,0.553c-1.793,0.599-2.483,0.013-2.844-1.765
	c-0.585-2.889-1.679-5.542-5.26-5.625c-2.823-0.066-5.015,2.215-5.76,6.085c-0.951,4.941-0.992,9.925-0.014,14.874
	c0.337,1.71,0.997,3.346,2.419,4.507c1.974,1.61,4.196,1.912,6.337,0.577c2.271-1.415,2.67-3.896,2.601-6.316
	c-0.041-1.475-1.542-1.044-2.327-0.905c-3.433,0.61-3.403-1.352-3.53-3.91c-0.147-2.949,1.488-2.837,3.414-2.695
	c3.309,0.244,7.601-1.442,9.665,0.733c1.899,2,0.437,6.215,0.531,9.452c0.077,2.604,0.09,5.213-0.021,7.815
	c-0.046,1.095,0.773,2.674-1.46,2.93c-1.983,0.227-2.343-0.927-2.655-2.361C694.177,353.524,694.009,353.018,693.778,352.189z"/>
<path fill-rule="evenodd" clip-rule="evenodd" fill="#FE6528" d="M577.288,398.791c-0.068-3.4,0.206-7.169,1.475-10.806
	c2.035-5.834,5.902-8.771,11.794-8.965c6.53-0.215,10.829,2.229,12.995,8.137c3.017,8.221,2.939,16.618-0.177,24.805
	c-1.941,5.098-6.152,7.43-11.478,7.574c-5.284,0.144-9.478-1.891-12.024-6.755C577.641,408.513,577.252,403.9,577.288,398.791z"/>
<path fill-rule="evenodd" clip-rule="evenodd" fill="#FE6528" d="M622.844,316.447c5.052,0.044,9.051,1.851,11.366,6.639
	c0.736,1.523,0.951,2.634-1.111,3.121c-0.942,0.222-1.877,0.573-2.74,1.013c-1.501,0.765-2.522,0.786-3.292-1.062
	c-0.819-1.968-2.557-2.925-4.695-2.897c-1.907,0.025-3.371,0.845-3.875,2.822c-0.466,1.823,0.219,3.286,1.852,4.086
	c2.428,1.19,4.955,2.179,7.429,3.277c6.029,2.672,8.703,6.781,8.029,12.31c-0.745,6.112-4.508,9.875-11.033,11.033
	c-7.069,1.255-13.038-2.005-15.555-8.291c-0.715-1.784-0.425-2.58,1.431-2.932c0.953-0.181,1.887-0.508,2.8-0.845
	c1.517-0.559,2.533-0.498,3.131,1.384c0.654,2.062,2.157,3.512,4.444,3.811c2.663,0.349,5.135,0.003,6.104-2.957
	c0.962-2.94-0.957-4.43-3.291-5.473c-1.879-0.839-3.84-1.491-5.735-2.298c-6.234-2.657-9.017-7.433-7.787-13.299
	C611.611,319.698,616.012,316.384,622.844,316.447z"/>
<path fill-rule="evenodd" clip-rule="evenodd" fill="#FE6528" d="M652.025,379.014c5.18,0.014,9.255,1.848,11.574,6.807
	c0.699,1.495,0.684,2.397-1.086,2.874c-1.04,0.28-2.088,0.636-3.037,1.138c-1.464,0.774-2.332,0.527-3.014-1.055
	c-0.789-1.832-2.339-2.842-4.334-2.97c-2.033-0.131-3.671,0.603-4.291,2.692c-0.576,1.939,0.191,3.461,1.967,4.315
	c2.34,1.125,4.755,2.089,7.132,3.136c6.249,2.751,8.894,6.823,8.143,12.521c-0.802,6.095-4.571,9.771-11.159,10.885
	c-6.923,1.171-12.762-2.03-15.324-8.175c-0.807-1.936-0.4-2.778,1.571-3.104c0.638-0.104,1.285-0.265,1.878-0.519
	c1.901-0.812,3.188-0.995,4.087,1.591c0.947,2.721,3.423,3.755,6.349,3.401c2.162-0.261,3.723-1.325,4.145-3.511
	c0.401-2.066-0.601-3.611-2.456-4.47c-2.258-1.046-4.596-1.919-6.88-2.909c-6.226-2.696-8.895-7.427-7.581-13.376
	C641.052,382.2,645.322,378.988,652.025,379.014z"/>
<path fill-rule="evenodd" clip-rule="evenodd" fill="#FE6528" d="M569.518,356.377c-2.905,0.979-4.272-0.751-4.49-3.881
	c-0.236-3.419-1.773-5.166-5.395-4.396c-0.104,0.022-0.216,0.003-0.325,0.003c-6.205,0-6.426-0.045-7.668,5.971
	c-0.692,3.355-2.945,2.2-4.736,2.266c-3.752,0.137-3.76,0.04-2.691-3.538c3.29-11.009,6.625-22.006,9.836-33.039
	c0.565-1.944,1.334-3.047,3.527-2.703c0.954,0.151,1.967,0.143,2.925,0.003c2.353-0.34,3.371,0.63,3.999,2.936
	c2.903,10.671,6.005,21.287,9.028,31.925C574.792,356.375,574.782,356.377,569.518,356.377z"/>
<path fill-rule="evenodd" clip-rule="evenodd" fill="#FE6528" d="M668.601,356.365c-1.085,0-1.728-0.006-2.371,0.001
	c-6.219,0.069-6.3,0.091-7.865-6.021c-0.434-1.698-1.114-2.458-2.839-2.27c-0.536,0.059-1.084,0.008-1.626,0.007
	c-6.709-0.009-6.819-0.039-8.562,6.461c-0.542,2.023-1.755,1.808-3.154,1.828c-5.215,0.072-5.198,0.083-3.744-4.762
	c3.141-10.474,6.35-20.928,9.325-31.447c0.689-2.441,1.732-3.491,4.222-3.068c0.632,0.107,1.314,0.11,1.946,0
	c2.815-0.486,3.813,0.821,4.532,3.488C661.645,332.388,665.102,344.117,668.601,356.365z"/>
<path fill-rule="evenodd" clip-rule="evenodd" fill="#FE6528" d="M611.933,399.056c-0.004-5.533,0.067-11.067-0.04-16.598
	c-0.039-2,0.386-2.893,2.646-2.84c6.181,0.146,12.37,0.183,18.549-0.004c2.766-0.084,2.583,1.461,2.545,3.276
	c-0.038,1.749,0.325,3.508-2.531,3.313c-3.348-0.229-6.726,0.042-10.083-0.084c-1.926-0.073-2.605,0.45-2.626,2.517
	c-0.066,6.858-0.158,6.857,6.662,6.858c0.435,0,0.868,0,1.302,0c3.598,0.003,5.12,2.31,3.852,5.682
	c-0.457,1.213-1.383,0.838-2.157,0.855c-2.494,0.058-4.991,0.081-7.484,0.006c-1.459-0.044-2.319,0.339-2.117,1.975
	c0.013,0.107,0.004,0.218-0.001,0.326c-0.355,7.634-0.355,7.634,7.174,7.636c1.52,0.001,3.057,0.153,4.553-0.029
	c2.653-0.326,3.488,0.588,3.549,3.344c0.066,3.034-0.878,3.815-3.808,3.694c-5.632-0.233-11.283-0.178-16.92-0.014
	c-2.341,0.068-3.221-0.441-3.127-2.991C612.077,410.344,611.934,404.696,611.933,399.056z"/>
<path fill-rule="evenodd" clip-rule="evenodd" fill="#FE6528" d="M705.763,336.782c-0.002-5.75,0.055-11.5-0.036-17.249
	c-0.029-1.799,0.481-2.475,2.365-2.446c6.399,0.098,12.803,0.122,19.201,0.005c2.798-0.051,2.087,1.828,2.128,3.307
	c0.043,1.565,0.475,3.346-2.235,3.229c-3.573-0.156-7.161,0.039-10.737-0.06c-1.719-0.048-2.159,0.583-2.218,2.25
	c-0.251,7.129-0.31,7.126,6.704,7.127c0.434,0,0.867,0,1.303,0c3.491,0.002,5.114,2.518,3.784,5.735
	c-0.416,1.007-1.184,0.791-1.879,0.801c-2.604,0.038-5.209,0.083-7.81-0.003c-1.522-0.051-2.005,0.476-2.101,2.031
	c-0.49,7.919-0.54,7.916,7.262,7.916c1.193,0,2.387,0,3.58,0c4.387,0.002,5.258,1.203,4.377,5.645
	c-0.239,1.208-0.883,1.291-1.799,1.29c-6.728-0.004-13.453-0.045-20.18,0.025c-1.898,0.02-1.711-1.154-1.71-2.354
	C705.765,348.281,705.764,342.532,705.763,336.782z"/>
<path fill-rule="evenodd" clip-rule="evenodd" fill="#FE6528" d="M584.417,317.101c3.366,0.003,6.734,0.066,10.098-0.016
	c2.853-0.07,2.039,2.028,1.967,3.418c-0.073,1.438,1.13,3.613-1.956,3.808c-5.915,0.375-5.908,0.482-5.909,6.344
	c0,7.602-0.076,15.204,0.042,22.804c0.034,2.172-0.42,3.02-2.813,2.978c-5.771-0.1-5.773,0.031-5.774-5.811
	c-0.001-7.819-0.081-15.638,0.046-23.455c0.036-2.233-0.537-3.269-2.866-2.902c-0.424,0.066-0.878,0.07-1.3-0.003
	c-1.211-0.211-3.094,0.726-3.506-0.711c-0.516-1.801-0.295-3.872-0.097-5.795c0.091-0.882,1.245-0.646,1.968-0.652
	C577.684,317.084,581.05,317.097,584.417,317.101z"/>
<path fill-rule="evenodd" clip-rule="evenodd" fill="#0D0D0D" d="M559.193,614.301c3.687,0,7.376,0.057,11.062-0.026
	c1.673-0.039,2.292,0.546,2.273,2.246c-0.07,6.398-0.107,12.8,0.009,19.195c0.043,2.407-1.391,2.139-2.952,2.231
	c-1.838,0.108-2.46-0.47-2.313-2.397c0.25-3.255-0.723-6.046-4.062-7.391c-1.078-0.434-0.901-0.97-0.428-1.735
	c0.28-0.454,0.471-0.98,0.612-1.496c0.707-2.593-0.071-4.759-2.163-6.338c-1.562-1.179-3.312-1.032-4.813,0.193
	c-1.941,1.584-2.926,3.83-1.844,6.073c1.127,2.339,0.387,3.147-1.569,4.297c-2.275,1.339-2.665,3.896-2.436,6.35
	c0.173,1.858-0.343,2.56-2.25,2.444c-1.597-0.096-2.911,0.093-2.849-2.304c0.161-6.286,0.141-12.581,0.012-18.869
	c-0.042-2.1,0.758-2.564,2.648-2.507C551.815,614.381,555.505,614.301,559.193,614.301z"/>
<path fill-rule="evenodd" clip-rule="evenodd" fill="#0E0F0F" d="M554.65,600.099c0.256-1.378,0.599-2.746,0.746-4.134
	c0.208-1.966,1.281-2.588,3.099-2.289c2.234,0.369,0.868,1.854,0.717,2.742c-0.507,2.993-1.289,5.939-1.825,8.928
	c-0.284,1.583-0.735,2.505-2.64,2.518c-1.926,0.015-2.358-1.032-2.711-2.515c-0.426-1.786-0.969-3.544-1.692-6.146
	c-0.745,2.607-1.335,4.432-1.776,6.292c-0.368,1.553-0.99,2.391-2.823,2.361c-1.752-0.028-2.166-0.862-2.446-2.307
	c-0.619-3.195-1.39-6.359-2.05-9.548c-0.179-0.864-0.854-2.097,0.767-2.261c1.189-0.121,2.69-0.582,2.984,1.466
	c0.237,1.659,0.686,3.286,1.552,4.896c0.395-1.426,0.842-2.838,1.171-4.277c0.326-1.427,0.895-2.242,2.601-2.215
	c1.681,0.028,2.266,0.762,2.56,2.254c0.291,1.472,0.823,2.896,1.25,4.34C554.305,600.169,554.478,600.133,554.65,600.099z"/>
<path fill-rule="evenodd" clip-rule="evenodd" fill="#101010" d="M516.392,601.36c0,1.495-0.032,2.991,0.009,4.485
	c0.037,1.32-0.424,1.947-1.871,1.969c-1.558,0.022-2.115-0.564-2.084-2.092c0.064-3.14-0.018-6.281,0.03-9.421
	c0.015-0.982-0.468-2.37,1.179-2.556c1.254-0.141,2.58-0.387,3.472,1.04c1.183,1.888,2.492,3.696,4.425,5.403
	c0-1.447,0.052-2.897-0.015-4.341c-0.065-1.425,0.299-2.21,1.957-2.214c1.615-0.003,2.047,0.699,2.02,2.159
	c-0.057,3.138,0.022,6.28-0.046,9.419c-0.021,0.957,0.519,2.378-1.183,2.527c-1.259,0.11-2.589,0.332-3.462-1.087
	c-1.175-1.907-2.459-3.748-3.696-5.618C516.881,601.145,516.637,601.253,516.392,601.36z"/>
<path fill-rule="evenodd" clip-rule="evenodd" fill="#111212" d="M526.517,619.383c-3.582,0-7.163,0.014-10.744-0.006
	c-1.554-0.009-2.878-0.472-2.914-2.316c-0.035-1.869,1.304-2.366,2.846-2.374c7.054-0.036,14.108-0.046,21.163-0.02
	c1.516,0.007,2.913,0.457,2.903,2.329c-0.01,2.061-1.517,2.396-3.162,2.401c-3.364,0.015-6.729,0.005-10.093,0.005
	C526.517,619.396,526.517,619.39,526.517,619.383z"/>
<path fill-rule="evenodd" clip-rule="evenodd" fill="#0F0F0F" d="M528.417,600.803c-0.013-7.15-0.013-7.15,7.08-7.139
	c0.433,0,0.876-0.059,1.296,0.014c1.11,0.193,2.851-0.696,2.847,1.526c-0.004,2.212-1.757,1.252-2.845,1.555
	c-1.388,0.388-3.926-1.054-3.98,1.109c-0.049,1.962,2.434,0.71,3.757,1.019c1.06,0.248,2.571-0.378,2.513,1.589
	c-0.05,1.722-1.403,1.152-2.36,1.422c-1.409,0.396-4.106-1.28-3.988,1.497c0.097,2.29,2.624,0.754,3.995,1.191
	c1.129,0.361,3.122-0.852,3.043,1.638c-0.075,2.384-1.979,1.324-3.17,1.562c-0.416,0.083-0.862,0.009-1.294,0.008
	C528.431,607.776,528.431,607.776,528.417,600.803z"/>
<path fill-rule="evenodd" clip-rule="evenodd" fill="#0E0E0E" d="M526.318,628.146c-3.463-0.002-6.927-0.017-10.389,0.005
	c-1.55,0.01-2.948-0.314-3.041-2.132c-0.1-2.004,1.309-2.49,3.026-2.488c6.927,0.012,13.854,0.015,20.78,0.006
	c1.706-0.003,3.136,0.436,3.034,2.463c-0.091,1.81-1.456,2.168-3.021,2.156C533.245,628.127,529.782,628.146,526.318,628.146z"/>
<path fill-rule="evenodd" clip-rule="evenodd" fill="#0F0F0F" d="M526.312,632.401c3.466,0,6.931-0.003,10.396,0.001
	c1.514,0.001,2.948,0.274,3.037,2.141c0.098,2.042-1.341,2.496-3.027,2.497c-6.931,0.003-13.862-0.005-20.792-0.01
	c-1.694-0.001-3.119-0.457-3.045-2.486c0.069-1.896,1.539-2.119,3.036-2.124c3.465-0.01,6.931-0.003,10.396-0.003
	C526.312,632.411,526.312,632.405,526.312,632.401z"/>
<path fill-rule="evenodd" clip-rule="evenodd" fill="#0E0F0F" d="M566.847,593.492c1.327-0.023,2.648,0.074,3.724,0.905
	c0.92,0.711,2.231,1.748,1.394,2.843c-0.7,0.915-2.324,0.907-3.536,0.146c-0.532-0.333-0.945-0.898-1.506-1.13
	c-0.598-0.247-1.363-0.188-1.662,0.541c-0.339,0.823,0.309,1.148,0.949,1.355c1.336,0.436,2.741,0.708,4.013,1.28
	c2.667,1.2,3.422,3.783,1.941,6.178c-1.9,3.072-8.507,3.344-10.603,0.381c-0.513-0.726-1.502-1.865-0.613-2.527
	c0.917-0.684,2.421-1.088,3.546,0.026c0.525,0.521,0.793,1.309,1.579,1.562c1.035,0.332,2.042,0.225,2.497-0.842
	c0.458-1.076-0.443-1.537-1.274-1.856c-0.603-0.231-1.253-0.334-1.87-0.531c-2.361-0.752-4.766-1.66-4.277-4.763
	C561.647,593.895,564.236,593.55,566.847,593.492z"/>
<path fill-rule="evenodd" clip-rule="evenodd" fill="#F7F7F7" d="M554.656,399.106c0.002-3.461,0.146-6.931-0.048-10.382
	c-0.131-2.335,0.834-2.696,2.843-2.497c2.94,0.292,4.828,1.783,5.708,4.516c1.814,5.627,1.638,11.288-0.059,16.898
	c-0.54,1.785-1.607,3.284-3.45,4.074c-3.737,1.603-4.994,0.81-4.996-3.198C554.653,405.38,554.654,402.243,554.656,399.106z"/>
<path fill-rule="evenodd" clip-rule="evenodd" fill="#FAF9F9" d="M596.574,399.291c-0.167,3.233,0.072,6.51-0.92,9.651
	c-0.659,2.091-1.832,3.713-4.348,3.629c-2.46-0.083-3.734-1.625-4.206-3.802c-1.37-6.312-1.361-12.661-0.024-18.973
	c0.482-2.278,1.776-4.038,4.406-3.968c2.588,0.069,3.726,1.829,4.313,4.114C596.589,393.019,596.408,396.166,596.574,399.291z"/>
<path fill-rule="evenodd" clip-rule="evenodd" fill="#F2EEEE" d="M558.752,326.924c1.061,4.366,2.1,8.736,3.198,13.093
	c0.307,1.213-0.215,1.428-1.276,1.58c-5.631,0.807-6.167,0.268-4.87-5.111c0.607-2.519,1.188-5.044,1.793-7.562
	c0.15-0.628,0.35-1.244,0.527-1.865C558.333,327.014,558.543,326.969,558.752,326.924z"/>
<path fill-rule="evenodd" clip-rule="evenodd" fill="#FAF7F6" d="M652.547,326.849c1.089,4.467,2.168,8.937,3.276,13.398
	c0.28,1.129-0.381,1.198-1.218,1.338c-5.588,0.935-6.243,0.241-4.916-5.317c0.744-3.116,1.491-6.233,2.236-9.349
	C652.133,326.895,652.34,326.872,652.547,326.849z"/>
</svg>
