<?xml version="1.0" encoding="utf-8"?>
<!-- Generator: Adobe Illustrator 16.0.0, SVG Export Plug-In . SVG Version: 6.00 Build 0)  -->
<!DOCTYPE svg PUBLIC "-//W3C//DTD SVG 1.1//EN" "http://www.w3.org/Graphics/SVG/1.1/DTD/svg11.dtd">
<svg version="1.1" id="Layer_1" xmlns="http://www.w3.org/2000/svg" xmlns:xlink="http://www.w3.org/1999/xlink" x="0px" y="0px"
	 width="1200px" height="800px" viewBox="0 0 1200 800" enable-background="new 0 0 1200 800" xml:space="preserve">
<path fill-rule="evenodd" clip-rule="evenodd" fill="#020000" d="M287,1075c0-2.436,0-4.87,0-7.979
	c5.418,2.753,10.718,4.346,15,7.979C297,1075,292,1075,287,1075z"/>
<path fill-rule="evenodd" clip-rule="evenodd" fill="#FEDCD3" d="M699,1075c6.333-1.629,12.667-1.808,19,0
	C711.667,1075,705.333,1075,699,1075z"/>
<path fill-rule="evenodd" clip-rule="evenodd" fill="#23475F" d="M575.439,65.063c11.136-1.219,22.313-1.284,33.481-0.882
	c27.855,1.002,54.991,5.987,81.339,15.137c16.808,5.836,32.979,13.067,48.31,22.129c0.987,1.42-0.057,2.54-0.649,3.63
	c-3.57,6.563-7.425,12.965-11.147,19.443c-9.546,16.613-19.177,33.178-28.729,49.787c-6.223,10.82-12.509,21.603-18.699,32.441
	c-1.664,2.915-1.681,3.038,1.056,4.707c8.051,4.912,15.455,10.646,22.543,16.888c8.239,7.255,15.216,15.563,21.851,24.22
	c0.801,1.046,1.367,2.245,2.144,3.309c2.98,3.694,5.334,7.812,7.594,11.943c3.063,5.601,6.056,11.265,8.296,17.273
	c1.544,3.198,2.496,6.624,3.779,9.922c0.348,0.894,0.558,1.84,1.647,2.146c3.874,1.634,7.517,2.923,12.045,1.476
	c22.518-7.197,45.144-14.052,67.749-20.973c12.016-3.678,23.98-7.527,36.03-11.094c1.256-0.371,2.558-0.875,3.7,0.306
	c2.647,7.739,4.271,15.735,5.83,23.736c4.395,22.541,5.952,45.296,4.74,68.224c-1.019,19.27-3.926,38.259-8.9,56.918
	c-1.32,1.645-2.924,0.722-4.367,0.372c-10.598-2.565-21.176-5.212-31.74-7.912c-28.029-7.162-56.111-14.118-84.169-21.174
	c-0.597-0.15-1.213-0.224-1.797-0.426c-1.928-0.665-2.973,0.056-3.442,2.007c-1.569,6.517-3.952,12.762-6.516,18.939
	c-2.427,5.851-5.129,11.568-8.565,16.908c-3.253,5.89-7.078,11.403-11.099,16.787c-1.045,1.398-2.101,2.795-3.537,3.838
	c-2.513,1.419-4.253,3.711-6.072,5.804c-6.787,7.808-14.812,14.167-23.049,20.302c-2.11,1.573-4.157,3.281-6.492,4.494
	c-1.649,0.856-1.606,1.831-0.871,3.184c2.897,5.329,5.733,10.696,8.883,15.882c9.765,16.078,19.692,32.055,29.509,48.1
	c6.423,10.494,12.734,21.057,19.313,31.455c1.317,2.082,2.49,4.247,3.762,6.355c0.919,1.524,1.91,1.872,3.449,0.841
	c1.002-0.671,2.107-1.373,3.438-0.701c0.33,0.264,0.523,0.582,0.399,1.023c-18.933,12.024-39.147,21.328-60.427,28.334
	c-18.58,6.117-37.606,10.205-57.065,12.255c-2-1.308-2.555-4.402-1.237-6.888c0.076-0.038,0.159-0.112,0.235-0.106
	c3.548,0.26,3.929-0.187,3.444-4.007c-1.445-11.399-2.346-22.856-3.607-34.275c-1.002-9.065-2.01-18.132-2.913-27.204
	c-0.904-9.076-1.916-18.142-2.823-27.218c-0.742-7.417-1.49-14.834-2.238-22.251c-0.306-3.029-2.177-4.848-4.91-5.899
	c-4.199,0.091-8.394,0.435-12.577,0.534c-8.837,0.21-17.654-0.459-26.392-1.892c-11.659-1.512-22.851-4.805-33.765-9.073
	c-5.556-2.173-11.103-4.406-16.132-7.696c-5.466-2.286-10.247-5.742-15.172-8.952c-0.439-0.287-0.83-0.645-1.267-0.945
	c-2.979-2.046-3.014-2.08-5.16,0.783c-17.643,23.54-35.266,47.094-52.972,70.586c-6.658,8.834-13.303,17.679-19.98,26.499
	c-0.735,0.971-1.388,2.386-3.095,1.958c-29.365-22.736-53.503-50.059-72.131-82.213c-3.525-6.085-6.805-12.302-9.875-18.629
	c0.163-2.44,1.934-2.647,3.792-2.738c1.611,1.109,3.418,0.274,5.105,0.517c4.695,0.672,8.686-1.021,12.787-3.055
	c17.642-8.751,35.419-17.23,53.154-25.791c12.982-6.267,25.946-12.573,38.96-18.774c4.622-2.202,4.754-2.872,2.647-7.662
	c-4.321-9.824-7.707-19.966-9.831-30.489c-1.458-7.229-2.457-14.523-2.724-21.927c-0.124-3.415-0.528-6.831-0.428-10.258
	c0.399-13.651,1.94-27.152,5.782-40.299c0.893-3.056,0.037-5.273-2.109-7.281c-6.88-2.721-14.046-4.558-21.092-6.75
	c-12.928-4.024-25.884-7.957-38.819-11.959c-18.731-5.796-37.479-11.536-56.211-17.33c-1.177-0.364-2.346-0.753-3.494-1.201
	c-0.917-0.358-1.805-0.774-1.831-1.973c11.989-37.385,31.078-70.725,57.051-100.143c0.406-0.459,0.791-0.938,1.186-1.408
	c1.217-0.541,1.951,0.33,2.798,0.931c3.601,2.558,6.528,5.875,9.723,8.864c8.717,8.157,17.516,16.228,26.25,24.366
	c7.895,7.356,15.727,14.79,23.812,21.941c0.857,0.758,1.34,1.861,2.325,2.498c4.73,3.922,9.159,8.184,13.628,12.387
	c3.708,3.486,7.633,6.746,11.13,10.459c1.572,1.67,3.385,2.731,5.771,1.595c2.316-0.501,4.539-1.353,6.949-1.476
	c1.453-0.074,2.559-1.046,3.603-2.04c11.109-10.565,23.567-19.223,37.291-26.02c15.415-7.635,31.658-12.661,48.729-14.923
	c1.653-0.219,3.319-0.296,4.975-0.571c1.873-0.31,2.586-1.304,2.413-3.086c-0.975-10.052-1.706-20.126-2.388-30.198
	c-0.558-8.238-1.299-16.462-1.833-24.704c-0.51-7.881-1.209-15.758-1.84-23.634c-0.455-5.688-0.864-11.386-1.249-17.083
	c-0.527-7.8-1.252-15.585-1.683-23.393c-0.112-2.031-0.872-3.591-3.327-3.552c-0.797,0.013-1.541-0.333-2.163-0.878
	C574.58,67.307,573.937,66.127,575.439,65.063z"/>
<path fill-rule="evenodd" clip-rule="evenodd" fill="#B63B83" d="M332.112,258.553c7.551,2.871,15.358,4.937,23.062,7.324
	c32.367,10.029,64.75,20.004,97.129,29.992c0.752,0.231,1.566,0.32,1.996,1.115c0.886,1.755,0.227,3.451-0.24,5.132
	c-2.768,9.946-4.36,20.087-5.091,30.374c-0.341,1.945-0.624,3.892-0.247,5.87c-0.265,2.575-0.248,5.148,0.018,7.723
	c0.053,1.419-0.401,2.762-0.715,4.112c-0.339,1.459-1.404,2.559-2.862,2.713c-4.071,0.429-8.147,0.979-12.261,0.732
	c-0.629-0.038-1.177-0.305-1.617-0.76c-1.167-1.475-0.617-3.014-0.066-4.498c1.56-4.2,3.222-8.362,4.688-12.597
	c1.551-4.479,4.719-7.998,7.034-12.022c2.762-4.8,1.197-8.624-4.208-10.245c-3.181-0.955-5.57-0.457-6.892,2.129
	c-4.602,9.003-12.384,14.825-20.085,20.81c-10.744,8.35-21.302,16.936-32.013,25.328c-0.691,0.542-1.376,1.087-2.09,1.602
	c-2.612,1.88-3.717,1.891-6.345-0.062c-3.383-2.514-6.61-5.228-9.908-7.85c-11.682-9.291-23.423-18.505-35.062-27.848
	c-1.596-1.281-2.984-2.696-4.057-4.45c-1.649-2.699-3.466-5.29-5.245-7.906c-1.296-1.906-3.019-2.488-5.257-2.013
	c-1.759,0.374-3.375,1.038-4.809,2.068c-2.58,1.856-3.403,4.683-1.531,7.11c7.818,10.133,10.762,22.391,15.158,34.017
	c0.627,1.661,1.857,3.321,0.645,5.247c-2.428,1.669-5.293,0.986-7.925,1.282c-4.962,0.559-9.976,0.734-14.96,1.172
	c-0.971-3.875-0.741-7.867-0.867-11.783c-1.056-32.999,2.981-65.365,12.375-97.055c0.772-2.604,1.777-2.785,4.072-2.076
	C319.966,255.102,325.881,257.378,332.112,258.553z"/>
<path fill-rule="evenodd" clip-rule="evenodd" fill="#8C3280" d="M431.442,351.841c2.64,1.388,5.412,0.4,8.124,0.425
	c1.13,0.01,2.262-0.295,3.396-0.324c3.688-0.097,4.263-0.647,4.331-4.306c0.01-0.527,0.068-1.052,0.104-1.578
	c1.921,0.314,1.552,1.882,1.6,3.104c0.737,18.612,5.014,36.442,11.787,53.728c0.545,1.393,1.251,2.714,1.8,4.104
	c0.959,2.429,0.715,3.155-1.646,4.438c-2.551,1.386-5.266,2.441-7.857,3.736c-13.452,6.721-27.073,13.09-40.594,19.666
	c-14.863,7.228-29.779,14.35-44.667,21.53c-4.196,2.024-8.41,4.016-12.573,6.105c-1.621,0.815-3.243,1.323-5.059,1.037
	c-1.307,0.573-2.664,1.054-3.762,2.018c-5.635,2.654-11.292,5.262-16.889,7.994c-1.478,0.721-2.188,0.688-2.963-0.963
	c-11.183-23.802-19.258-48.594-23.988-74.472c-2.053-11.231-3.71-22.509-4.23-33.93c0.598-1.529,1.986-1.556,3.276-1.64
	c5.904-0.386,11.812-0.718,17.716-1.103c0.585-0.038,1.157-0.301,1.735-0.46c1.986-0.118,2.025,1.597,2.463,2.775
	c3.437,9.269,6.931,18.517,10.337,27.797c0.225,0.614,0.242,1.392,1.175,1.854c0.17-2.579-1.256-4.574-1.899-6.768
	c-0.461-1.573-1.382-3.143,0.26-4.594c3.337-0.275,6.729-1.617,9.943,0.496c0.609,0.602,0.768,1.359,0.686,2.179
	c-0.166,1.646,0.388,3.111,1.09,4.55c1.217,2.494,0.94,3.384-1.636,4.458c-2.929,1.221-5.021,3.177-5.994,6.232
	c-1.034,3.245-0.379,4.157,3.023,4.181c3.341,0.023,6.684-0.019,10.025,0.013c1.583,0.017,2.689-0.443,3.221-2.075
	c0.715-2.2,1.929-4.137,3.52-5.817c1.069-1.129,0.982-1.925-0.492-2.588c-1.313-0.591-2.46-1.764-1.731-3.101
	c1.597-2.926,1.116-5.939,1.009-8.979c0.411-0.945,1.241-1.379,2.125-1.745c1.642-0.427,2.792-2.431,4.856-1.526
	c0.536,0.642,0.904,1.433,2.071,1.008c0.99-0.359,2.074-0.357,2.75,0.765c0.326,1.033-0.261,1.881-0.579,2.775
	c-1.043,2.923-0.818,5.655,0.937,8.293c1.93,2.902,1.71,3.651-1.691,4.944c-4.982,1.893-7.911,5.285-8.621,10.636
	c-0.25,1.885,0.387,2.647,2.197,2.653c9.758,0.03,19.518,0.039,29.276-0.004c1.887-0.008,2.481-0.995,2.174-2.733
	c-0.817-4.623-2.99-8.207-7.555-10.019c-0.896-0.356-1.839-0.625-2.682-1.091c-1.25-0.691-1.911-1.872-1.003-3.067
	c2.968-3.91,3.078-7.875,0.674-12.041c-0.124-0.215-0.048-0.519-0.017-0.78c0.658-1.672,2.742-1.275,3.686-2.538
	c0.808-0.369,1.651-0.222,2.218,0.325c1.913,1.842,3.626,1.474,5.313-0.28c1.56-0.092,3.144-0.252,4.168,1.327
	c0.288,1.116-0.375,1.794-1.109,2.471c-2.447,2.255-2.775,4.922-1.526,7.909c1.226,2.93,1.186,3.206-1.414,4.91
	c-1.107,0.725-1.241,1.363-0.372,2.283c1.772,1.878,3.053,4.05,3.909,6.482c0.36,1.025,1.086,1.544,2.187,1.562
	c4.125,0.068,8.25,0.03,12.375,0.02c1.688-0.004,2.129-0.938,1.911-2.399c-0.547-3.673-2.526-6.263-5.906-7.808
	c-3.289-1.503-3.514-2.013-1.866-5.089c1.451-2.708,0.857-5.063-0.938-7.298c-0.75-0.934-1.911-1.652-1.546-3.138
	c0.304-0.787,0.861-1.379,1.668-1.512c4.854-0.796,9.778-1,14.641-1.722c1.495,0.972,0.946,2.272,0.514,3.516
	c-1.385,3.983-3.024,7.873-4.372,11.87c-0.238,0.706-0.737,1.392-0.198,2.478c0.973-1.29,1.335-2.622,1.802-3.888
	c4.218-11.457,8.547-22.872,12.744-34.336C429.339,353.531,429.618,351.967,431.442,351.841z"/>
<path fill-rule="evenodd" clip-rule="evenodd" fill="#00B272" d="M713.645,444.338c4.892-5.505,8.88-11.653,12.751-17.886
	c0.458-0.736,0.974-1.438,1.462-2.155c1.229-0.151,2.13,0.484,3.107,1.128c2.458,1.616,4.636,3.672,7.363,4.953
	c0.829-1.132,0.31-2.35,0.629-3.403c0.312-1.031,0.509-2.482,2.174-1.24c0.832,1.47,0.539,3.084,0.56,4.643
	c0.051,3.772-0.012,7.545,0.032,11.317c0.019,1.568-0.177,3.4,2.174,3.457c2.372,0.058,2.181-1.75,2.278-3.34
	c0.133-2.171-0.357-4.389,0.469-6.509c0.999-1.175,1.917-0.516,2.183,0.451c1.21,4.395,5.126,6.072,8.326,8.36
	c12.895,9.218,25.727,18.523,38.642,27.711c0.933,0.664,2.056,1.036,2.887,1.82c0.975,0.916,2.056,1.907,0.433,3.219
	c-1.443,0.547-2.952,0.387-4.438,0.392c-9.407,0.032-18.813-0.025-28.222,0.037c-2.728,0.019-3.397,0.614-3.558,2.804
	c-0.203,2.77,0.564,3.636,3.406,3.711c3.251,0.085,6.508-0.075,9.758,0.091c2.385,0.121,3.529,1.166,3.499,3.039
	c-0.029,1.861-1.159,2.816-3.599,2.948c-3.645,0.196-7.31-0.115-10.946,0.5c15.312,0.315,30.618,0.314,45.935,0.061
	c-2.149-0.766-4.373-0.423-6.561-0.489c-2.548-0.079-5.1,0.072-7.646-0.123c-1.751-0.134-2.793-1.081-2.837-2.848
	c-0.042-1.74,0.877-2.957,2.647-2.998c6.05-0.14,12.108-0.556,18.149,0.24c1.408,1.959,3.342,3.438,4.887,5.276
	c0.466,2.077,0.286,4.19,0.289,6.29c0.015,6.93-0.315,6.248,6.657,6.63c4.287,0.233,8.564-0.623,12.82,0.163
	c2.586,2.502,5.752,4.247,8.547,6.482c1.191,0.954,2.016,1.969,1.493,3.592c-10.582,16.471-22.646,31.77-36.248,45.853
	c-1.646,1.703-3.297,3.401-4.945,5.103c-0.706,0.582-1.41,1.166-2.115,1.749c-1.912,1.312-3.523,0.377-5.063-0.731
	c-7.555-5.436-15.161-10.8-22.721-16.227c-14.407-10.34-28.882-20.585-43.271-30.95c-17.667-12.729-35.429-25.321-53.11-38.027
	c-1.305-0.937-2.875-1.85-2.779-3.87c2.216-2.656,5.331-4.174,8.02-6.227c9.229-7.047,17.797-14.759,25.066-23.854
	C712.606,445.007,713.031,444.543,713.645,444.338z"/>
<path fill-rule="evenodd" clip-rule="evenodd" fill="#00B952" d="M679.741,475.459c0.144,1.185,1.018,1.753,1.896,2.381
	c20.157,14.419,40.292,28.871,60.456,43.282c17.875,12.777,35.779,25.513,53.671,38.269c2.146,1.531,4.299,3.053,6.418,4.621
	c1.174,0.867,2.427,1.411,3.904,1.354c-9.062,9.198-18.995,17.389-29.291,25.148c-2.304,1.736-4.715,3.33-7.077,4.99
	c-1.654,0.864-3.003,0.226-4.342-0.793c-6.049-4.604-12.621-8.503-18.324-13.571c-0.617-0.549-1.397-0.699-2.152-0.918
	c-2.946-2.495-4.61-5.955-6.659-9.095c-6.099-9.349-12.149-18.73-18.225-28.094c-13.732-21.163-27.481-42.315-41.226-63.471
	c-0.821-1.265-2.067-2.658-0.244-4.132C678.918,475.131,679.351,475.114,679.741,475.459z"/>
<path fill-rule="evenodd" clip-rule="evenodd" fill="#FE0202" d="M454.65,216.221c-11.359-10.472-22.727-20.934-34.073-31.418
	c-9.546-8.821-19.066-17.669-28.604-26.498c-0.508-0.471-1.082-0.87-1.625-1.302c-4.483-4.712-9.498-8.861-14.174-13.367
	c-3.517-3.389-3.445-2.441-0.206-5.939c1.063-1.149,2.419-2.046,3.12-3.518c6.715-6.263,13.203-12.776,20.301-18.621
	c1.685-1.388,3.411-2.726,5.117-4.087c1.929-0.176,2.862,1.075,3.577,2.562c6.813,14.164,13.655,28.314,20.5,42.463
	c7.226,14.938,14.355,29.925,21.616,44.848c1.804,3.708,3.629,7.414,5.309,11.181C456.079,213.807,457.125,215.509,454.65,216.221z"
	/>
<path fill-rule="evenodd" clip-rule="evenodd" fill="#26BB49" d="M745.33,579.572c4.865,2.102,8.674,5.795,13.024,8.671
	c2.907,1.921,5.671,4.062,8.506,6.095c0.855,0.614,1.743,1.175,2.858,1.167c-2.501,2.217-5.465,3.78-8.129,5.762
	c-1.258,0.936-1.854,0.635-2.635-0.592c-3.528-5.55-7.142-11.045-10.743-16.547c-0.525-0.802-1.15-1.536-1.729-2.303
	c-0.189-0.248-0.38-0.497-0.57-0.746C745.338,580.725,744.844,580.338,745.33,579.572z"/>
<path fill-rule="evenodd" clip-rule="evenodd" fill="#FE9900" d="M726.18,256.362c-5.575-7.463-11.312-14.784-17.918-21.392
	c-9.057-9.06-19.005-16.975-30.052-23.455c-1.932-1.132-2.005-1.882-0.936-3.728c20.079-34.641,40.083-69.326,60.096-104.005
	c0.437-0.757,0.801-1.556,1.199-2.336c3.77-6.443,7.588-12.857,11.271-19.349c0.909-1.601,1.542-2.074,3.34-1.009
	c34.652,20.515,64.113,46.829,88.438,78.906c0.688,0.907,1.303,1.87,1.95,2.807c-0.12,2.34-1.987,3.418-3.514,4.651
	c-4.772,3.854-9.504,7.764-14.396,11.465c-1.937,1.466-2.698,3.156-2.672,5.587c0.097,8.774,0.107,17.551-0.019,26.326
	c-0.019,1.268,0.586,3.236-1.881,3.226c-1.31-1.18-0.93-2.774-0.935-4.217c-0.05-12.494-0.021-24.988-0.028-37.481
	c-0.001-1.056,0.037-2.115-0.055-3.167c-0.204-2.323-1.127-3.277-3.482-3.503c-1.841-0.177-3.694-0.024-5.54-0.122
	c-1.31-0.069-2.837,0.032-3.209-1.648c-0.34-1.536,0.568-2.649,1.701-3.618c0.643-0.549,1.744-0.415,2.129-1.557
	c-1.206-0.783-2.533-0.522-3.796-0.438c-1.121,0.075-1.445,0.509-0.895,1.741c1.376,3.074-0.1,5.386-3.568,5.472
	c-8.092,0.202-16.188,0.105-24.282,0.047c-1.578-0.011-3.073-0.283-3.518-2.103c-0.445-1.82,0.419-3.043,2.042-3.812
	c0.315-0.149,0.639-0.305,0.718-0.906c-1.963-0.844-3.935-0.656-5.935-0.124c-0.027,1.147,0.937,1.052,1.43,1.447
	c1.147,0.919,1.662,2.053,1.253,3.481c-0.394,1.371-1.446,1.911-2.802,1.974c-3.605,0.168-7.214,0.069-10.819,0.078
	c-4.487,0.01-8.977,0.081-13.461-0.034c-4.214-0.109-5.436-1.852-4.092-5.82c0.275-0.811,0.088-1.263-0.627-1.354
	c-1.422-0.18-2.905-0.524-4.393,0.497c0.887,1.012,2.193,1.068,2.924,1.976c0.807,1.003,1.473,2.068,0.973,3.366
	c-0.446,1.161-1.584,1.258-2.664,1.317c-1.934,0.107-3.874-0.032-5.805,0.123c-2.611,0.209-3.666,1.196-3.686,3.842
	c-0.106,14.165-0.097,28.331-0.006,42.496c0.019,2.806,1.063,3.773,3.839,3.97c1.755,0.124,3.52-0.008,5.274,0.154
	c1.64,0.152,2.588,0.958,2.576,2.708c-0.013,1.768-1.025,2.504-2.64,2.658c-2.147,0.205-4.313-0.023-6.461,0.254
	c9.586,0.109,19.172,0.068,28.757,0.102c1.482,0.005,2.997-0.19,4.432,0.398c1.921,1.928,0.362,3.229-0.969,4.309
	c-4.152,3.372-8.343,6.697-12.527,10.032c-7.611,6.066-15.205,12.156-22.812,18.229C728.991,255.735,727.915,256.931,726.18,256.362
	z"/>
<path fill-rule="evenodd" clip-rule="evenodd" fill="#00AE8C" d="M849.396,512.662c-1.462-3.197-4.864-4.18-7.253-6.32
	c-0.912-0.819-2.055-1.385-2.325-2.729c2.785-1.861,2.503-4.717,2.493-7.521c-0.029-8.092,0.002-16.185-0.016-24.276
	c-0.01-4.336-0.251-4.568-4.686-4.579c-4.749-0.011-9.499-0.049-14.248,0.018c-2.855,0.041-3.396,0.576-3.442,3.424
	c-0.083,5.012,0.03,10.026-0.063,15.039c-0.023,1.267,0.263,2.712-1.174,3.541c-1.606-1.04-3.911-1.459-3.69-4.132
	c0.199-1.658,0.393-3.311,0.379-4.991c-0.017-2.006-0.953-2.858-2.915-2.869c-3.257-0.019-6.514,0.049-9.769-0.05
	c-1.116-0.035-2.351,0.12-3.016-1.151c-2.957-2.76-6.543-4.644-9.79-7.003c-12.715-9.236-25.461-18.433-38.335-27.445
	c-2.541-1.779-3.083-4.321-4.153-6.76c-1.066-2.236-0.588-3.331,1.67-3.705c1.13-0.187,2.282-0.145,3.426-0.145
	c22.973-0.009,45.945-0.014,68.918,0.002c6.163,0.005,6.39,0.247,6.409,6.421c0.022,6.776,0.001,13.554,0.01,20.332
	c0.001,0.88-0.024,1.762,0.104,2.636c0.171,1.175,0.765,2.003,2.024,2.041c1.394,0.042,2.052-0.817,2.216-2.118
	c0.1-0.788,0.086-1.582,0.086-2.374c0.006-8.89,0.017-17.779-0.003-26.67c-0.01-4.285-0.411-4.7-4.678-4.704
	c-27.197-0.02-54.396,0.009-81.592-0.036c-1.863-0.004-3.933,0.56-5.459-1.176c-1.101,1.796-0.384,3.775-0.55,5.665
	c-0.123,1.401-0.744,1.831-1.828,0.983c-3.376-2.643-7.208-4.678-10.288-7.712c5.053-9.288,9.559-18.821,12.806-28.907
	c0.808-2.512,1.554-5.045,2.26-7.588c0.936-3.372,0.911-3.395,4.173-2.574c31.736,7.979,63.471,15.961,95.206,23.946
	c8.102,2.037,16.199,4.091,24.306,6.114c0.928,0.232,1.893,0.31,2.84,0.46c5.971,1.594,11.919,3.287,17.927,4.723
	c1.854,0.442,2.146,0.924,1.669,2.783c-8.135,31.686-21.309,61.146-38.925,88.66C849.936,512.201,849.639,512.414,849.396,512.662z"
	/>
<path fill-rule="evenodd" clip-rule="evenodd" fill="#FEB231" d="M747.396,298.273c-1,0.286-1.167-0.479-1.395-1.129
	c-1.36-3.887-2.71-7.777-4.063-11.667c0.176-1.128,0.925-1.855,1.766-2.513c11.169-8.73,22.038-17.84,33.326-26.42
	c0.645-0.49,1.186-1.008,1.608-1.676c0.185-0.181,0.396-0.324,0.625-0.44c3.302-1.224,5.629-3.846,8.27-5.963
	c10.002-8.021,20.083-15.943,30.036-24.025c0.691-0.562,1.34-1.111,1.807-1.867c0.368-0.372,0.817-0.613,1.293-0.812
	c3.249-1.636,5.774-4.247,8.58-6.463c9.355-7.39,18.602-14.917,27.962-22.3c1.319-1.042,2.209-2.868,4.292-2.755
	c5.271,8.261,9.729,16.956,13.727,25.893c0.42,2.027-1.049,3.071-2.305,4.085c-5.531,4.462-11.069,8.917-16.646,13.323
	c-13.488,10.656-26.905,21.4-40.316,32.151c-6.64,5.322-13.292,10.629-20.021,15.838c-1.073,0.831-1.969,1.687-2.313,3.028
	c-2.804,2.165-6.296,2.593-9.521,3.603c-10.061,3.149-20.137,6.253-30.222,9.328C751.735,298.146,749.592,298.292,747.396,298.273z"
	/>
<path fill-rule="evenodd" clip-rule="evenodd" fill="#FE1300" d="M454.65,216.221c1.046-1.097,0.345-2.126-0.143-3.144
	c-4.334-9.037-8.653-18.081-13.022-27.101c-8.894-18.358-17.832-36.695-26.718-55.058c-2.68-5.538-5.272-11.118-7.843-16.707
	c-0.549-1.193-1.604-1.835-2.417-2.74c6.511-5.539,13.234-10.794,20.541-15.261c1.523-0.372,2.031,0.817,2.532,1.789
	c4.671,9.061,8.986,18.296,13.368,27.497c2.606,5.472,5.259,10.925,7.911,16.372c6.58,13.508,13.042,27.073,19.619,40.583
	c7.191,14.772,14.213,29.628,21.425,44.392c1.038,2.125,2.014,4.293,2.77,6.547c-0.233,3.058-2.76,4.375-4.732,6.059
	c-0.756,0.645-1.733,1.104-2.656,1.566c-1.356,1.694-2.425,1.668-4.116,0.05C472.417,232.692,463.506,224.485,454.65,216.221z"/>
<path fill-rule="evenodd" clip-rule="evenodd" fill="#FE6700" d="M499.59,59.179c11.361-4.141,22.993-7.29,34.879-9.504
	c1.225,0.372,1.749,1.393,2.252,2.432c8.767,18.098,17.56,36.184,26.179,54.353c2.56,5.397,5.264,10.723,7.809,16.129
	c3.141,6.67,6.55,13.217,9.398,20.023c0.446,1.065,1.562,1.398,2.069,2.338c0.985,2.785,0.672,5.732,0.889,8.582
	c0.623,8.204,1.26,16.409,1.826,24.619c0.302,4.364,0.596,8.733,0.985,13.089c-0.152,1.161-0.391,2.436-1.772,2.559
	c-1.303,0.117-2.31-0.795-2.977-1.857c-1.308-2.082-2.346-4.315-3.356-6.552c-3.43-7.588-7.218-15.005-10.821-22.511
	c-3.49-7.269-6.842-14.607-10.567-21.763c-0.791-1.52-0.828-3.446-2.448-4.518c-0.934-2.464-0.38-5.034-0.512-7.555
	c-0.086-1.66,0.049-3.325-0.487-4.955c-1.265-3.844-3.946-5.963-8.01-6.025c-6.234-0.094-12.469-0.022-18.704-0.031
	c-1.581-0.002-3.167,0.081-4.74-0.024c-1.666-0.111-3.846,0.664-4.657-1.449c-0.734-1.909,1.11-2.978,2.238-4.121
	c5.057-5.126,10.168-10.199,15.259-15.292c0.742-0.743,1.558-1.437,2.032-2.402c0.378-0.766,0.396-1.545-0.239-2.195
	c-0.638-0.652-1.444-0.688-2.182-0.263c-1.293,0.746-2.488,1.641-3.562,2.688c-2.01,1.964-3.973,3.975-5.976,5.945
	c-0.867,0.852-1.635,1.859-2.9,2.201c-1.738,0.193-2.527-0.99-3.18-2.277c-3.699-7.294-7.187-14.694-10.667-22.092
	c-2.583-5.492-5.518-10.81-7.948-16.375C499.218,61.276,498.763,60.276,499.59,59.179z"/>
<path fill-rule="evenodd" clip-rule="evenodd" fill="#FE2200" d="M492.402,233.659c-1.314-0.653-1.664-2.006-2.225-3.17
	c-6.295-13.068-12.544-26.159-18.845-39.224c-7.945-16.472-15.938-32.92-23.89-49.389c-6.881-14.251-13.73-28.517-20.609-42.769
	c-0.492-1.02-0.859-2.135-1.784-2.895c9.572-6.83,19.66-12.8,30.148-18.102c1.582,0.356,2.538,1.378,3.242,2.803
	c5.582,11.306,10.867,22.755,16.466,34.052c0.479,0.968,0.747,1.963,0.454,3.049c-0.234,0.806-0.845,1.303-1.443,1.83
	c-2.102,1.851-3.127,4.247-3.146,6.995c-0.085,12.733-0.145,25.468,0.021,38.199c0.071,5.479,3.668,8.907,9.158,9.251
	c1.391,0.087,2.819-0.13,4.158,0.448c1.581,1.371,2.1,3.355,2.984,5.142c2.992,6.043,5.885,12.134,8.849,18.189
	c3.427,7,6.584,14.131,10.199,21.041c0.448,0.856,0.853,1.732,0.913,2.721c0,1.151-0.637,1.968-1.469,2.645
	c-3.441,2.798-7.031,5.412-10.325,8.395C494.487,233.569,493.555,234.128,492.402,233.659z"/>
<path fill-rule="evenodd" clip-rule="evenodd" fill="#FE4400" d="M474.885,117.596c-5.377-11.125-10.754-22.249-16.13-33.373
	c-1.029-2.129-2.073-4.25-3.558-6.114c14.23-7.642,28.998-14.023,44.394-18.93c0.747,1.674,1.45,3.37,2.249,5.019
	c5.769,11.926,11.55,23.846,17.356,35.753c0.482,0.988,0.711,2.226,1.985,2.645c0.762,1.193-0.048,1.997-0.754,2.752
	c-1.919,2.053-3.875,4.078-5.971,5.951c-1.812,1.62-3.031,1.624-4.84-0.023c-2.468-2.247-4.745-4.694-7.123-7.037
	c-0.563-0.555-1.102-1.138-1.727-1.624c-0.902-0.702-1.921-1.087-2.851-0.183c-0.931,0.907-0.603,1.955,0.126,2.842
	c1.228,1.495,2.682,2.78,4.033,4.162c1.473,1.507,3.014,2.948,4.431,4.51c0.679,0.748,1.192,1.611,0.826,2.626
	c-0.421,1.17-1.498,1.382-2.597,1.406c-5.27,0.12-10.541,0.004-15.81,0.062c-4.039,0.044-8.081-0.187-12.115,0.162
	C476.077,118.266,475.407,118.176,474.885,117.596z"/>
<path fill-rule="evenodd" clip-rule="evenodd" fill="#FEB63A" d="M793.434,283.829c-0.923-1.81,0.862-2.346,1.684-3.027
	c4.391-3.646,8.931-7.11,13.395-10.669c11.879-9.47,23.74-18.96,35.615-28.436c9.129-7.285,18.262-14.566,27.406-21.832
	c1.386-1.101,2.68-2.272,3.695-3.731c5.104,10.125,8.999,20.737,12.615,31.457c2.226,6.596,2.167,6.576-4.547,8.659
	c-5.602,1.738-11.174,3.574-16.758,5.366c-0.631,1.179-1.726,1.695-2.932,2.059c-15.054,4.542-30.042,9.296-45.083,13.875
	c-7.228,2.201-14.413,4.533-21.676,6.618C795.699,284.498,794.462,285.031,793.434,283.829z"/>
<path fill-rule="evenodd" clip-rule="evenodd" fill="#FE7B00" d="M580.895,144.858c-2.637-2.402-3.548-5.819-5.071-8.848
	c-2.882-5.73-5.449-11.618-8.241-17.395c-6.393-13.222-12.858-26.408-19.263-39.624c-4.41-9.099-8.77-18.222-13.137-27.342
	c-0.3-0.628-0.478-1.316-0.712-1.976c7.638-2.018,15.459-3.018,23.262-4.083c4.52-0.617,9.082-0.912,13.601-1.526
	c1.845-0.251,2.518,0.285,2.643,2.101c0.436,6.303,0.968,12.599,1.463,18.897c0.107,1.063,0.215,2.127,0.322,3.191
	c1.561,1.512,1.397,3.6,1.515,5.44c0.521,8.139,1.093,16.276,1.811,24.395c1.02,11.53,1.42,23.099,2.419,34.629
	c0.257,2.965,0.571,5.938,0.616,8.92C582.142,142.83,582.3,144.168,580.895,144.858z"/>
<path fill-rule="evenodd" clip-rule="evenodd" fill="#FEA917" d="M861.502,190.242c-3.158,4.077-7.574,6.719-11.481,9.925
	c-8.315,6.823-16.783,13.459-25.195,20.164c-1.159,0.924-2.355,1.802-3.534,2.702c-0.881-1.212-2.179-1.356-3.528-1.403
	c-2.199-0.077-4.401,0.036-6.598-0.12c-1.742-0.123-2.813-0.894-2.774-2.794c0.036-1.78,1.094-2.463,2.702-2.59
	c0.613-0.048,1.237-0.137,1.845-0.067c3.087,0.352,5.864-0.543,8.504-2.037c0.583-0.972,0.395-2.049,0.396-3.089
	c0.02-9.042,0.081-18.085-0.013-27.127c-0.023-2.354,0.504-3.899,2.566-5.466c6.549-4.974,12.807-10.329,19.178-15.538
	C850.236,171.498,856.439,180.497,861.502,190.242z"/>
<path fill-rule="evenodd" clip-rule="evenodd" fill="#112939" d="M793.434,283.829c9.634-2.909,19.277-5.789,28.899-8.734
	c14.235-4.355,28.454-8.76,42.683-13.137c0.496-0.153,1.015-0.229,1.523-0.341c0.412,1.75,0.826,3.501,1.238,5.252
	c-6.779,1.53-13.319,3.881-19.952,5.908c-25.377,7.751-50.726,15.599-76.085,23.411c-2.183,0.672-4.489,1.087-6.526,2.064
	c-5.985,2.87-11.874,3.104-17.817,0.021c14.955-4.637,29.911-9.272,44.865-13.917C792.667,284.229,793.043,284.006,793.434,283.829z
	"/>
<path fill-rule="evenodd" clip-rule="evenodd" fill="#464140" d="M542.929,469.752c-2.554-0.472-4.712-1.798-6.845-3.175
	c-5.882-5.125-9.278-12.027-13.169-18.561c-1.342-2.254-2.72-4.508-3.745-6.942c-0.443-1.051-0.972-2.099-0.92-3.264
	c0.065-1.475,1.162-2.087,2.317-1.185c1.011,0.791,1.973,1.416,3.29,1.325c2.081,0.636,3.578,2.185,5.285,3.4
	c14.622,10.403,30.729,17.268,48.413,20.415c2.679,0.478,5.365,0.918,8.043,1.415c15.417,1.829,30.564,0.407,45.485-3.745
	c3.29-0.915,6.586-1.822,9.712-3.222c7.139-2.529,13.892-5.892,20.34-9.833c10.246-6.258,19.383-13.895,27.321-22.901
	c9.36-10.621,16.714-22.509,21.866-35.718c0.761-1.951,1.829-3.8,2.122-5.926c3.367-10.212,5.363-20.659,5.926-31.416
	c0.396-7.561,0.106-15.061-0.839-22.554c-0.1-0.787-0.166-1.571-0.507-2.297c-1.68-9.25-4.019-18.312-7.639-27.024
	c-5.474-13.175-12.915-25.081-22.699-35.496c-0.895-0.952-1.964-1.858-1.382-3.419c1.25-0.927,2.17-0.084,2.948,0.693
	c9.916,9.904,19.6,20.002,26.371,32.469c1.899,5.023,4.569,9.695,6.548,14.689c4.453,11.237,7.55,22.847,8.667,34.837
	c1.956,21.027-1.229,41.32-9.797,60.737c-7.152,16.206-17.394,30.19-30.581,41.851c-18.008,15.924-38.983,25.92-62.855,29.565
	c-8.823,1.348-17.751,1.603-26.577,0.933c-15.215-1.154-29.873-4.928-43.74-11.497c-3.012-1.426-5.91-3.109-9.076-4.197
	c-4.966-2.617-9.491-5.907-14.208-9.459c2.594,5.74,5.924,10.731,9.16,15.778C542.887,467.157,544.081,468.225,542.929,469.752z"/>
<path fill-rule="evenodd" clip-rule="evenodd" fill="#939599" d="M507.02,446.553c-14.04-12.162-24.68-26.887-32.71-43.555
	c-6.965-14.457-11.247-29.741-12.613-45.683c-3.143-36.69,6.332-69.867,29.251-98.817c20.879-26.374,48.112-42.748,81.013-49.631
	c12.11-2.534,24.434-2.852,36.709-2.105c14.928,0.908,29.334,4.497,43.167,10.216c9.316,3.853,18.024,8.835,26.272,14.625
	c-0.928,1.815-2.215,0.802-3.287,0.31c-4.157-1.907-8.187-4.073-12.385-5.908c-12.091-5.283-24.672-8.673-37.756-10.342
	c-8.057-1.027-16.153-1.366-24.213-0.879c-15.9,0.959-31.291,4.398-45.984,10.72c-11.133,4.791-21.351,11.103-30.977,18.412
	c-9.449,7.175-17.44,15.778-24.605,25.195c-13.636,17.922-21.993,38.123-25.964,60.196c-1.751,9.731-2.226,19.591-1.625,29.43
	c1.22,19.997,6.319,38.995,15.794,56.711c5.157,9.644,11.358,18.592,18.625,26.788C506.796,443.438,508.261,444.619,507.02,446.553z
	"/>
<path fill-rule="evenodd" clip-rule="evenodd" fill="#8E8E90" d="M507.02,446.553c-1.375-3.861-4.671-6.318-7.09-9.38
	c-7.131-9.025-13.131-18.716-17.852-29.154c-4.832-10.686-8.323-21.854-10.159-33.462c-1.802-11.387-2.387-22.822-1.441-34.37
	c0.989-12.091,3.54-23.809,7.614-35.168c5.136-14.322,12.337-27.563,22.012-39.383c3.726-4.551,7.352-9.211,11.669-13.219
	c9.166-8.508,19.135-15.904,30.094-22.028c13.359-7.465,27.577-12.278,42.586-14.946c11.302-2.01,22.645-2.264,34.098-1.51
	c10.873,0.715,21.397,2.914,31.736,6.118c8.674,2.689,16.862,6.58,24.929,10.726c0.879,0.452,1.698,1.378,2.894,0.828
	c5.542,3.678,10.735,7.777,15.278,12.66c-0.752,1.733-1.979,0.856-2.991,0.448c-2.604-1.049-5.012-2.512-7.537-3.736
	c-14.1-6.838-28.914-11.121-44.521-12.617c-2.183-0.208-4.39-1.638-6.547,0.094c-3.695,0.357-7.037-1.298-10.566-1.906
	c-7.808-1.344-15.669-2.488-23.568-2.263c-22.677,0.647-43.904,6.405-63.107,18.849c-19.426,12.588-34.459,29.07-44.313,50.089
	c-5.717,12.196-9.235,25.019-10.637,38.452c-1.78,17.043,0.18,33.635,5.399,49.897c0.243,0.757,0.457,1.516,0.501,2.313
	c-1.159,3.435,0.466,6.541,1.271,9.7c5.415,21.267,15.096,40.32,29.726,56.769c0.935,1.051,1.793,2.166,2.607,3.302
	c0.76,1.062,0.63,1.346-0.462,2.346C514.385,453.322,510.549,450.125,507.02,446.553z"/>
<path fill-rule="evenodd" clip-rule="evenodd" fill="#6D99A0" stroke="#6D99A0" stroke-miterlimit="10" d="M509.319,630.323
	c7.954,2.444,15.925,4.837,24.145,6.264c-1.314-3.576,0.685-6.701,1.527-9.915c2.643-10.085,5.52-20.11,8.394-30.135
	c0.63-2.198-0.035-2.767-2.188-2.688c-3.15,0.114-6.311-0.038-9.467-0.077c-0.892-1.367-2.324-1.068-3.593-1.08
	c-6.945-0.066-13.9,0.205-20.833-0.102c-6.237-0.275-11.46-2.603-13.921-8.983c-0.379-0.981-0.8-1.994-2.094-2.094
	c-0.633,1.696,0.096,3.468-0.402,5.222c-1.753,6.174-3.466,12.362-4.983,18.597c-1.224,5.03-3.363,9.835-3.725,15.075
	C490.981,624.382,500.102,627.492,509.319,630.323z M575.721,492.026c12.632,1.781,25.294,2.496,38.018,1.082
	c0.615-0.067,1.233-0.18,1.682,0.416c1.13,1.424,1.492,3.041,1.691,4.859c1.196,10.917,2.291,21.846,3.435,32.768
	c1.161,11.098,2.266,22.202,3.417,33.302c0.961,9.263,1.913,18.528,2.917,27.787c0.738,6.813,1.378,13.638,2.156,20.448
	c0.124,1.076,0.048,2.132-1.001,2.813c0.105,2.333,0.335,4.65,0.957,6.912c0.16,5.722,0.995,11.38,1.648,17.052
	c0.245,2.12-0.123,3.037-2.588,3.246c-14.131,1.206-28.256,1.663-42.438,0.976c-16.898-0.817-33.599-2.979-50.131-6.523
	c-0.683-0.147-1.347-0.383-2.02-0.577c-2.003-1.24-1.69-2.99-1.172-4.878c3.058-11.158,6.174-22.301,9.216-33.465
	c0.784-2.878,0.572-3.154-2.446-3.211c-1.579-0.03-3.16,0.034-4.737-0.054c-1.049-0.059-2.156-0.052-2.612-1.316
	c0.625-1.818,2.228-1.486,3.555-1.496c11.16-0.082,22.321-0.028,33.482-0.043c2.548-0.003,5.1,0.084,7.645-0.045
	c6.134-0.312,10.637-4.681,10.719-10.837c0.181-13.707,0.107-27.417,0.025-41.126c-0.017-2.722-0.572-3.286-3.376-3.729
	c-1.625-0.257-2.88-0.902-3.358-2.521c-1.724-5.824-5.467-9.255-11.583-9.95c-0.162-0.02-0.304-0.168-0.453-0.26
	c-0.995-0.866-1.029-1.98-0.728-3.134c2.426-9.312,4.986-18.589,7.659-27.834C575.37,492.445,575.571,492.243,575.721,492.026z
	 M417.938,580.551c-1.654,2.063-1.054,2.914,0.752,4.221c10.41,7.525,21.136,14.553,32.391,20.75
	c10.082,5.55,20.318,10.789,31.098,14.886c0.964-0.38,1.156-1.285,1.359-2.126c2.971-12.333,7.966-24.179,8.939-36.992
	c-0.185-11.686-0.044-23.373-0.078-35.062c-0.014-5.009-0.092-10.02,0.044-15.027c0.099-3.627,1.64-5.425,5.115-6.41
	c1.983-0.562,4.002-0.442,6.018-0.525c3.232-0.134,6.497,0.419,9.693-0.456c1.137-0.933,1.703-2.192,2.075-3.564
	c1.354-4.987,2.75-9.963,4.126-14.943c2.309-8.357,4.69-16.694,6.916-25.074c0.415-1.561,1.168-3.229-0.334-4.69
	c-5.859-3.543-11.895-6.825-17.286-11.077c-1.774-1.4-2.638-1.352-4.05,0.542c-16.406,21.986-32.899,43.909-49.398,65.826
	c-8.934,11.869-17.923,23.694-26.888,35.54C424.954,571.111,421.614,575.966,417.938,580.551z M516.335,524.229
	c2.72,0.12,5.443,0.057,8.166,0.056c13.172-0.002,26.345,0.037,39.517-0.037c1.495-0.009,3.247,0.458,4.285-1.266
	c2.328-8.629,4.677-17.253,6.965-25.893c0.435-1.642,1.456-3.275,0.452-5.063c-8.087-1.153-15.944-3.268-23.733-5.666
	c-8.994-2.771-17.477-6.768-25.935-10.824c-0.255,1.373-0.413,2.773-0.779,4.116c-3.95,14.448-7.933,28.888-11.906,43.33
	C513.993,524.258,515.213,524.18,516.335,524.229z"/>
<path fill-rule="evenodd" clip-rule="evenodd" fill="#FEA916" d="M779.085,255.228c-1.071,3.112-4.127,4.196-6.377,6.033
	c-9.436,7.703-19.012,15.236-28.551,22.814c-0.681,0.541-1.477,0.938-2.22,1.403c-4.358-10.188-9.756-19.817-15.758-29.115
	c13.01-10.316,26.018-20.635,39.036-30.939c0.79-0.625,1.233-1.462,1.707-2.298c0.741-1.19,1.838-1.267,2.999-0.853
	c1.344,0.478,1.771,1.599,1.817,2.925c0.188,5.359,0.048,10.72,0.086,16.079c0.022,3.075-0.05,6.151,0.029,9.226
	c0.072,2.85,0.591,3.315,3.396,3.559C776.597,254.177,778.137,253.763,779.085,255.228z"/>
<path fill-rule="evenodd" clip-rule="evenodd" fill="#132C3D" d="M580.895,144.858c0.413-4.358-0.464-8.63-0.822-12.939
	c-0.236-2.846-0.466-5.727-0.543-8.547c-0.269-9.832-1.408-19.589-2.006-29.389c-0.524-8.58-1.17-17.153-1.761-25.729
	c0.088,0.001,0.176,0.004,0.264,0.005c5.97,0.062,5.744,0.074,6.071,6.239c0.455,8.578,1.306,17.134,1.954,25.702
	c0.417,5.511,0.75,11.027,1.167,16.538c0.648,8.568,1.341,17.132,2.002,25.7c0.399,5.159,0.789,10.32,1.156,15.482
	c0.611,8.571,1.022,17.156,1.989,25.701c0.354,3.135,0.421,6.302,0.662,9.452c0.15,1.967-0.675,2.861-2.675,3.061
	c-12.38,1.233-24.49,3.778-36.228,7.93c-17.062,6.034-32.711,14.619-46.722,26.129c-3.124,2.566-6.276,5.096-9.059,8.04
	c-0.899,0.951-2.026,1.535-3.251,1.578c-2.66,0.097-5.194,0.879-7.807,1.204c2.372-2.452,4.744-4.904,7.117-7.355
	c4.772-3.854,9.544-7.708,14.316-11.561c0.04-1.206,0.854-1.844,1.75-2.456c10.903-7.463,22.465-13.628,35.037-17.801
	c0.77-0.255,1.345-0.822,2.099-1.073c11.38-4.034,23.131-6.393,35.091-7.816c0.814-0.097,1.561,0.122,2.301,0.423
	c1.868,0.759,2.236-0.031,1.737-1.699c-0.738-6.1-0.73-12.254-1.449-18.371c-0.348-2.96-0.537-6.041-0.633-9.08
	c-0.124-3.895-0.674-7.774-0.973-11.666c-0.133-1.735-0.125-3.482-0.139-5.225C581.531,146.443,581.488,145.586,580.895,144.858z"/>
<path fill-rule="evenodd" clip-rule="evenodd" fill="#201817" d="M713.544,292.775c-4.124-6.219-8.104-12.551-13.231-18.024
	c-4.848-5.171-9.213-10.823-14.913-15.157c-2.638-0.165-3.985-1.749-4.584-4.164c0.583-1.783,1.946-1.708,3.416-1.46
	c7.449,1.257,14.581,3.626,21.648,6.203c1.476,0.538,2.513,1.877,3.958,2.529c12.329,16.661,20.42,35.204,24.211,55.552
	c4.275,22.939,3.008,45.61-4.15,67.871c-2.041,6.345-4.604,12.499-7.438,18.535c-1.684-0.453-1.189-1.686-0.873-2.719
	c0.82-2.688,1.729-5.349,2.641-8.007c4.784-13.953,6.725-28.355,6.172-43.026c-0.617-16.422-4.104-32.234-11.248-47.165
	C717.377,300.029,715.479,296.396,713.544,292.775z"/>
<path fill-rule="evenodd" clip-rule="evenodd" fill="#12293A" d="M350.187,463.508c32.938-15.888,65.876-31.773,98.814-47.661
	c4.038-1.947,8.054-3.942,12.127-5.814c1.369-0.629,1.553-1.309,0.929-2.628c-6.43-13.603-10.652-27.878-12.827-42.758
	c-0.737-5.043-1.317-10.108-1.426-15.215c-0.025-1.131,0.124-2.298-0.407-3.374c-0.001-2.604-0.003-5.208-0.004-7.811
	c0.571-1.922-0.104-3.926,0.38-5.854c0.831-12.05,2.788-23.894,6.526-35.409c2.689,2.403,3.651,4.927,2.496,8.792
	c-3.123,10.453-4.534,21.226-5.361,32.134c-0.557,7.327-0.355,14.594,0.254,21.818c1.29,15.301,4.651,30.195,10.449,44.474
	c0.992,2.443,2.009,4.879,3.122,7.268c0.766,1.643,0.644,2.802-1.134,3.654c-8.559,4.105-17.093,8.262-25.643,12.386
	c-6.173,2.978-12.369,5.908-18.533,8.905c-14.388,6.996-28.759,14.026-43.146,21.025c-2.845,1.385-5.965,2.348-8.539,4.116
	c-4.883,3.355-10.229,3.075-15.655,2.86C351.7,464.381,350.883,464.107,350.187,463.508z"/>
<path fill-rule="evenodd" clip-rule="evenodd" fill="#2A2423" d="M713.544,292.775c4.415,5.995,7.294,12.792,9.971,19.649
	c4.172,10.691,6.533,21.787,7.577,33.253c1.78,19.568-1.486,38.294-8.354,56.537c-0.297,0.79-0.979,1.541-0.276,2.445
	c-4.933,10.367-11.291,19.821-18.679,28.567c-9.824,11.63-21.336,21.324-34.407,29.134c-3.609,2.155-7.199,4.382-11.203,5.789
	c-3.503,0.831-6.694,2.512-10.073,3.69c-10.254,3.579-20.707,5.694-31.634,6.03c-14.783,0.454-29.241-0.948-43.326-5.54
	c-8.453-2.756-16.56-6.323-24.239-10.819c-1.025-0.601-2.178-1.318-1.719-2.893c5.639,2.232,10.821,5.436,16.515,7.579
	c10.921,4.113,22.104,6.822,33.77,7.829c17.343,1.499,34.188-0.478,50.614-6.164c14.294-4.945,27.097-12.49,38.634-22.235
	c12.948-10.936,23.096-24.089,30.489-39.287c5.965-12.26,9.708-25.224,11.199-38.826c2.832-25.84-1.929-50.162-14.338-72.999
	C713.781,293.995,713.712,293.358,713.544,292.775z"/>
<path fill-rule="evenodd" clip-rule="evenodd" fill="#201817" d="M547.182,458.618c2.766,2.677,6.308,4.156,9.65,5.798
	c13.292,6.524,27.355,10.886,42.108,11.992c16.003,1.198,31.935,0.223,47.433-4.729c3.9-1.247,7.564-3.379,11.799-3.53
	c-14.56,7.227-29.984,11.54-46.121,13.075c-23.464,2.232-46.096-1.299-67.771-10.662c-0.478-0.207-0.902-0.538-1.352-0.811
	c-2.634-4.328-5.319-8.625-7.881-12.995c-1.329-2.267-2.454-4.653-3.641-7c-0.263-0.521-0.795-1.169-0.24-1.68
	c0.634-0.584,1.094,0.198,1.534,0.531C537.381,452.156,542.25,455.432,547.182,458.618z"/>
<path fill-rule="evenodd" clip-rule="evenodd" fill="#0C202E" d="M745.33,579.572c0.194,0.503,0.389,1.006,0.583,1.508
	c-0.852,0.444-1.736,0.835-2.547,1.344c-2.908,1.825-3.443,1.699-5.173-1.131c-6.418-10.504-12.872-20.985-19.28-31.494
	c-6.408-10.511-12.681-21.104-19.188-31.551c-7.996-12.838-15.981-25.677-23.207-38.975c-1.06-1.95-0.804-2.829,1.002-3.982
	c12.902-8.229,24.467-18.019,34.284-29.808c0.464-0.556,0.784-1.481,1.84-1.145c-8.665,10.887-18.785,20.227-30.079,28.323
	c-1.283,0.92-2.55,1.864-3.824,2.797c-2.345,0.747-0.956,1.94-0.302,2.946c8.132,12.532,16.289,25.048,24.431,37.573
	c13.313,20.482,26.619,40.97,39.935,61.451C744.281,578.164,744.82,578.858,745.33,579.572z"/>
<path fill-rule="evenodd" clip-rule="evenodd" fill="#132C3D" d="M628.035,615.502c-1.724-16.437-3.462-32.871-5.165-49.31
	c-1.493-14.429-2.942-28.861-4.42-43.292c-1.002-9.793-2.02-19.584-3.03-29.376c3.619,1.477,5.59,3.784,5.83,8.064
	c0.431,7.692,1.58,15.345,2.367,23.021c0.797,7.764,1.488,15.539,2.282,23.304c0.731,7.154,1.547,14.299,2.312,21.449
	c0.644,6.017,1.273,12.034,1.896,18.052c0.775,7.503,1.486,15.011,2.346,22.504c0.171,1.492,0.353,2.975,0.272,4.46
	c-0.063,1.191,0.619,2.775-1.376,3.199C629.544,617.96,628.539,617.151,628.035,615.502z"/>
<path fill-rule="evenodd" clip-rule="evenodd" fill="#807E7F" d="M518.641,456.002c0.344-2.426-1.844-3.417-3.03-4.769
	c-15.836-18.032-26.177-38.755-31.018-62.25c-0.344-1.668-0.237-3.322-0.22-4.988c1.704,0.104,1.986,1.58,2.464,2.724
	c3.686,8.828,8.021,17.3,13.38,25.243c1.502,2.228,3.681,4.042,4.332,6.816c-0.47,1.93,0.873,3.307,1.503,4.901
	c3.081,7.791,7.275,14.991,11.749,22.036c2.873,4.521,6.259,8.672,9.577,12.87c0.858,1.086,1.911,2.179,0.781,3.706
	C524.859,460.391,521.556,458.49,518.641,456.002z"/>
<path fill-rule="evenodd" clip-rule="evenodd" fill="#747171" d="M631.725,227.673c1.056-1.667,2.748-0.992,4.081-0.864
	c8.644,0.833,17.193,2.244,25.562,4.628c10.172,2.897,19.826,7.032,29.145,12.002c0.86,0.459,1.68,1.398,2.875,0.824
	c3.341,2.178,5.628,5.381,8.137,8.37c-1.058,1.171-2.263,0.755-3.368,0.193c-10.705-5.444-22.061-8.973-33.733-11.609
	c-1.062-0.24-2.049-0.399-3.085-0.056c-1.679,0.097-2.997-0.82-4.356-1.592c-6.703-3.808-13.729-6.867-21.071-9.227
	C634.33,229.835,632.343,229.771,631.725,227.673z"/>
<path fill-rule="evenodd" clip-rule="evenodd" fill="#666262" d="M528.161,462.293c-0.968-3.144-3.525-5.189-5.421-7.668
	c-7.735-10.107-14.079-20.986-18.72-32.844c-0.334-0.854-0.944-1.762-0.255-2.745c1.898-0.184,2.78,1.282,3.78,2.437
	c4.296,4.957,8.991,9.505,13.871,13.879c0.926,0.829,2.557,1.415,1.886,3.24c-0.314,1.138-0.826,0.784-1.456,0.24
	c-0.81-0.699-1.377-1.762-2.855-2.087c0.501,2.893,1.812,5.145,3.058,7.403c3.891,7.059,8.028,13.963,12.988,20.343
	c0.469,0.603,0.705,1.386,1.049,2.086C533.211,465.578,530.669,463.965,528.161,462.293z"/>
<path fill-rule="evenodd" clip-rule="evenodd" fill="#585353" d="M661.245,240.528c1.099-0.866,2.322-0.615,3.529-0.366
	c11.478,2.373,22.566,5.897,33.059,11.188c1.17,0.589,2.301,1.312,3.69,1.284c1.975,1.385,3.211,3.419,4.646,5.278
	c-1.245,1.345-2.639,0.7-3.884,0.136c-8.457-3.83-17.35-6.281-26.319-8.513c-0.807-0.201-1.556-0.197-2.334-0.007
	c-1.124,0.116-2.058-0.396-2.894-1.025c-2.581-1.939-5.184-3.837-7.951-5.51C661.915,242.464,660.979,241.835,661.245,240.528z"/>
<path fill-rule="evenodd" clip-rule="evenodd" fill="#3F3938" d="M673.414,248.947c1.013-0.789,2.17-0.633,3.276-0.385
	c8.733,1.96,17.299,4.457,25.483,8.136c1.282,0.577,2.564,1.136,3.996,1.214c1.223,1.596,2.445,3.192,3.668,4.788
	c-3.025-0.263-5.597-1.901-8.4-2.833c-5.812-1.93-11.666-3.632-17.678-4.8c-0.958-0.186-1.915-0.594-2.406,0.708
	c-0.073,0.045-0.149,0.133-0.221,0.128C678.787,255.74,673.846,251.28,673.414,248.947z"/>
<path fill-rule="evenodd" clip-rule="evenodd" fill="#1F191A" d="M333.147,382.603c0.92,2.64,1.673,5.354,2.809,7.898
	c1.033,2.311,0.564,3.964-1.585,5.685c-1.681-4.514-3.273-8.845-4.904-13.161c-2.783-7.362-5.588-14.715-8.385-22.072
	c-3.206-8.799-6.317-17.634-9.659-26.381c-1.577-4.128-4.583-7.475-6.909-11.195c-2.024-3.239-1.82-5.541,0.871-8.213
	c1.884-1.872,4.169-2.945,6.772-3.237c2.421-0.272,4.607,0.284,5.847,2.647c4.277,8.148,10.946,13.965,18.144,19.462
	c12.301,9.396,24.337,19.14,36.42,28.818c1.534,1.228,2.488,1.2,4.014-0.02c15.051-12.021,30.136-24.002,45.291-35.892
	c3.598-2.823,5.469-6.834,7.91-10.443c3.966-5.864,10.549-6.124,14.866-0.345c1.623,2.173,1.984,4.514,0.199,6.805
	c-6.307,8.093-9.643,17.599-12.952,27.118c-0.199,0.572-0.304,1.176-0.454,1.765c-3.509,9.276-7.027,18.549-10.522,27.831
	c-2.001,5.313-3.964,10.642-6.016,16.155c-2.236-1.637-2.627-3.197-1.638-5.571c1.991-4.779,3.618-9.709,5.396-14.577
	c-0.864-1.192-0.332-2.344,0.101-3.499c4.125-11.021,8.186-22.066,12.302-33.091c0.611-1.635,0.841-2.756-1.347-3.299
	c-1.887-0.469-3.495-1.654-4.907-2.997c-1.053-1.002-1.885-0.854-2.967,0.012c-13.496,10.806-27.068,21.517-40.625,32.246
	c-1.514,1.199-1.501,2.107,0.07,3.245c2.7,1.956,5.217,4.152,7.869,6.176c1.115,0.852,2.641,1.573,2.597,3.391
	c-1.11,3.261-1.517,3.397-4.046,1.418c-0.877-0.686-1.798-1.316-2.7-1.972c-1.177,0.326-1.998-0.323-2.86-0.976
	c-1.961-1.485-3.869-3.039-5.809-4.549c-1.33-1.035-2.272-1.146-3.645,0.009c-2.281,1.921-4.616,3.79-6.997,5.597
	c-0.863,0.655-1.688,1.295-2.863,0.964c-1.534,0.358-2.148,2.635-4.161,1.995c-2.151-1.196-2.294-2.856-0.202-4.637
	c2.471-2.104,5.021-4.12,7.612-6.078c3.948-2.984,3.905-2.93,0.014-6.018c-12.578-9.982-25.231-19.87-37.718-29.967
	c-2.569-2.077-2.554-2.095-5.207,0.04c-1.177,0.947-2.497,1.695-3.915,2.139c-1.716,0.538-1.9,1.449-1.304,2.986
	c2.953,7.614,5.667,15.316,8.563,22.953c2.209,5.829,4.37,11.676,6.478,17.543C333.393,380.417,333.735,381.474,333.147,382.603z"/>
<path fill-rule="evenodd" clip-rule="evenodd" fill="#8C3280" d="M447.772,332.393c0.021,1.961,0.241,3.935-0.38,5.854
	C447.353,336.285,446.938,334.299,447.772,332.393z"/>
<path fill-rule="evenodd" clip-rule="evenodd" fill="#A23682" d="M333.147,382.603c-4.606-12.25-9.212-24.499-13.818-36.748
	c-0.958-2.549-1.84-5.132-2.905-7.636c-0.772-1.814-0.731-2.84,1.575-3.219c2.4-0.393,4.528-1.652,5.925-3.654
	c1.074-1.54,1.821-1.29,3.057-0.295c6.922,5.569,13.892,11.079,20.85,16.604c7.301,5.798,14.581,11.625,21.934,17.358
	c1.603,1.249,1.784,1.971,0.017,3.267c-3.545,2.599-6.853,5.522-10.408,8.105c-1.724,1.251-2.109,2.35-0.699,3.965
	c-0.556,0.683-1.299,1.018-2.149,1.153c-0.938,0.221-1.678-0.271-2.439-0.678c-3.622-1.929-5.748-1.682-8.679,1.048
	c-0.632,0.588-1.165,1.318-2.176,1.209C339.924,381.768,336.475,383.465,333.147,382.603z"/>
<path fill-rule="evenodd" clip-rule="evenodd" fill="#A23682" d="M391.754,377.863c-4.229-3.293-8.41-6.651-12.711-9.847
	c-1.701-1.264-1.057-1.9,0.192-2.883c7.534-5.927,15.027-11.905,22.534-17.866c6.75-5.36,13.521-10.693,20.229-16.104
	c1.306-1.053,2.052-1.429,3.252,0.261c1.391,1.959,3.515,3.271,5.947,3.613c2.062,0.289,2.317,0.988,1.598,2.882
	c-4.775,12.562-9.436,25.169-14.134,37.76c-4.296,2.035-9.019,1.356-13.519,2.102c-1.035,0.171-2.114,0.04-2.708,1.159
	c-2.118,1.003-4.227,1.058-6.324-0.061C394.773,378.052,393.181,378.311,391.754,377.863z"/>
<path fill-rule="evenodd" clip-rule="evenodd" fill="#1F191A" d="M381.371,379.378c3.849,5.698,3.687,8.536-0.956,14.6
	c1.487,0.553,2.954,1.017,4.353,1.634c5.004,2.209,8.249,7.413,8.189,12.829c-0.017,1.582-0.572,2.15-2.174,2.143
	c-10.736-0.05-21.472-0.057-32.208,0.002c-1.895,0.01-2.151-0.895-2.082-2.463c0.278-6.238,3.734-10.996,9.671-13.154
	c0.903-0.329,1.828-0.597,3.033-0.987c-4.408-4.338-5.056-9.012-1.645-14.069c-0.012-0.263-0.06-0.54,0.05-0.781
	c1.303-2.847,3.963-3.297,6.593-3.428c2.634-0.132,5.304,0.113,6.999,2.656C381.39,378.655,381.396,379.023,381.371,379.378z"/>
<path fill-rule="evenodd" clip-rule="evenodd" fill="#1F191A" d="M396.112,378.879c2.114-0.692,4.221-0.599,6.324,0.061
	c4.76,3.855,5.315,6.449,2.235,11.704c-0.981,1.675,0.383,1.543,1.129,1.801c4.866,1.679,7.333,5.132,7.897,10.178
	c0.199,1.79-0.162,2.632-2.14,2.601c-4.838-0.079-9.678-0.066-14.516,0c-1.305,0.018-1.853-0.479-2.166-1.698
	c-0.806-3.15-2.458-5.836-4.958-7.92c-1.34-1.117-0.809-1.846,0.423-2.165c3.337-0.866,3.639-2.218,1.908-5.275
	C390.456,385.001,392.161,381.779,396.112,378.879z"/>
<path fill-rule="evenodd" clip-rule="evenodd" fill="#1F191A" d="M343.23,383.083c3.508-5.746,8.538-6.345,13.294-1.58
	c1.552,3.055,1.74,6.073-0.444,8.908c-0.919,1.192-0.467,1.67,0.711,2.018c0.42,0.125,0.836,0.273,1.238,0.446
	c2.809,1.215,2.832,1.317,0.601,3.532c-1.913,1.899-3.29,4.13-3.937,6.735c-0.375,1.516-1.052,2.13-2.692,2.091
	c-4.653-0.11-9.312-0.099-13.966-0.013c-1.92,0.035-2.436-0.756-2.271-2.545c0.456-4.943,2.813-8.464,7.569-10.065
	c1.882-0.635,2.127-1.154,0.84-2.75C342.576,387.88,342.581,385.479,343.23,383.083z"/>
<path fill-rule="evenodd" clip-rule="evenodd" fill="#A23682" d="M381.371,379.378c-5.413-3.658-8.604-3.534-13.819,0.535
	c-0.79,0-1.563,0.051-2.264,0.488c-0.846,0.527-1.912,0.967-2.678,0.341c-0.76-0.621,0.472-1.535,0.225-2.388
	c3.448-2.799,6.914-5.577,10.333-8.412c0.957-0.793,1.698-0.908,2.717-0.051c3,2.522,6.077,4.952,9.124,7.418
	C384.916,379.967,382.912,379.266,381.371,379.378z"/>
<path fill-rule="evenodd" clip-rule="evenodd" fill="#2E1C27" d="M389.769,390.136c-0.609,1.127-1.812,1.536-2.858,2.065
	c-0.644,0.326-1.344-0.043-1.167-0.85c0.212-0.971,0.302-2.23,1.71-2.322C388.328,388.972,389.219,389.086,389.769,390.136z"/>
<path fill-rule="evenodd" clip-rule="evenodd" fill="#2A1B24" d="M362.569,392.244c-0.939-0.565-2.438-0.861-2.724-2.034
	c-0.252-1.041,1.047-1.142,1.897-1.191c1.626-0.092,1.64,1.298,1.932,2.313C363.871,392.01,363.243,392.163,362.569,392.244z"/>
<path fill-rule="evenodd" clip-rule="evenodd" fill="#0D0D0D" d="M513.367,522.982c18.312,0,36.624,0,54.936,0
	c7.376,0.414,11.173,3.367,13.154,10.529c0.408,1.474,1.088,1.711,2.383,1.733c3.996,0.066,4.54,0.659,4.54,4.594
	c0.002,13.73,0.009,27.46,0,41.189c-0.004,7.154-5.127,12.256-12.324,12.294c-13.817,0.074-27.634,0.139-41.451,0.223
	c-0.959,0.007-1.917,0.149-2.875,0.228c-7.648,0.001-15.299-0.106-22.945,0.029c-8.976,0.161-15.373-3.954-17.496-12.288
	c-0.033-17.15-0.113-34.301-0.066-51.451c0.011-4.063,3.724-6.911,8.69-6.987C504.398,523.006,508.882,523.01,513.367,522.982z"/>
<path fill-rule="evenodd" clip-rule="evenodd" d="M740.523,425.36c30.179-0.002,60.356,0.011,90.534-0.044
	c1.87-0.004,2.595,0.345,2.575,2.423c-0.103,11.261-0.099,22.523,0.001,33.784c0.019,2.033-0.63,2.508-2.549,2.465
	c-4.299-0.096-4.302,0.004-4.302-4.388c0.003-8.271-0.052-16.541,0.047-24.81c0.023-2.016-0.487-2.696-2.625-2.689
	c-24.811,0.079-49.622,0.081-74.433,0.016c-2.197-0.006-2.882,0.698-2.38,2.739c-0.043,3.061-0.19,6.125-0.091,9.181
	c0.061,1.862-0.361,2.676-2.438,2.598c-5.388-0.202-4.381,0.525-4.422-4.473C740.396,436.562,740.49,430.961,740.523,425.36z"/>
<path fill-rule="evenodd" clip-rule="evenodd" d="M759.576,475.251c0,8.175-0.05,16.351,0.038,24.525
	c0.021,1.852-0.569,2.396-2.394,2.385c-10.285-0.071-20.57-0.063-30.855,0.001c-1.678,0.011-2.28-0.43-2.273-2.202
	c0.062-16.351,0.064-32.7,0.009-49.051c-0.006-1.703,0.442-2.267,2.199-2.254c10.284,0.076,20.569,0.097,30.854-0.007
	c2.08-0.021,2.472,0.734,2.451,2.604c-0.087,7.999-0.037,15.999-0.037,23.998C759.57,475.251,759.574,475.251,759.576,475.251z"/>
<path fill-rule="evenodd" clip-rule="evenodd" d="M799.671,476.064c4.822,0.041,9.645,0.153,14.464,0.082
	c1.831-0.027,2.537,0.537,2.384,2.393c-0.136,1.655-0.09,3.333-0.011,4.997c0.055,1.156-0.463,1.583-1.517,1.59
	c-6.158-0.029-12.318-0.021-18.476-0.117c-1.533-0.023-1.663,0.732-1.69,1.946c-0.028,1.316,0.343,1.893,1.772,1.875
	c5.104-0.061,10.208-0.03,15.313-0.011c1.087,0.005,2.359-0.343,2.414,1.522c0.062,2.06-1.347,1.67-2.513,1.671
	c-15.841,0.015-31.683,0.021-47.523,0.002c-1.113-0.002-2.581,0.515-2.594-1.584c-0.013-2.089,1.433-1.604,2.562-1.613
	c4.049-0.034,8.097-0.038,12.145,0.001c1.296,0.014,2.125-0.104,2.135-1.8c0.01-1.725-0.692-2.035-2.198-2.009
	c-4.224,0.075-8.45-0.025-12.673,0.054c-1.498,0.028-1.924-0.49-1.978-1.965c-0.252-6.905-0.296-6.886,6.575-6.904
	C778.733,476.166,789.202,476.109,799.671,476.064z"/>
<path fill-rule="evenodd" clip-rule="evenodd" d="M818.682,489.258c0.038-6.938,0.146-13.878,0.071-20.815
	c-0.021-1.953,0.514-2.569,2.512-2.531c6.499,0.123,13.005,0.138,19.504-0.005c2.157-0.046,2.821,0.494,2.796,2.728
	c-0.119,10.368-0.05,20.737-0.049,31.104c0,3.694,0,3.694-3.698,3.874c-5.979-0.031-11.965-0.218-17.938-0.021
	c-2.668,0.087-3.243-0.8-3.126-3.262C818.93,496.648,818.725,492.95,818.682,489.258z"/>
<path fill-rule="evenodd" clip-rule="evenodd" d="M779.085,255.228c-2.104-0.051-4.213-0.226-6.308-0.117
	c-1.784,0.092-2.185-0.584-2.169-2.268c0.077-8.785,0.033-17.571,0.032-26.356c0-3.548,0-3.548-3.718-3.362
	c-11.435-0.03-22.87-0.06-34.304-0.089c-0.615-0.001-1.231,0.009-1.848-0.004c-0.683-0.015-1.42,0.139-1.434-0.986
	c-0.011-1.029,0.388-1.406,1.388-1.397c2.903,0.026,5.808-0.04,8.71,0.022c1.302,0.028,1.917-0.317,1.922-1.76
	c0.004-1.377-0.446-1.877-1.827-1.813c-1.931,0.089-3.871,0.064-5.806,0.01c-3.051-0.085-4.363-1.362-4.368-4.353
	c-0.023-14.604-0.026-29.208-0.006-43.812c0.004-3.139,1.33-4.421,4.523-4.468c2.812-0.041,5.625-0.009,8.64-0.009
	c-0.791-2.197-1.526-4.057-4.333-3.671c-0.607,0.083-1.908,0.55-1.831-0.685c0.067-1.073-0.039-2.747,1.646-2.864
	c2.276-0.158,4.572-0.09,6.858-0.028c1.802,0.048,1.661,1.755,1.81,2.766c0.227,1.54-1.243,0.578-1.917,0.848
	c-0.291,0.117-0.63,0.116-1.073,0.188c0.694,2.332,1.682,3.589,4.397,3.518c7.912-0.206,15.834-0.074,23.752-0.069
	c1.226,0.001,2.421,0.273,2.398-1.751c-0.021-1.854-0.952-1.877-2.318-1.926c-0.785-0.028-2.287,0.711-2.249-0.786
	c0.034-1.354,0.279-3.037,2.544-2.852c2.098,0.172,4.231,0.174,6.328,0c2.266-0.188,2.514,1.497,2.555,2.848
	c0.045,1.5-1.46,0.755-2.245,0.79c-1.348,0.06-2.386,0.032-2.321,1.916c0.049,1.404,0.499,1.79,1.847,1.783
	c8.445-0.046,16.892-0.095,25.336,0.027c2.204,0.031,2.438-1.627,3.221-2.869c0.307-0.485-0.1-0.771-0.632-0.799
	c-0.768-0.042-1.536-0.101-2.29-0.151c0.019-2.834,1.282-3.931,3.966-3.533c1.205,0.179,2.474,0.152,3.688,0.002
	c1.725-0.214,2.287,0.717,2.678,2.141c0.336,1.227-0.09,1.73-1.236,1.503c-2.759-0.546-3.981,1.021-4.856,3.531
	c0.96,0.044,1.865,0.131,2.77,0.12c11.295-0.138,10.405-0.276,10.39,10.503c-0.018,13.02,0.029,26.039,0.048,39.058
	c-0.7,2.25-2.303,3.143-4.574,3.103c-1.922-0.033-3.847,0.043-5.768-0.021c-1.199-0.041-1.747,0.317-1.72,1.62
	c0.026,1.226,0.208,1.99,1.707,1.945c2.706-0.082,5.423,0.086,8.125-0.057c1.945-0.103,2.538,0.622,2.079,2.42
	c-0.516,0.031-1.031,0.063-1.548,0.095c-1.394,1.182-3.085,1.117-4.752,1.12c-9.648,0.019-19.297-0.009-28.946,0.014
	c-4.325,0.011-4.685,0.366-4.701,4.621c-0.031,7.368,0.023,14.736-0.03,22.104c-0.012,1.667,0.06,3.411-1.884,4.237l-0.174-0.087
	L779.085,255.228z"/>
<path fill-rule="evenodd" clip-rule="evenodd" fill="#FEA916" d="M779.43,255.223c1.028-0.686,0.638-1.749,0.641-2.659
	c0.028-8.968,0.066-17.938-0.019-26.907c-0.018-1.912,0.276-2.705,2.503-2.677c12.395,0.153,24.792,0.118,37.188,0.147
	c-1.746,3.593-5.342,5.244-8.208,7.603c-9.286,7.638-18.749,15.06-28.135,22.578C782.215,254.258,780.98,255.058,779.43,255.223z"/>
<path fill-rule="evenodd" clip-rule="evenodd" fill="#0C0C0C" d="M474.885,117.596c2.006-0.752,4.083-0.92,6.215-0.911
	c8.513,0.039,17.026,0.016,25.524,0.016c0.383-1.042-0.457-1.342-0.886-1.781c-2.831-2.888-5.701-5.737-8.557-8.601
	c-1.492-1.496-1.978-3.152-0.516-4.906c1.256-1.506,3.316-1.368,5.078,0.351c3.021,2.945,6.022,5.914,8.938,8.962
	c1.022,1.067,1.683,1.189,2.709,0.028c2.488-2.819,5.521-5.124,7.789-8.158c3.603-3.596,6.999-7.395,10.935-10.658
	c1.701-1.41,3.308-2.092,5.104-0.376c1.48,1.415,1.196,3.256-0.804,5.27c-5.955,5.996-11.941,11.96-17.896,17.955
	c-0.459,0.462-1.193,0.783-1.134,1.905c2.868,0,5.736-0.001,8.604,0c6.162,0.004,12.324-0.037,18.484,0.03
	c6.014,0.065,9.981,4.132,10.065,10.191c0.044,3.167,0.069,6.333,0.104,9.5c1.043,1.633,1.126,3.476,1.129,5.325
	c0.011,7.631-0.135,15.266,0.041,22.893c0.158,6.84-5.277,12.339-12.031,12.097c-4.022-0.145-8.056-0.046-12.084-0.092
	c-14.578,0.161-29.156,0.069-43.733,0.054c-1.314-0.001-2.667,0.032-3.64-1.12c-1.755-0.037-3.511-0.04-5.264-0.117
	c-5.229-0.23-9.409-4.241-9.45-9.471c-0.104-13.267-0.064-26.534-0.013-39.801C469.61,122.311,471.797,119.643,474.885,117.596z"/>
<path fill-rule="evenodd" clip-rule="evenodd" fill="#FE5E00" d="M531.867,175.57c4.132-0.032,8.266-0.051,12.398-0.098
	c6.141-0.071,10.23-4.146,10.27-10.299c0.061-9.586,0.073-19.173,0.105-28.76c1.042,0.307,1.49,1.195,1.908,2.057
	c7.009,14.451,14.006,28.908,20.998,43.368c1.566,3.238,3.064,6.509,4.68,9.722c0.366,0.728,0.887,1.661,1.947,1.464
	c0.601-0.111,0.467-0.85,0.559-1.348c0.443,1.201,0.684,2.177-1.189,2.321c-12.806,0.986-25.247,3.736-37.393,7.875
	c-0.16,0.054-0.347,0.027-0.522,0.038c-1.921,0.549-2.919-0.536-3.63-2.081c-3.152-6.841-6.642-13.521-9.759-20.378
	C531.679,178.217,530.692,176.986,531.867,175.57z"/>
<path fill-rule="evenodd" clip-rule="evenodd" fill="#FE2D00" d="M531.867,175.57c3.145,6.624,6.295,13.244,9.431,19.873
	c0.671,1.419,1.285,2.866,1.925,4.301c0.48,1.08,1.11,1.993,2.406,2.167c-8.633,3.454-17.259,6.94-25.277,11.707
	c-4.6,2.734-9.093,5.648-13.634,8.481c-2.748-3.678-4.375-7.962-6.388-12.025c-4.743-9.574-9.319-19.23-13.937-28.865
	c-0.866-1.808-1.811-3.601-2.071-5.637C500.17,175.57,516.019,175.57,531.867,175.57z"/>
<path fill-rule="evenodd" clip-rule="evenodd" fill="#F2F2F2" d="M673.414,248.947c2.646,2.276,5.293,4.552,7.939,6.829
	c1.35,1.272,2.697,2.546,4.046,3.818c5.881,6.625,11.53,13.417,16.182,21.002c7.97,12.993,13.283,26.98,16.06,41.948
	c0.143,0.772,0.154,1.569,0.227,2.355c-0.543,6.406,0.862,12.727,0.768,19.131c-0.188,12.913-2.066,25.512-6.183,37.763
	c-0.169,0.503-0.258,1.022-0.348,1.537c-3.731,9.969-8.301,19.527-14.403,28.28c-12.65,18.14-28.804,32.147-49.027,41.325
	c-2.232,1.014-4.421,2.121-6.763,2.886c-15.573,6.11-31.748,8.61-48.421,8.065c-1.831-0.061-3.678-0.136-5.494-0.408
	c-1.012-0.151-1.909,0.012-2.788,0.466c-14.867-1.301-28.757-5.86-42-12.584c-7.066-3.588-13.57-8.046-19.907-12.769
	c-7.049-5.982-13.559-12.504-19.537-19.556c-3.283-5.035-6.97-9.796-9.941-15.046c-3.644-6.438-6.611-13.183-9.45-19.995
	c-1.071-3.939-2.244-7.854-3.192-11.823c-1.7-7.118-2.708-14.323-3.204-21.651c-0.923-13.636,0.771-26.971,4.45-40.002
	c3.62-12.826,9.191-24.896,17.074-35.701c20.365-27.917,47.43-45.089,81.791-50.322c16.135-2.457,32.085-1.445,47.864,2.638
	c0.846,0.219,1.712,0.361,2.568,0.539c10.368,3.074,20.202,7.374,29.521,12.855C665.302,243.334,669.357,246.141,673.414,248.947z"
	/>
<path fill-rule="evenodd" clip-rule="evenodd" fill="#B7B7B7" d="M642.218,454.852c7.084-3.278,14.175-6.505,20.743-10.812
	c22.26-14.6,38.025-34.36,47.499-59.196c0.155-0.409,0.345-0.804,0.518-1.206c0.539-0.687,0.812-1.911,2.117-1.05
	c-2.333,8.246-6.099,15.86-10.495,23.155c-14.007,23.235-33.562,40.057-58.668,50.391c-0.725,0.298-1.481,0.521-2.222,0.777
	C640.914,455.986,641.556,455.417,642.218,454.852z"/>
<path fill-rule="evenodd" clip-rule="evenodd" fill="#CACACA" d="M642.218,454.852c-0.169,0.687-0.339,1.372-0.508,2.059
	c-16.103,6.257-32.794,8.778-50.017,7.76c-2.16-0.127-4.396,0.13-6.485-0.726c0.035-1.537,1.073-1.597,2.21-1.491
	c18.408,1.723,36.245-0.72,53.519-7.309C641.342,454.989,641.789,454.947,642.218,454.852z"/>
<path fill-rule="evenodd" clip-rule="evenodd" fill="#CFCECE" d="M713.095,382.587c-0.867,0.023-1.455,0.61-2.117,1.05
	c2.263-7.655,4.447-15.324,5.517-23.266c1.314-9.768,1.744-19.543,0.447-29.343c-0.285-2.157-0.13-4.199,0.926-6.129
	c1.055,3.192,1.145,6.544,1.364,9.832c1.07,15.987-0.604,31.669-5.692,46.922C713.432,381.979,713.245,382.277,713.095,382.587z"/>
<path fill-rule="evenodd" clip-rule="evenodd" fill="#AD3983" d="M315.947,332.041c-0.825-0.069-1.602,0.009-1.981-0.737
	c-0.377-0.743,0.093-1.391,0.512-1.905c1.571-1.93,3.584-3.071,6.134-2.96c1.611,0.071,2.027,1.006,1.166,2.287
	C320.375,330.812,318.301,331.83,315.947,332.041z"/>
<path fill-rule="evenodd" clip-rule="evenodd" fill="#AA3882" d="M433.248,332.033c-2.481-0.189-4.322-1.247-5.737-3.043
	c-0.425-0.54-0.83-1.18-0.412-1.917c0.419-0.738,1.194-0.676,1.865-0.639c2.196,0.12,4.001,1.088,5.468,2.706
	c0.542,0.596,1.032,1.254,0.69,2.105C434.74,332.199,433.807,331.872,433.248,332.033z"/>
<path fill-rule="evenodd" clip-rule="evenodd" fill="#7B9C9D" d="M518.952,587.496c3.537-5.197,2.977-10.882,2.978-16.479
	c0.003-9.231,0.042-18.465-0.034-27.697c-0.015-1.774,0.403-2.441,2.319-2.435c18.64,0.073,37.281,0.078,55.922,0.023
	c1.849-0.005,2.376,0.547,2.366,2.383c-0.073,12.31-0.011,24.619-0.049,36.929c-0.015,4.948-2.422,7.425-7.205,7.434
	c-18.025,0.035-36.05,0.027-54.076,0.027C520.579,587.681,519.984,587.586,518.952,587.496z"/>
<path fill-rule="evenodd" clip-rule="evenodd" fill="#8AA29B" d="M540.394,528.899c9.502,0,19.004-0.019,28.505,0.009
	c3.389,0.01,5.68,1.677,6.441,4.396c0.285,1.017,0.166,1.514-0.986,1.468c-0.614-0.025-1.231,0-1.847,0
	c-17.332,0.014-34.665,0.02-51.997,0.039c-3.971,0.005-4.553,0.593-4.558,4.618c-0.014,12.229-0.016,24.458-0.006,36.688
	c0.001,1.414-0.087,2.802-0.447,4.18c-1.392,5.318-5.037,7.831-10.597,7.262c-4.64-0.475-7.796-4.104-7.944-9.302
	c-0.095-3.34-0.025-6.686-0.026-10.028c-0.002-11.701,0.001-23.402-0.011-35.104c-0.002-1.541,0.036-3.005,1.701-3.812
	c2.455-1.19,4.805,0.257,4.826,3.134c0.051,6.774,0.011,13.549,0.008,20.324c-0.003,7.918,0,15.836-0.014,23.754
	c-0.002,1.473,0.168,2.859,1.673,3.582c2.25,1.081,4.412-0.347,4.451-3.032c0.066-4.574,0.019-9.149,0.02-13.725
	c0.001-10.117-0.039-20.235,0.055-30.353c0.013-1.344-1.176-3.076-0.02-3.876c0.967-0.669,2.713-0.246,4.115-0.248
	c8.886-0.01,17.771-0.005,26.657-0.005C540.394,528.878,540.394,528.888,540.394,528.899z"/>
<path fill-rule="evenodd" clip-rule="evenodd" fill="#00B370" d="M729.124,473.572c0-5.624,0.073-11.25-0.04-16.874
	c-0.042-2.067,0.396-2.926,2.727-2.867c6.676,0.167,13.359,0.118,20.037,0.02c1.873-0.027,2.613,0.374,2.597,2.442
	c-0.099,11.513-0.102,23.027-0.008,34.541c0.017,2.058-0.715,2.509-2.594,2.484c-6.766-0.089-13.534-0.084-20.302-0.003
	c-1.773,0.021-2.454-0.407-2.409-2.341c0.131-5.799,0.047-11.602,0.047-17.402C729.16,473.572,729.142,473.572,729.124,473.572z"/>
<path fill-rule="evenodd" clip-rule="evenodd" fill="#00AB65" d="M742.73,499.34c-1.233-0.076-1.807-0.655-1.787-1.669
	c0.018-0.893,0.598-1.461,1.477-1.52c1.018-0.067,1.658,0.505,1.722,1.523C744.208,498.746,743.493,499.179,742.73,499.34z"/>
<path fill-rule="evenodd" clip-rule="evenodd" fill="#00AF86" d="M822.472,484.475c-0.002-3.519,0.051-7.038-0.026-10.556
	c-0.033-1.49,0.261-2.257,2-2.219c4.572,0.1,9.148,0.082,13.722,0.007c1.516-0.024,1.968,0.539,1.958,2
	c-0.052,7.3-0.058,14.601,0.002,21.901c0.014,1.538-0.589,1.97-2.022,1.954c-4.573-0.049-9.149-0.048-13.721,0.021
	c-1.515,0.022-1.969-0.563-1.938-2.026C822.527,491.864,822.474,488.169,822.472,484.475z"/>
<path fill-rule="evenodd" clip-rule="evenodd" fill="#008E65" d="M832.757,500.641c-0.173,0.729-0.516,1.225-1.225,1.204
	c-0.683-0.019-1.17-0.475-1.163-1.138c0.008-0.756,0.463-1.326,1.304-1.239C832.351,499.538,832.651,500.075,832.757,500.641z"/>
<path fill-rule="evenodd" clip-rule="evenodd" fill="#FE9C00" d="M775.279,170.53c12.058,0,24.115-0.007,36.173,0.004
	c3.531,0.003,4.028,0.494,4.032,3.931c0.009,10.914,0.011,21.827,0,32.741c-0.002,3.27-0.551,3.82-3.854,3.821
	c-24.204,0.005-48.407,0.004-72.61-0.009c-3.301-0.001-3.766-0.5-3.768-3.899c-0.008-10.915-0.008-21.828,0.003-32.742
	c0.004-3.291,0.529-3.827,3.852-3.831c12.058-0.014,24.115-0.005,36.173-0.005C775.279,170.537,775.279,170.533,775.279,170.53z"/>
<path fill-rule="evenodd" clip-rule="evenodd" fill="#FEA915" d="M793.806,220.642c-3.962-0.001-7.924-0.04-11.884,0.019
	c-1.293,0.019-1.902-0.27-1.874-1.736c0.026-1.314,0.305-1.852,1.756-1.84c8.01,0.063,16.021,0.06,24.032,0
	c1.439-0.01,1.74,0.522,1.764,1.848c0.026,1.495-0.648,1.744-1.909,1.729C801.729,220.614,797.768,220.644,793.806,220.642z"/>
<path fill-rule="evenodd" clip-rule="evenodd" fill="#F89E00" d="M756.888,220.651c-3.947,0-7.896-0.058-11.843,0.028
	c-1.529,0.033-1.897-0.537-1.918-1.986c-0.023-1.621,0.857-1.599,1.994-1.597c7.896,0.016,15.792,0.025,23.688-0.016
	c1.259-0.007,1.89,0.204,1.892,1.694c0.002,1.519-0.505,1.943-1.969,1.912c-3.946-0.083-7.896-0.028-11.844-0.028
	C756.888,220.657,756.888,220.654,756.888,220.651z"/>
<path fill-rule="evenodd" clip-rule="evenodd" fill="#FE2D00" d="M520.841,168.142c-1.031,0.179-2.056,0.462-3.094,0.521
	c-9.218,0.523-18.439,0.532-27.655-0.031c-1.828-0.111-3.661-0.465-5.447-0.894c-3.838-0.923-6.443-3.321-7.253-7.195
	c-2-9.567-1.978-19.189-0.053-28.763c0.849-4.219,3.732-6.646,7.878-7.558c5.977-1.315,12.04-1.13,18.099-0.961
	c-0.267,1.949-1.845,1.51-3.043,1.59c-3.346,0.224-3.535,0.422-2.098,3.28c5.719,11.378,11.048,22.944,16.641,34.384
	c1.114,2.277,2.24,4.409,5.128,4.735C520.373,167.298,520.682,167.701,520.841,168.142z"/>
<path fill-rule="evenodd" clip-rule="evenodd" fill="#FE5000" d="M520.841,168.142c-3.439,0.481-5.305-1.326-6.703-4.247
	c-5.803-12.124-11.723-24.191-17.571-36.293c-1.671-3.457-1.4-3.81,2.363-3.88c1.467-0.027,2.999,0.375,4.387-0.461
	c5.718-0.182,11.439-0.292,17.124,0.495c6.623,0.918,9.555,3.625,10.513,10.232c1.206,8.312,1.265,16.683-0.182,24.974
	C529.744,164.845,526.67,167.478,520.841,168.142z"/>
<path fill-rule="evenodd" clip-rule="evenodd" fill="#FD5500" d="M548.242,150.897c0.042,2.792-2.127,5.08-4.907,5.177
	c-2.929,0.102-5.274-2.116-5.312-5.023c-0.037-2.814,2.103-5.078,4.891-5.177C545.819,145.771,548.2,148.016,548.242,150.897z"/>
<path fill-rule="evenodd" clip-rule="evenodd" fill="#FD5B00" d="M543.074,142.987c-2.917-0.024-5.15-2.358-5.057-5.286
	c0.088-2.762,2.401-4.981,5.155-4.949c2.743,0.033,5.032,2.311,5.077,5.052C548.296,140.695,545.984,143.011,543.074,142.987z"/>
<path fill-rule="evenodd" clip-rule="evenodd" fill="#FE6528" d="M508.2,332.977c-1.262,6.374-2.6,12.734-3.734,19.13
	c-0.311,1.752-1.125,2.294-2.641,1.988c-1.557-0.315-3.777,1.226-4.403-1.815c-1.929-9.379-3.97-18.737-6.068-28.08
	c-0.414-1.843,0.301-2.04,1.83-2.065c4.832-0.08,4.834-0.127,5.571,4.656c0.829,5.375,1.652,10.75,2.924,16.158
	c1.065-5.605,2.153-11.205,3.186-16.816c0.718-3.898,2.356-4.923,6.256-3.953c1.199,0.298,1.126,1.183,1.273,2.011
	c1.108,6.202,2.204,12.405,3.8,18.649c0.792-4.436,1.582-8.871,2.375-13.306c0.34-1.903,0.627-3.818,1.041-5.706
	c0.708-3.24,3.275-1.435,4.925-1.527c1.903-0.107,0.796,1.543,0.626,2.354c-1.878,9.032-3.882,18.038-5.71,27.08
	c-0.362,1.792-0.933,2.494-2.861,2.432c-3.877-0.124-3.906,0.003-4.643-3.779c-1.124-5.769-2.208-11.546-3.309-17.32
	C508.492,333.039,508.346,333.008,508.2,332.977z"/>
<path fill-rule="evenodd" clip-rule="evenodd" fill="#FE6528" d="M555.044,388.711c-0.002-4.566,0.052-9.133-0.033-13.698
	c-0.029-1.55,0.344-2.229,2.037-2.139c2.978,0.158,5.979-0.03,8.947,0.204c5.513,0.435,8.853,3.302,10.271,8.649
	c1.265,4.769,1.181,9.569-0.201,14.289c-1.666,5.687-5.069,8.327-11.118,8.673c-2.713,0.155-5.445-0.026-8.164,0.078
	c-1.43,0.056-1.777-0.503-1.76-1.83C555.084,398.195,555.047,393.453,555.044,388.711z"/>
<path fill-rule="evenodd" clip-rule="evenodd" fill="#FE6528" d="M528.61,338.142c0-4.574,0.06-9.149-0.031-13.722
	c-0.033-1.655,0.389-2.29,2.178-2.292c4.811-0.008,4.811-0.095,4.809,4.622c0,0.968,0,1.936,0,2.902c0,5.569,1.083,6.403,6.62,5.388
	c1.38-0.253,1.108-1.136,1.117-1.946c0.031-2.99,0.072-5.983-0.013-8.971c-0.042-1.487,0.489-1.935,1.967-1.98
	c4.967-0.15,4.963-0.208,4.961,4.789c-0.004,8.268-0.059,16.538,0.032,24.805c0.021,1.864-0.555,2.374-2.381,2.349
	c-4.544-0.063-4.545,0.025-4.549-4.614c-0.001-2.287-0.037-4.575,0.006-6.861c0.022-1.207-0.412-1.644-1.676-1.732
	c-6.087-0.423-6.084-0.464-6.084,5.703c0,0.88,0,1.759,0,2.639c-0.002,5.016-0.001,4.951-5.045,4.863
	c-1.506-0.027-1.954-0.476-1.928-1.956c0.08-4.661,0.029-9.324,0.029-13.986C528.616,338.142,528.613,338.142,528.61,338.142z"/>
<path fill-rule="evenodd" clip-rule="evenodd" fill="#FE6528" d="M674.754,350.641c-6.334,7.183-16.083,3.609-18.385-4.485
	c-1.638-5.755-1.597-11.495,0.529-17.088c2.287-6.017,7.903-8.738,14.099-7.085c3.94,1.053,7.079,5.022,7.3,9.097
	c0.054,0.973-0.168,1.513-1.156,1.648c-0.958,0.131-1.957,0.147-2.859,0.448c-1.454,0.486-2.014,0.011-2.306-1.431
	c-0.475-2.342-1.362-4.492-4.265-4.56c-2.289-0.054-4.065,1.795-4.669,4.933c-0.771,4.005-0.805,8.045-0.013,12.058
	c0.275,1.387,0.809,2.713,1.961,3.654c1.602,1.306,3.402,1.55,5.138,0.468c1.841-1.147,2.164-3.158,2.109-5.12
	c-0.033-1.196-1.25-0.847-1.887-0.734c-2.783,0.495-2.759-1.095-2.862-3.169c-0.119-2.391,1.207-2.3,2.768-2.186
	c2.684,0.198,6.162-1.168,7.836,0.594c1.539,1.622,0.354,5.038,0.431,7.662c0.062,2.111,0.072,4.227-0.017,6.336
	c-0.037,0.888,0.627,2.168-1.185,2.375c-1.607,0.184-1.898-0.751-2.151-1.914C675.077,351.723,674.941,351.312,674.754,350.641z"/>
<path fill-rule="evenodd" clip-rule="evenodd" fill="#FE6528" d="M580.316,388.419c-0.055-2.756,0.167-5.812,1.196-8.761
	c1.649-4.729,4.785-7.111,9.562-7.268c5.294-0.175,8.779,1.807,10.536,6.596c2.444,6.665,2.382,13.473-0.146,20.109
	c-1.573,4.134-4.986,6.023-9.304,6.141c-4.284,0.116-7.684-1.532-9.748-5.477C580.603,396.301,580.288,392.562,580.316,388.419z"/>
<path fill-rule="evenodd" clip-rule="evenodd" fill="#FE6528" d="M617.248,321.665c4.096,0.036,7.337,1.5,9.215,5.382
	c0.596,1.235,0.771,2.136-0.902,2.53c-0.763,0.181-1.521,0.465-2.22,0.821c-1.218,0.62-2.046,0.637-2.67-0.86
	c-0.664-1.595-2.072-2.371-3.807-2.349c-1.546,0.021-2.732,0.685-3.142,2.288c-0.376,1.478,0.178,2.664,1.501,3.312
	c1.969,0.966,4.017,1.767,6.023,2.657c4.889,2.167,7.056,5.497,6.509,9.98c-0.604,4.955-3.654,8.006-8.944,8.945
	c-5.73,1.018-10.569-1.626-12.61-6.721c-0.58-1.447-0.344-2.091,1.16-2.377c0.772-0.147,1.528-0.412,2.27-0.685
	c1.229-0.453,2.054-0.403,2.538,1.122c0.531,1.672,1.749,2.848,3.603,3.09c2.16,0.283,4.164,0.002,4.949-2.398
	c0.78-2.383-0.775-3.591-2.668-4.437c-1.522-0.681-3.113-1.209-4.649-1.864c-5.054-2.154-7.309-6.025-6.312-10.781
	C608.142,324.3,611.709,321.613,617.248,321.665z"/>
<path fill-rule="evenodd" clip-rule="evenodd" fill="#FE6528" d="M640.904,372.387c4.2,0.011,7.503,1.498,9.384,5.518
	c0.567,1.212,0.555,1.943-0.88,2.33c-0.845,0.227-1.692,0.515-2.462,0.922c-1.188,0.627-1.892,0.427-2.443-0.855
	c-0.641-1.485-1.896-2.304-3.514-2.408c-1.648-0.106-2.976,0.489-3.479,2.183c-0.467,1.572,0.154,2.806,1.595,3.499
	c1.896,0.912,3.854,1.694,5.782,2.542c5.065,2.23,7.208,5.531,6.601,10.151c-0.65,4.94-3.707,7.921-9.048,8.824
	c-5.611,0.949-10.345-1.646-12.423-6.627c-0.653-1.569-0.323-2.252,1.273-2.516c0.518-0.085,1.043-0.215,1.522-0.42
	c1.542-0.658,2.585-0.808,3.314,1.289c0.768,2.205,2.774,3.044,5.146,2.758c1.754-0.212,3.019-1.074,3.361-2.846
	c0.324-1.676-0.488-2.928-1.991-3.625c-1.831-0.847-3.727-1.556-5.579-2.358c-5.046-2.186-7.21-6.021-6.145-10.844
	C632.009,374.97,635.471,372.366,640.904,372.387z"/>
<path fill-rule="evenodd" clip-rule="evenodd" fill="#FE6528" d="M574.018,354.036c-2.355,0.794-3.464-0.609-3.641-3.146
	c-0.192-2.772-1.438-4.188-4.374-3.563c-0.084,0.018-0.175,0.002-0.264,0.002c-5.03,0-5.209-0.036-6.215,4.841
	c-0.562,2.72-2.388,1.784-3.84,1.837c-3.041,0.111-3.047,0.032-2.181-2.868c2.667-8.925,5.37-17.84,7.974-26.784
	c0.459-1.576,1.082-2.47,2.86-2.191c0.773,0.122,1.595,0.115,2.371,0.002c1.908-0.276,2.733,0.51,3.242,2.38
	c2.353,8.65,4.868,17.257,7.319,25.881C578.293,354.034,578.285,354.036,574.018,354.036z"/>
<path fill-rule="evenodd" clip-rule="evenodd" fill="#FE6528" d="M654.342,354.025c-0.879,0-1.4-0.004-1.922,0.001
	c-5.041,0.056-5.106,0.074-6.375-4.88c-0.353-1.377-0.904-1.994-2.303-1.84c-0.434,0.047-0.878,0.006-1.317,0.005
	c-5.439-0.008-5.528-0.032-6.942,5.239c-0.439,1.64-1.422,1.465-2.557,1.481c-4.228,0.058-4.214,0.067-3.036-3.861
	c2.546-8.491,5.148-16.965,7.561-25.494c0.56-1.979,1.404-2.83,3.423-2.487c0.512,0.086,1.065,0.089,1.577,0
	c2.282-0.395,3.093,0.666,3.675,2.828C648.702,334.588,651.506,344.097,654.342,354.025z"/>
<path fill-rule="evenodd" clip-rule="evenodd" fill="#FE6528" d="M608.401,388.635c-0.001-4.486,0.056-8.972-0.031-13.456
	c-0.032-1.622,0.313-2.346,2.146-2.303c5.01,0.119,10.027,0.148,15.036-0.003c2.242-0.068,2.095,1.185,2.063,2.656
	c-0.03,1.418,0.264,2.844-2.051,2.686c-2.714-0.185-5.453,0.034-8.176-0.069c-1.561-0.059-2.111,0.365-2.127,2.041
	c-0.055,5.56-0.13,5.56,5.4,5.56c0.353,0,0.704,0,1.055,0c2.917,0.003,4.151,1.873,3.123,4.606c-0.371,0.984-1.121,0.68-1.749,0.694
	c-2.021,0.046-4.047,0.065-6.067,0.004c-1.183-0.036-1.88,0.275-1.717,1.602c0.011,0.087,0.003,0.176-0.001,0.264
	c-0.288,6.189-0.288,6.189,5.816,6.191c1.231,0,2.478,0.125,3.69-0.025c2.151-0.264,2.828,0.477,2.877,2.711
	c0.054,2.46-0.711,3.094-3.087,2.995c-4.565-0.189-9.147-0.145-13.717-0.011c-1.897,0.055-2.61-0.357-2.534-2.425
	C608.52,397.785,608.403,393.208,608.401,388.635z"/>
<path fill-rule="evenodd" clip-rule="evenodd" fill="#FE6528" d="M684.469,338.15c-0.002-4.661,0.046-9.323-0.029-13.983
	c-0.023-1.458,0.391-2.006,1.918-1.983c5.188,0.08,10.379,0.1,15.566,0.005c2.268-0.041,1.691,1.482,1.725,2.681
	c0.035,1.269,0.385,2.713-1.812,2.618c-2.896-0.126-5.805,0.031-8.704-0.048c-1.393-0.039-1.75,0.472-1.798,1.823
	c-0.203,5.78-0.251,5.777,5.436,5.778c0.352,0,0.703,0,1.055,0c2.83,0.002,4.146,2.041,3.069,4.649
	c-0.338,0.816-0.96,0.641-1.523,0.649c-2.111,0.031-4.223,0.067-6.332-0.002c-1.234-0.041-1.625,0.386-1.703,1.647
	c-0.396,6.42-0.438,6.417,5.888,6.417c0.968,0,1.936,0,2.902,0c3.556,0.002,4.263,0.976,3.549,4.576
	c-0.194,0.979-0.717,1.046-1.46,1.045c-5.452-0.003-10.906-0.036-16.358,0.021c-1.539,0.016-1.388-0.935-1.387-1.909
	C684.471,347.472,684.47,342.811,684.469,338.15z"/>
<path fill-rule="evenodd" clip-rule="evenodd" fill="#FE6528" d="M586.096,322.194c2.729,0.003,5.459,0.054,8.187-0.013
	c2.312-0.056,1.653,1.645,1.595,2.772c-0.059,1.166,0.916,2.929-1.585,3.087c-4.795,0.305-4.79,0.391-4.79,5.143
	c-0.001,6.163-0.062,12.326,0.034,18.487c0.027,1.761-0.341,2.448-2.281,2.415c-4.679-0.082-4.68,0.024-4.681-4.711
	c-0.001-6.338-0.066-12.678,0.037-19.015c0.029-1.81-0.435-2.65-2.324-2.354c-0.343,0.054-0.711,0.057-1.053-0.002
	c-0.982-0.171-2.509,0.588-2.843-0.577c-0.419-1.46-0.239-3.139-0.078-4.698c0.074-0.715,1.008-0.524,1.595-0.528
	C580.637,322.181,583.367,322.191,586.096,322.194z"/>
<path fill-rule="evenodd" clip-rule="evenodd" fill="#0D0D0D" d="M565.647,563.13c2.99,0,5.98,0.048,8.968-0.021
	c1.356-0.03,1.857,0.444,1.842,1.822c-0.056,5.187-0.087,10.375,0.007,15.562c0.035,1.951-1.128,1.733-2.393,1.809
	c-1.49,0.088-1.995-0.381-1.875-1.943c0.202-2.639-0.586-4.902-3.293-5.992c-0.874-0.352-0.731-0.786-0.347-1.407
	c0.227-0.367,0.381-0.794,0.496-1.213c0.573-2.101-0.057-3.857-1.753-5.137c-1.267-0.956-2.686-0.837-3.902,0.156
	c-1.574,1.284-2.372,3.105-1.495,4.924c0.914,1.896,0.314,2.551-1.271,3.483c-1.845,1.085-2.161,3.159-1.975,5.147
	c0.14,1.506-0.278,2.075-1.825,1.982c-1.294-0.078-2.359,0.074-2.31-1.868c0.13-5.097,0.115-10.2,0.01-15.297
	c-0.035-1.703,0.615-2.079,2.147-2.033C559.666,563.195,562.658,563.13,565.647,563.13z"/>
<path fill-rule="evenodd" clip-rule="evenodd" fill="#0E0F0F" d="M561.965,551.617c0.207-1.117,0.485-2.227,0.604-3.352
	c0.168-1.593,1.038-2.097,2.512-1.854c1.811,0.298,0.703,1.502,0.581,2.222c-0.411,2.427-1.045,4.815-1.479,7.237
	c-0.23,1.284-0.597,2.03-2.141,2.042c-1.561,0.012-1.912-0.837-2.198-2.039c-0.345-1.447-0.785-2.873-1.372-4.983
	c-0.604,2.115-1.083,3.594-1.44,5.102c-0.298,1.259-0.803,1.938-2.288,1.915c-1.421-0.023-1.757-0.699-1.983-1.87
	c-0.501-2.591-1.126-5.156-1.662-7.74c-0.145-0.701-0.692-1.701,0.622-1.834c0.965-0.098,2.182-0.472,2.419,1.189
	c0.192,1.344,0.556,2.664,1.259,3.968c0.32-1.154,0.683-2.301,0.949-3.468c0.264-1.156,0.726-1.817,2.109-1.795
	c1.363,0.022,1.836,0.617,2.076,1.827c0.235,1.193,0.667,2.347,1.013,3.52C561.685,551.674,561.825,551.646,561.965,551.617z"/>
<path fill-rule="evenodd" clip-rule="evenodd" fill="#101010" d="M530.949,552.64c0,1.213-0.025,2.425,0.008,3.636
	c0.029,1.071-0.344,1.58-1.516,1.598c-1.263,0.018-1.715-0.459-1.69-1.696c0.052-2.545-0.015-5.092,0.024-7.637
	c0.012-0.798-0.379-1.923,0.956-2.072c1.017-0.114,2.091-0.313,2.815,0.843c0.958,1.53,2.02,2.996,3.587,4.38
	c0-1.173,0.042-2.349-0.012-3.519c-0.053-1.155,0.242-1.791,1.585-1.795c1.31-0.002,1.66,0.566,1.638,1.75
	c-0.046,2.544,0.018,5.092-0.038,7.637c-0.017,0.775,0.42,1.928-0.958,2.048c-1.021,0.089-2.099,0.271-2.807-0.88
	c-0.953-1.547-1.994-3.039-2.997-4.556C531.346,552.465,531.147,552.552,530.949,552.64z"/>
<path fill-rule="evenodd" clip-rule="evenodd" fill="#111212" d="M539.157,567.251c-2.903,0-5.807,0.011-8.71-0.005
	c-1.259-0.007-2.333-0.382-2.361-1.878c-0.029-1.516,1.057-1.919,2.307-1.925c5.719-0.029,11.438-0.038,17.157-0.016
	c1.229,0.005,2.361,0.37,2.354,1.888c-0.008,1.67-1.23,1.942-2.563,1.947c-2.727,0.012-5.455,0.004-8.182,0.004
	C539.157,567.262,539.157,567.256,539.157,567.251z"/>
<path fill-rule="evenodd" clip-rule="evenodd" fill="#0F0F0F" d="M540.698,552.188c-0.01-5.797-0.01-5.797,5.739-5.787
	c0.351,0.001,0.71-0.047,1.051,0.012c0.9,0.156,2.311-0.564,2.308,1.236c-0.003,1.794-1.425,1.015-2.306,1.262
	c-1.125,0.314-3.183-0.854-3.227,0.898c-0.04,1.591,1.973,0.576,3.046,0.826c0.859,0.201,2.084-0.306,2.038,1.287
	c-0.041,1.396-1.138,0.935-1.913,1.154c-1.143,0.32-3.329-1.039-3.233,1.213c0.079,1.856,2.127,0.611,3.238,0.966
	c0.916,0.293,2.531-0.69,2.468,1.328c-0.061,1.933-1.604,1.073-2.57,1.267c-0.337,0.066-0.699,0.008-1.05,0.007
	C540.708,557.842,540.708,557.842,540.698,552.188z"/>
<path fill-rule="evenodd" clip-rule="evenodd" fill="#0E0E0E" d="M538.996,574.354c-2.808-0.001-5.615-0.014-8.423,0.004
	c-1.256,0.008-2.39-0.255-2.464-1.728c-0.082-1.625,1.06-2.021,2.453-2.018c5.615,0.009,11.231,0.012,16.846,0.004
	c1.383-0.002,2.542,0.354,2.459,1.997c-0.073,1.467-1.18,1.758-2.449,1.748C544.612,574.34,541.804,574.355,538.996,574.354z"/>
<path fill-rule="evenodd" clip-rule="evenodd" fill="#0F0F0F" d="M538.992,577.804c2.809,0,5.618-0.001,8.428,0.001
	c1.228,0.001,2.39,0.224,2.462,1.736c0.079,1.654-1.087,2.023-2.454,2.024c-5.619,0.002-11.237-0.005-16.856-0.008
	c-1.373-0.001-2.528-0.371-2.468-2.016c0.056-1.538,1.248-1.718,2.461-1.722c2.809-0.009,5.619-0.003,8.428-0.003
	C538.992,577.812,538.992,577.809,538.992,577.804z"/>
<path fill-rule="evenodd" clip-rule="evenodd" fill="#0E0F0F" d="M571.853,546.262c1.075-0.02,2.147,0.061,3.018,0.733
	c0.747,0.576,1.81,1.418,1.131,2.305c-0.567,0.742-1.885,0.735-2.867,0.118c-0.431-0.27-0.766-0.729-1.22-0.916
	c-0.485-0.201-1.105-0.152-1.348,0.438c-0.274,0.667,0.25,0.931,0.77,1.1c1.083,0.353,2.222,0.573,3.253,1.038
	c2.162,0.972,2.774,3.066,1.574,5.008c-1.54,2.49-6.897,2.711-8.596,0.308c-0.416-0.587-1.218-1.512-0.497-2.048
	c0.744-0.556,1.963-0.882,2.876,0.021c0.425,0.422,0.643,1.061,1.28,1.266c0.838,0.27,1.655,0.181,2.023-0.683
	c0.372-0.872-0.359-1.246-1.033-1.505c-0.488-0.188-1.016-0.271-1.516-0.431c-1.914-0.61-3.863-1.346-3.468-3.861
	C567.637,546.588,569.736,546.309,571.853,546.262z"/>
<path fill-rule="evenodd" clip-rule="evenodd" fill="#F7F7F7" d="M561.969,388.675c0.002-2.806,0.118-5.619-0.039-8.416
	c-0.106-1.894,0.676-2.187,2.305-2.025c2.384,0.237,3.913,1.446,4.628,3.661c1.471,4.562,1.327,9.151-0.048,13.699
	c-0.438,1.448-1.304,2.663-2.797,3.303c-3.029,1.3-4.048,0.657-4.05-2.592C561.967,393.762,561.968,391.219,561.969,388.675z"/>
<path fill-rule="evenodd" clip-rule="evenodd" fill="#FAF9F9" d="M595.951,388.825c-0.135,2.622,0.06,5.278-0.746,7.825
	c-0.535,1.694-1.485,3.009-3.525,2.941c-1.995-0.067-3.027-1.316-3.41-3.082c-1.111-5.117-1.104-10.264-0.02-15.381
	c0.391-1.847,1.44-3.273,3.572-3.217c2.098,0.056,3.021,1.483,3.498,3.335C595.963,383.74,595.816,386.292,595.951,388.825z"/>
<path fill-rule="evenodd" clip-rule="evenodd" fill="#F2EEEE" d="M565.29,330.159c0.86,3.539,1.703,7.083,2.593,10.614
	c0.248,0.983-0.175,1.157-1.036,1.281c-4.565,0.654-5,0.217-3.947-4.144c0.492-2.042,0.963-4.088,1.454-6.131
	c0.123-0.509,0.284-1.008,0.428-1.512C564.951,330.231,565.12,330.195,565.29,330.159z"/>
<path fill-rule="evenodd" clip-rule="evenodd" fill="#FAF7F6" d="M641.328,330.097c0.884,3.622,1.757,7.245,2.655,10.862
	c0.228,0.916-0.308,0.971-0.987,1.084c-4.529,0.758-5.061,0.196-3.984-4.31c0.604-2.527,1.208-5.053,1.812-7.58
	C640.992,330.135,641.159,330.116,641.328,330.097z"/>
<path fill-rule="evenodd" clip-rule="evenodd" fill="#6D99A0" d="M578.333,497.834c0.038-6.45-9.962-6.446-10,0
	c-0.017,2.915-1.336,5.673-2.052,8.489c-0.07,0.22-0.144,0.436-0.186,0.682c-0.319,1.902-0.79,3.737-1.012,5.662
	c-0.003,0.03-0.001,0.06-0.004,0.091c-2.568,1.924-2.546,6.365,0.085,8.229c0.79,0.721,1.872,1.181,3.252,1.181
	c3.506,0,5.092-2.953,4.784-5.65c1.057-0.926,1.705-2.312,1.882-3.85c0.106-0.918,0.42-1.835,0.602-2.752
	c0.015-0.06,0.04-0.108,0.053-0.169C576.579,505.714,578.309,502.028,578.333,497.834z"/>
<path fill-rule="evenodd" clip-rule="evenodd" fill="#6D99A0" d="M519.596,479.922c-2.237,7.293-3.735,14.688-5.833,22
	c-0.479,1.669-0.128,3.077,0.669,4.128c-0.96,0.917-1.571,2.202-1.599,3.618c-0.001,0.049-0.069,0.904-0.052,1.009
	c-0.097,0.496-0.23,0.984-0.381,1.466c-0.07,0.187-0.108,0.29-0.131,0.356c-0.093,0.197-0.184,0.395-0.284,0.588
	c-0.294,0.59-0.633,1.157-0.969,1.725c-1.39,2.346-0.545,5.471,1.794,6.841c2.361,1.383,5.454,0.547,6.841-1.794
	c1.883-3.179,3.109-6.461,3.183-10.19c0.02-1.012-0.295-1.96-0.834-2.754c0.621-0.562,1.118-1.33,1.406-2.334
	c2.099-7.312,3.596-14.707,5.833-22C531.135,476.398,521.481,473.775,519.596,479.922z"/>
<path fill-rule="evenodd" clip-rule="evenodd" fill="#6D99A0" d="M543.996,594.678c-1.827-0.48-3.525-0.318-5.198-0.047
	c-3.099-1.309-7.097-0.397-9.667,2c-3.522,3.285-0.476,7.909,3.424,8.513c-0.166,0.532-0.344,1.061-0.514,1.585
	c-0.39,1.204-0.825,2.354-1.042,3.601c-0.415,2.373-0.728,4.767-1.001,7.163c-5.476-4.197-11.376-7.94-16.653-12.281
	c-4.507-3.707-9.807-6.377-15.474-7.804c-1.778-0.448-3.011-3.252-4.168-4.609c-1.297-1.521-2.408-1.833-2.654-4.115
	c-0.176-1.638-0.01-3.369-0.048-5.017c-0.107-4.688-7.043-7.202-9.317-2.523c-3.199,6.583-5.317,13.31-4.779,20.701
	c0.234,3.211,0.987,7.137,2.518,10.518c-0.375,4.065,0.672,9.09,5.579,8.805c5.304-0.309,10.044-6.829,5.147-10.714
	c0.415-1.235,0.896-2.45,1.353-3.67c0.128-0.342,0.247-0.687,0.367-1.031c3.117,1.473,6.509,2.129,9.661,3.582
	c5.777,2.661,10.626,7.827,15.823,11.487c4.555,3.207,9.062,6.322,12.984,10.201c0.932,2.854,2.792,4.909,6.333,4.478
	c4.424-0.54,6.494-4.983,3.536-8.535c-0.23-0.276-0.472-0.54-0.708-0.81c-0.022-0.552-0.029-1.104-0.03-1.652
	c-0.001-0.34,0.011-0.679,0.021-1.019c1.357-0.77,2.432-2.101,2.682-3.984c0.853-6.426,4.024-12.332,5.321-18.671
	C548.03,598.185,546.76,595.405,543.996,594.678z M539.549,627.045c-0.029-0.251-0.034-0.505-0.046-0.759
	C540.303,627.271,539.727,628.596,539.549,627.045z"/>
</svg>
