<?xml version="1.0" encoding="utf-8"?>
<!-- Generator: Adobe Illustrator 16.0.0, SVG Export Plug-In . SVG Version: 6.00 Build 0)  -->
<!DOCTYPE svg PUBLIC "-//W3C//DTD SVG 1.1//EN" "http://www.w3.org/Graphics/SVG/1.1/DTD/svg11.dtd">
<svg version="1.1" id="Layer_1" xmlns="http://www.w3.org/2000/svg" xmlns:xlink="http://www.w3.org/1999/xlink" x="0px" y="0px"
	 width="2217.999px" height="398.001px" viewBox="0 200.999 2217.999 398.001" enable-background="new 0 200.999 2217.999 398.001"
	 xml:space="preserve">
<path fill="#F26531" d="M379,599c-465.667,0-931.333,0-1397,0c0-132.667,0-265.333,0-398c690,0,1380,0,2070,0
	c-1.188,0.886-2.303,1.893-3.571,2.641c-93.369,55.042-186.75,110.064-280.13,165.087
	c-128.667,75.815-257.335,151.63-385.985,227.474C381.086,596.925,380.1,598.058,379,599z"/>
<path fill="#E3DDC7" d="M379,599c1.1-0.942,2.086-2.075,3.313-2.799c128.65-75.844,257.318-151.657,385.985-227.474
	c93.38-55.022,186.761-110.045,280.13-165.087c1.27-0.748,2.385-1.755,3.571-2.641c88,0,176,0,264,0
	c2.137,0.192,4.272,0.546,6.411,0.554c96.459,0.36,192.917,0.693,289.376,1.024c98.791,0.338,197.581,0.722,296.372,0.991
	c86.969,0.237,173.938,0.303,260.906,0.547c16.312,0.046,32.623,0.576,48.935,0.884c0,131.304,0,262.608,0,394
	C1605,599,992,599,379,599z"/>
</svg>
